<?xml version="1.0" standalone="no"?>
 <!DOCTYPE svg PUBLIC "-//W3C//DTD SVG 1.1//EN" 
 "http://www.w3.org/Graphics/SVG/1.1/DTD/svg11.dtd"> 
<svg
  xmlns:svg="http://www.w3.org/2000/svg"
  xmlns="http://www.w3.org/2000/svg"
  xmlns:xlink="http://www.w3.org/1999/xlink"
  version="1.1"
  width="297.0022mm" height="210.0072mm" viewBox="0.0000 0.0000 297.0022 210.0072">
<title>SVG Image created as panel_555-Edge_Cuts.svg date 2026/03/03 15:17:27 </title>
  <desc>Image generated by PCBNEW </desc>
<g style="fill:#000000; fill-opacity:1.0000;stroke:#000000; stroke-opacity:1.0000;
stroke-linecap:round; stroke-linejoin:round;"
 transform="translate(0 0) scale(1 1)">
</g>
<g style="fill:none; 
stroke:#000000; stroke-width:0.1000; stroke-opacity:1; 
stroke-linecap:round; stroke-linejoin:round;">
<path d="M151.3709 60.2506
L151.4431 60.2334
" />
<path d="M122.6408 112.4890
L122.6996 112.5342
" />
<path d="M151.2997 86.2715
L151.3709 86.2506
" />
<path d="M181.6634 60.2032
L181.7376 60.2004
" />
<path d="M122.8102 112.6331
L122.8617 112.6865
" />
<path d="M150.4924 62.5084
L150.4540 62.4450
" />
<path d="M181.0277 115.0115
L180.9637 114.9739
" />
<path d="M150.2603 61.5891
L150.2676 61.5153
" />
<path d="M152.3854 63.0619
L152.3173 63.0914
" />
<path d="M151.0934 115.0460
L151.0277 115.0115
" />
<path d="M120.3868 114.3127
L120.3582 114.2442
" />
<path d="M182.5168 88.9931
L182.4520 89.0292
" />
<path d="M150.3868 61.0880
L150.4188 61.0210
" />
<path d="M181.9596 89.1865
L181.8858 89.1947
" />
<path d="M180.8418 114.8894
L180.7841 114.8427
" />
<path d="M180.3330 62.1744
L180.3113 62.1035
" />
<path d="M120.7841 112.5579
L120.8418 112.5112
" />
<path d="M181.9596 63.1865
L181.8858 63.1947
" />
<path d="M181.2296 115.1049
L181.1608 115.0771
" />
<path d="M121.0277 60.3891
L121.0934 60.3547
" />
<path d="M150.2566 87.7374
L150.2566 87.6632
" />
<path d="M120.7288 114.7933
L120.6760 114.7411
" />
<path d="M121.9596 63.1865
L121.8858 63.1947
" />
<path d="M121.0934 86.3547
L121.1608 86.3235
" />
<path d="M180.4924 60.8922
L180.5339 60.8307
" />
<path d="M151.0277 86.3891
L151.0934 86.3547
" />
<path d="M150.4924 114.5084
L150.4540 114.4450
" />
<path d="M183.1671 114.2095
L183.1402 114.2786
" />
<path d="M182.9995 86.8612
L183.0394 86.9237
" />
<path d="M123.2488 113.8485
L123.2396 113.9221
" />
<path d="M121.0277 89.0115
L120.9637 88.9739
" />
<path d="M181.2997 86.2715
L181.3709 86.2506
" />
<path d="M151.6634 89.1974
L151.5895 89.1910
" />
<path d="M180.7288 62.7933
L180.6760 62.7411
" />
<path d="M120.2932 88.0315
L120.2786 87.9588
" />
<path d="M180.2603 87.5891
L180.2676 87.5153
" />
<path d="M180.6258 62.6864
L180.5785 62.6293
" />
<path d="M122.5168 88.9931
L122.4520 89.0292
" />
<path d="M120.3582 87.1564
L120.3868 87.0880
" />
<path d="M150.9637 62.9739
L150.9017 62.9332
" />
<path d="M150.6760 62.7411
L150.6258 62.6864
" />
<path d="M180.2786 61.9588
L180.2676 61.8854
" />
<path d="M181.8858 112.2059
L181.9596 112.2142
" />
<path d="M150.3582 113.1564
L150.3868 113.0880
" />
<path d="M182.9105 114.6582
L182.8617 114.7141
" />
<path d="M150.4924 60.8922
L150.5339 60.8307
" />
<path d="M123.2543 113.6261
L123.2561 113.7003
" />
<path d="M123.2543 87.6261
L123.2561 87.7003
" />
<path d="M151.5160 60.2197
L151.5895 60.2096
" />
<path d="M183.2396 87.9221
L183.2269 87.9952
" />
<path d="M183.2543 113.6261
L183.2561 113.7003
" />
<path d="M123.0763 88.4125
L123.0394 88.4769
" />
<path d="M120.5339 114.5699
L120.4924 114.5084
" />
<path d="M183.0763 112.9881
L183.1099 113.0543
" />
<path d="M180.6258 114.6864
L180.5785 114.6293
" />
<path d="M150.2932 62.0315
L150.2786 61.9588
" />
<path d="M120.6258 62.6864
L120.5784 62.6293
" />
<path d="M150.5785 60.7713
L150.6258 60.7142
" />
<path d="M122.5168 114.9931
L122.4520 115.0292
" />
<path d="M182.8102 86.6331
L182.8617 86.6865
" />
<path d="M123.1099 62.3464
L123.0763 62.4125
" />
<path d="M181.4431 63.1673
L181.3709 63.1500
" />
<path d="M121.4431 86.2334
L121.5160 86.2197
" />
<path d="M150.2932 113.3691
L150.3113 113.2972
" />
<path d="M152.2478 89.1174
L152.1771 89.1400
" />
<path d="M122.1771 60.2606
L122.2478 60.2832
" />
<path d="M180.3113 114.1035
L180.2932 114.0315
" />
<path d="M121.2296 112.2958
L121.2997 112.2715
" />
<path d="M182.1054 112.2415
L182.1771 112.2606
" />
<path d="M122.5168 60.4075
L122.5798 60.4467
" />
<path d="M150.3868 113.0880
L150.4188 113.0210
" />
<path d="M182.7562 112.5823
L182.8102 112.6331
" />
<path d="M121.2296 60.2958
L121.2997 60.2715
" />
<path d="M152.1054 112.2415
L152.1771 112.2606
" />
<path d="M180.5785 112.7713
L180.6258 112.7142
" />
<path d="M152.7562 62.8183
L152.6996 62.8664
" />
<path d="M150.5339 60.8307
L150.5785 60.7713
" />
<path d="M122.5798 86.4467
L122.6408 86.4890
" />
<path d="M153.2488 61.8485
L153.2396 61.9221
" />
<path d="M150.3582 88.2442
L150.3330 88.1744
" />
<path d="M182.4520 86.3715
L182.5168 86.4075
" />
<path d="M94.7561 56.7003
L186.7561 56.7003
" />
<path d="M151.0934 112.3547
L151.1608 112.3235
" />
<path d="M122.9995 86.8612
L123.0394 86.9237
" />
<path d="M153.1099 87.0543
L153.1402 87.1220
" />
<path d="M124.7561 56.7008
L96.7561 56.7008
" />
<path d="M122.1771 115.1400
L122.1054 115.1591
" />
<path d="M152.0328 112.2261
L152.1054 112.2415
" />
<path d="M122.6408 88.9117
L122.5798 88.9539
" />
<path d="M152.0328 89.1746
L151.9596 89.1865
" />
<path d="M181.1608 115.0771
L181.0934 115.0460
" />
<path d="M150.4188 62.3796
L150.3868 62.3127
" />
<path d="M182.7562 60.5823
L182.8102 60.6331
" />
<path d="M121.8118 60.2013
L121.8858 60.2059
" />
<path d="M122.1771 112.2606
L122.2478 112.2832
" />
<path d="M123.2543 61.6261
L123.2561 61.7003
" />
<path d="M183.2269 61.4054
L183.2396 61.4785
" />
<path d="M151.9596 86.2142
L152.0328 86.2261
" />
<path d="M123.2561 61.7003
L123.2543 61.7745
" />
<path d="M152.1771 63.1400
L152.1054 63.1591
" />
<path d="M151.9596 115.1865
L151.8858 115.1947
" />
<path d="M123.1905 87.2616
L123.2105 87.3330
" />
<path d="M122.3173 112.3092
L122.3854 112.3387
" />
<path d="M182.9995 112.8612
L183.0394 112.9237
" />
<path d="M154.7561 56.7008
L126.7561 56.7008
" />
<path d="M182.6408 60.4890
L182.6996 60.5342
" />
<path d="M153.1905 113.2616
L153.2105 113.3330
" />
<path d="M182.6996 88.8664
L182.6408 88.9117
" />
<path d="M123.2561 113.7003
L123.2543 113.7745
" />
<path d="M150.7288 112.6074
L150.7841 112.5579
" />
<path d="M150.3868 88.3127
L150.3582 88.2442
" />
<path d="M153.1671 62.2095
L153.1402 62.2786
" />
<path d="M152.5168 88.9931
L152.4520 89.0292
" />
<path d="M120.9017 114.9332
L120.8418 114.8894
" />
<path d="M180.4540 60.9557
L180.4924 60.8922
" />
<path d="M122.9105 62.6582
L122.8617 62.7141
" />
<path d="M121.0277 63.0115
L120.9637 62.9739
" />
<path d="M181.5895 112.2096
L181.6634 112.2032
" />
<path d="M182.5798 86.4467
L182.6408 86.4890
" />
<path d="M121.2296 63.1049
L121.1608 63.0771
" />
<path d="M183.1905 62.1391
L183.1671 62.2095
" />
<path d="M120.7841 114.8427
L120.7288 114.7933
" />
<path d="M153.0394 62.4769
L152.9995 62.5394
" />
<path d="M183.1905 88.1391
L183.1671 88.2095
" />
<path d="M181.0277 60.3891
L181.0934 60.3547
" />
<path d="M121.7376 86.2004
L121.8118 86.2013
" />
<path d="M181.2997 63.1292
L181.2296 63.1049
" />
<path d="M120.5784 88.6293
L120.5339 88.5699
" />
<path d="M150.5785 86.7713
L150.6258 86.7142
" />
<path d="M120.5784 114.6293
L120.5339 114.5699
" />
<path d="M120.5339 88.5699
L120.4924 88.5084
" />
<path d="M152.8617 60.6865
L152.9105 60.7425
" />
<path d="M150.8418 112.5112
L150.9017 112.4675
" />
<path d="M180.5339 112.8307
L180.5785 112.7713
" />
<path d="M150.6760 86.6595
L150.7288 86.6074
" />
<path d="M123.0394 112.9237
L123.0763 112.9881
" />
<path d="M120.4924 86.8922
L120.5339 86.8307
" />
<path d="M180.2932 113.3691
L180.3113 113.2972
" />
<path d="M181.0277 89.0115
L180.9637 88.9739
" />
<path d="M181.2997 60.2715
L181.3709 60.2506
" />
<path d="M152.6408 86.4890
L152.6996 86.5342
" />
<path d="M150.7841 112.5579
L150.8418 112.5112
" />
<path d="M121.5160 63.1810
L121.4431 63.1673
" />
<path d="M120.3868 113.0880
L120.4188 113.0210
" />
<path d="M122.3854 89.0619
L122.3173 89.0914
" />
<path d="M153.2105 61.3330
L153.2269 61.4054
" />
<path d="M151.1608 112.3235
L151.2296 112.2958
" />
<path d="M152.1771 86.2606
L152.2478 86.2832
" />
<path d="M152.7562 60.5823
L152.8102 60.6331
" />
<path d="M152.6408 112.4890
L152.6996 112.5342
" />
<path d="M152.8102 88.7675
L152.7562 88.8183
" />
<path d="M121.0934 60.3547
L121.1608 60.3235
" />
<path d="M120.4540 86.9557
L120.4924 86.8922
" />
<path d="M150.8418 62.8894
L150.7841 62.8427
" />
<path d="M151.5895 89.1910
L151.5160 89.1810
" />
<path d="M150.8418 114.8894
L150.7841 114.8427
" />
<path d="M150.2603 87.8115
L150.2566 87.7374
" />
<path d="M152.0328 86.2261
L152.1054 86.2415
" />
<path d="M182.3173 86.3092
L182.3854 86.3387
" />
<path d="M153.0394 112.9237
L153.0763 112.9881
" />
<path d="M123.1671 113.1912
L123.1905 113.2616
" />
<path d="M180.6258 88.6864
L180.5785 88.6293
" />
<path d="M120.4188 113.0210
L120.4540 112.9557
" />
<path d="M121.9596 60.2142
L122.0328 60.2261
" />
<path d="M182.6408 112.4890
L182.6996 112.5342
" />
<path d="M182.3854 115.0619
L182.3173 115.0914
" />
<path d="M123.2488 87.5521
L123.2543 87.6261
" />
<path d="M181.3709 60.2506
L181.4431 60.2334
" />
<path d="M152.3854 86.3387
L152.4520 86.3715
" />
<path d="M123.2105 113.3330
L123.2269 113.4054
" />
<path d="M123.2269 61.4054
L123.2396 61.4785
" />
<path d="M183.2105 62.0676
L183.1905 62.1391
" />
<path d="M151.0277 112.3891
L151.0934 112.3547
" />
<path d="M151.0277 60.3891
L151.0934 60.3547
" />
<path d="M150.3330 62.1744
L150.3113 62.1035
" />
<path d="M152.2478 115.1174
L152.1771 115.1400
" />
<path d="M183.2396 113.9221
L183.2269 113.9952
" />
<path d="M180.3868 113.0880
L180.4188 113.0210
" />
<path d="M152.5798 114.9539
L152.5168 114.9931
" />
<path d="M180.6258 86.7142
L180.6760 86.6595
" />
<path d="M152.2478 63.1174
L152.1771 63.1400
" />
<path d="M121.4431 63.1673
L121.3709 63.1500
" />
<path d="M120.7841 88.8427
L120.7288 88.7933
" />
<path d="M180.7841 112.5579
L180.8418 112.5112
" />
<path d="M152.6408 114.9117
L152.5798 114.9539
" />
<path d="M183.2269 113.9952
L183.2105 114.0676
" />
<path d="M153.2105 88.0676
L153.1905 88.1391
" />
<path d="M180.2566 61.6632
L180.2603 61.5891
" />
<path d="M120.2932 114.0315
L120.2786 113.9588
" />
<path d="M150.5339 88.5699
L150.4924 88.5084
" />
<path d="M181.0934 60.3547
L181.1608 60.3235
" />
<path d="M151.8858 89.1947
L151.8118 89.1993
" />
<path d="M120.3330 61.2262
L120.3582 61.1564
" />
<path d="M120.8418 60.5112
L120.9017 60.4675
" />
<path d="M123.2396 87.9221
L123.2269 87.9952
" />
<path d="M182.6408 114.9117
L182.5798 114.9539
" />
<path d="M182.3173 112.3092
L182.3854 112.3387
" />
<path d="M153.1402 87.1220
L153.1671 87.1912
" />
<path d="M153.0394 86.9237
L153.0763 86.9881
" />
<path d="M180.5339 62.5699
L180.4924 62.5084
" />
<path d="M120.5784 60.7713
L120.6258 60.7142
" />
<path d="M120.7288 112.6074
L120.7841 112.5579
" />
<path d="M150.3330 61.2262
L150.3582 61.1564
" />
<path d="M123.2488 87.8485
L123.2396 87.9221
" />
<path d="M151.4431 63.1673
L151.3709 63.1500
" />
<path d="M95.7561 56.7008
L94.7561 56.7008
" />
<path d="M181.0277 86.3891
L181.0934 86.3547
" />
<path d="M151.2296 112.2958
L151.2997 112.2715
" />
<path d="M96.7561 56.7008
L95.7561 56.7008
" />
<path d="M152.9105 88.6582
L152.8617 88.7141
" />
<path d="M150.2932 61.3691
L150.3113 61.2972
" />
<path d="M121.8858 112.2059
L121.9596 112.2142
" />
<path d="M151.9596 112.2142
L152.0328 112.2261
" />
<path d="M181.0934 115.0460
L181.0277 115.0115
" />
<path d="M181.2296 60.2958
L181.2997 60.2715
" />
<path d="M120.9017 86.4675
L120.9637 86.4267
" />
<path d="M121.0277 86.3891
L121.0934 86.3547
" />
<path d="M183.2543 87.7745
L183.2488 87.8485
" />
<path d="M152.5168 112.4075
L152.5798 112.4467
" />
<path d="M120.9017 112.4675
L120.9637 112.4267
" />
<path d="M152.5168 114.9931
L152.4520 115.0292
" />
<path d="M183.1099 113.0543
L183.1402 113.1220
" />
<path d="M120.3330 113.2262
L120.3582 113.1564
" />
<path d="M183.0763 114.4125
L183.0394 114.4769
" />
<path d="M153.2269 113.4054
L153.2396 113.4785
" />
<path d="M152.9995 62.5394
L152.9564 62.5999
" />
<path d="M122.5168 62.9931
L122.4520 63.0292
" />
<path d="M151.0934 60.3547
L151.1608 60.3235
" />
<path d="M153.2396 61.4785
L153.2488 61.5521
" />
<path d="M182.2478 89.1174
L182.1771 89.1400
" />
<path d="M180.7841 114.8427
L180.7288 114.7933
" />
<path d="M150.3113 88.1035
L150.2932 88.0315
" />
<path d="M123.2105 88.0676
L123.1905 88.1391
" />
<path d="M150.3582 114.2442
L150.3330 114.1744
" />
<path d="M150.2786 113.9588
L150.2676 113.8854
" />
<path d="M153.1099 61.0543
L153.1402 61.1220
" />
<path d="M152.9564 88.5999
L152.9105 88.6582
" />
<path d="M180.2932 88.0315
L180.2786 87.9588
" />
<path d="M122.1054 86.2415
L122.1771 86.2606
" />
<path d="M122.8102 88.7675
L122.7562 88.8183
" />
<path d="M153.2396 113.4785
L153.2488 113.5521
" />
<path d="M120.6760 114.7411
L120.6258 114.6864
" />
<path d="M120.4188 87.0210
L120.4540 86.9557
" />
<path d="M183.1402 62.2786
L183.1099 62.3464
" />
<path d="M120.9637 88.9739
L120.9017 88.9332
" />
<path d="M152.8617 112.6865
L152.9105 112.7425
" />
<path d="M121.2997 112.2715
L121.3709 112.2506
" />
<path d="M123.1671 61.1912
L123.1905 61.2616
" />
<path d="M121.5895 63.1910
L121.5160 63.1810
" />
<path d="M122.9995 88.5394
L122.9564 88.5999
" />
<path d="M120.9637 62.9739
L120.9017 62.9332
" />
<path d="M152.1054 115.1591
L152.0328 115.1746
" />
<path d="M123.1671 88.2095
L123.1402 88.2786
" />
<path d="M180.5785 62.6293
L180.5339 62.5699
" />
<path d="M120.7288 62.7933
L120.6760 62.7411
" />
<path d="M121.2997 86.2715
L121.3709 86.2506
" />
<path d="M150.7288 86.6074
L150.7841 86.5579
" />
<path d="M181.7376 86.2004
L181.8118 86.2013
" />
<path d="M150.9637 112.4267
L151.0277 112.3891
" />
<path d="M121.0934 115.0460
L121.0277 115.0115
" />
<path d="M122.3173 89.0914
L122.2478 89.1174
" />
<path d="M122.5168 112.4075
L122.5798 112.4467
" />
<path d="M180.7288 112.6074
L180.7841 112.5579
" />
<path d="M152.2478 112.2832
L152.3173 112.3092
" />
<path d="M152.4520 115.0292
L152.3854 115.0619
" />
<path d="M123.0763 112.9881
L123.1099 113.0543
" />
<path d="M123.1905 113.2616
L123.2105 113.3330
" />
<path d="M150.7288 88.7933
L150.6760 88.7411
" />
<path d="M120.8418 86.5112
L120.9017 86.4675
" />
<path d="M120.3330 114.1744
L120.3113 114.1035
" />
<path d="M181.6634 112.2032
L181.7376 112.2004
" />
<path d="M181.5160 63.1810
L181.4431 63.1673
" />
<path d="M153.1671 114.2095
L153.1402 114.2786
" />
<path d="M181.0934 89.0460
L181.0277 89.0115
" />
<path d="M152.5168 86.4075
L152.5798 86.4467
" />
<path d="M185.7561 56.7008
L184.7561 56.7008
" />
<path d="M153.0394 88.4769
L152.9995 88.5394
" />
<path d="M151.9596 63.1865
L151.8858 63.1947
" />
<path d="M123.1905 114.1391
L123.1671 114.2095
" />
<path d="M150.2566 113.6632
L150.2603 113.5891
" />
<path d="M151.0934 63.0460
L151.0277 63.0115
" />
<path d="M121.1608 63.0771
L121.0934 63.0460
" />
<path d="M123.2488 113.5521
L123.2543 113.6261
" />
<path d="M120.3113 62.1035
L120.2932 62.0315
" />
<path d="M120.7841 62.8427
L120.7288 62.7933
" />
<path d="M123.1671 62.2095
L123.1402 62.2786
" />
<path d="M181.7376 112.2004
L181.8118 112.2013
" />
<path d="M152.8617 88.7141
L152.8102 88.7675
" />
<path d="M122.7562 88.8183
L122.6996 88.8664
" />
<path d="M183.0763 60.9881
L183.1099 61.0543
" />
<path d="M181.2296 63.1049
L181.1608 63.0771
" />
<path d="M120.7841 60.5579
L120.8418 60.5112
" />
<path d="M182.0328 60.2261
L182.1054 60.2415
" />
<path d="M120.2676 87.5153
L120.2786 87.4419
" />
<path d="M121.5160 112.2197
L121.5895 112.2096
" />
<path d="M120.3330 87.2262
L120.3582 87.1564
" />
<path d="M151.4431 60.2334
L151.5160 60.2197
" />
<path d="M153.1671 88.2095
L153.1402 88.2786
" />
<path d="M120.9637 114.9739
L120.9017 114.9332
" />
<path d="M152.3173 60.3092
L152.3854 60.3387
" />
<path d="M181.4431 115.1673
L181.3709 115.1500
" />
<path d="M152.6996 60.5342
L152.7562 60.5823
" />
<path d="M181.6634 115.1974
L181.5895 115.1910
" />
<path d="M122.9995 114.5394
L122.9564 114.5999
" />
<path d="M121.8858 86.2059
L121.9596 86.2142
" />
<path d="M151.2296 115.1049
L151.1608 115.0771
" />
<path d="M150.2786 61.9588
L150.2676 61.8854
" />
<path d="M121.8858 60.2059
L121.9596 60.2142
" />
<path d="M121.9596 89.1865
L121.8858 89.1947
" />
<path d="M120.2566 61.7374
L120.2566 61.6632
" />
<path d="M120.2603 113.5891
L120.2676 113.5153
" />
<path d="M180.5785 114.6293
L180.5339 114.5699
" />
<path d="M180.2566 87.7374
L180.2566 87.6632
" />
<path d="M180.2603 61.8115
L180.2566 61.7374
" />
<path d="M152.6996 62.8664
L152.6408 62.9117
" />
<path d="M182.5798 112.4467
L182.6408 112.4890
" />
<path d="M150.4188 88.3796
L150.3868 88.3127
" />
<path d="M120.3868 62.3127
L120.3582 62.2442
" />
<path d="M120.2603 61.8115
L120.2566 61.7374
" />
<path d="M120.5784 112.7713
L120.6258 112.7142
" />
<path d="M152.2478 86.2832
L152.3173 86.3092
" />
<path d="M182.2478 86.2832
L182.3173 86.3092
" />
<path d="M153.2105 87.3330
L153.2269 87.4054
" />
<path d="M182.6408 86.4890
L182.6996 86.5342
" />
<path d="M151.9596 89.1865
L151.8858 89.1947
" />
<path d="M181.5160 86.2197
L181.5895 86.2096
" />
<path d="M122.8617 60.6865
L122.9105 60.7425
" />
<path d="M151.2997 112.2715
L151.3709 112.2506
" />
<path d="M122.6408 60.4890
L122.6996 60.5342
" />
<path d="M150.2603 87.5891
L150.2676 87.5153
" />
<path d="M122.3173 86.3092
L122.3854 86.3387
" />
<path d="M122.6996 60.5342
L122.7562 60.5823
" />
<path d="M122.2478 89.1174
L122.1771 89.1400
" />
<path d="M183.1402 87.1220
L183.1671 87.1912
" />
<path d="M181.2296 89.1049
L181.1608 89.0771
" />
<path d="M121.8858 115.1947
L121.8118 115.1993
" />
<path d="M122.9995 62.5394
L122.9564 62.5999
" />
<path d="M181.8858 115.1947
L181.8118 115.1993
" />
<path d="M181.5895 63.1910
L181.5160 63.1810
" />
<path d="M180.3582 87.1564
L180.3868 87.0880
" />
<path d="M183.2396 113.4785
L183.2488 113.5521
" />
<path d="M123.2543 61.7745
L123.2488 61.8485
" />
<path d="M181.9596 112.2142
L182.0328 112.2261
" />
<path d="M152.9564 62.5999
L152.9105 62.6582
" />
<path d="M180.9017 60.4675
L180.9637 60.4267
" />
<path d="M152.7562 88.8183
L152.6996 88.8664
" />
<path d="M122.8617 88.7141
L122.8102 88.7675
" />
<path d="M151.8858 112.2059
L151.9596 112.2142
" />
<path d="M151.2997 89.1292
L151.2296 89.1049
" />
<path d="M151.7376 63.2002
L151.6634 63.1974
" />
<path d="M180.7288 114.7933
L180.6760 114.7411
" />
<path d="M122.6408 114.9117
L122.5798 114.9539
" />
<path d="M152.0328 60.2261
L152.1054 60.2415
" />
<path d="M151.3709 115.1500
L151.2997 115.1292
" />
<path d="M180.9637 60.4267
L181.0277 60.3891
" />
<path d="M153.1402 114.2786
L153.1099 114.3464
" />
<path d="M180.9017 88.9332
L180.8418 88.8894
" />
<path d="M120.7288 88.7933
L120.6760 88.7411
" />
<path d="M182.6996 62.8664
L182.6408 62.9117
" />
<path d="M180.4188 87.0210
L180.4540 86.9557
" />
<path d="M152.3173 89.0914
L152.2478 89.1174
" />
<path d="M151.7376 86.2004
L151.8118 86.2013
" />
<path d="M121.8858 63.1947
L121.8118 63.1993
" />
<path d="M122.0328 112.2261
L122.1054 112.2415
" />
<path d="M182.9564 88.5999
L182.9105 88.6582
" />
<path d="M183.2488 113.8485
L183.2396 113.9221
" />
<path d="M92.7561 54.7003
L92.7561 138.7003
" />
<path d="M180.8418 62.8894
L180.7841 62.8427
" />
<path d="M120.3582 88.2442
L120.3330 88.1744
" />
<path d="M121.5895 89.1910
L121.5160 89.1810
" />
<path d="M183.1402 114.2786
L183.1099 114.3464
" />
<path d="M183.0763 86.9881
L183.1099 87.0543
" />
<path d="M183.1671 88.2095
L183.1402 88.2786
" />
<path d="M188.7561 54.7003
L92.7561 54.7003
" />
<path d="M121.2997 115.1292
L121.2296 115.1049
" />
<path d="M180.4924 88.5084
L180.4540 88.4450
" />
<path d="M122.5798 60.4467
L122.6408 60.4890
" />
<path d="M150.2676 61.8854
L150.2603 61.8115
" />
<path d="M152.9995 114.5394
L152.9564 114.5999
" />
<path d="M182.5798 62.9539
L182.5168 62.9931
" />
<path d="M150.2676 87.8854
L150.2603 87.8115
" />
<path d="M151.8858 63.1947
L151.8118 63.1993
" />
<path d="M182.9105 62.6582
L182.8617 62.7141
" />
<path d="M181.3709 115.1500
L181.2997 115.1292
" />
<path d="M121.0934 89.0460
L121.0277 89.0115
" />
<path d="M120.4188 61.0210
L120.4540 60.9557
" />
<path d="M180.7288 88.7933
L180.6760 88.7411
" />
<path d="M152.1771 112.2606
L152.2478 112.2832
" />
<path d="M121.5895 60.2096
L121.6634 60.2032
" />
<path d="M151.9596 60.2142
L152.0328 60.2261
" />
<path d="M151.0277 89.0115
L150.9637 88.9739
" />
<path d="M150.4188 114.3796
L150.3868 114.3127
" />
<path d="M181.8118 112.2013
L181.8858 112.2059
" />
<path d="M122.2478 60.2832
L122.3173 60.3092
" />
<path d="M150.5785 62.6293
L150.5339 62.5699
" />
<path d="M182.0328 86.2261
L182.1054 86.2415
" />
<path d="M120.2676 61.8854
L120.2603 61.8115
" />
<path d="M183.1099 88.3464
L183.0763 88.4125
" />
<path d="M120.7288 60.6074
L120.7841 60.5579
" />
<path d="M122.0328 89.1746
L121.9596 89.1865
" />
<path d="M150.3330 113.2262
L150.3582 113.1564
" />
<path d="M182.1054 89.1591
L182.0328 89.1746
" />
<path d="M120.4188 88.3796
L120.3868 88.3127
" />
<path d="M182.5798 114.9539
L182.5168 114.9931
" />
<path d="M150.2786 87.4419
L150.2932 87.3691
" />
<path d="M183.2488 61.8485
L183.2396 61.9221
" />
<path d="M122.8102 62.7675
L122.7562 62.8183
" />
<path d="M120.2786 61.9588
L120.2676 61.8854
" />
<path d="M150.9637 86.4267
L151.0277 86.3891
" />
<path d="M182.8617 112.6865
L182.9105 112.7425
" />
<path d="M182.1771 63.1400
L182.1054 63.1591
" />
<path d="M180.6760 88.7411
L180.6258 88.6864
" />
<path d="M122.3173 60.3092
L122.3854 60.3387
" />
<path d="M152.9105 114.6582
L152.8617 114.7141
" />
<path d="M180.4188 61.0210
L180.4540 60.9557
" />
<path d="M150.2932 87.3691
L150.3113 87.2972
" />
<path d="M120.2676 113.8854
L120.2603 113.8115
" />
<path d="M180.5339 88.5699
L180.4924 88.5084
" />
<path d="M150.2566 61.7374
L150.2566 61.6632
" />
<path d="M153.0763 114.4125
L153.0394 114.4769
" />
<path d="M92.7561 138.7003
L188.7561 138.7003
" />
<path d="M121.6634 115.1974
L121.5895 115.1910
" />
<path d="M151.1608 60.3235
L151.2296 60.2958
" />
<path d="M150.4924 112.8922
L150.5339 112.8307
" />
<path d="M151.3709 63.1500
L151.2997 63.1292
" />
<path d="M120.2603 113.8115
L120.2566 113.7374
" />
<path d="M150.7288 60.6074
L150.7841 60.5579
" />
<path d="M151.2296 89.1049
L151.1608 89.0771
" />
<path d="M182.9995 114.5394
L182.9564 114.5999
" />
<path d="M182.3173 115.0914
L182.2478 115.1174
" />
<path d="M153.2561 87.7003
L153.2543 87.7745
" />
<path d="M183.2543 61.6261
L183.2561 61.7003
" />
<path d="M182.7562 62.8183
L182.6996 62.8664
" />
<path d="M123.2396 113.4785
L123.2488 113.5521
" />
<path d="M183.1671 61.1912
L183.1905 61.2616
" />
<path d="M181.6634 63.1974
L181.5895 63.1910
" />
<path d="M120.4188 62.3796
L120.3868 62.3127
" />
<path d="M182.8617 62.7141
L182.8102 62.7675
" />
<path d="M151.0934 89.0460
L151.0277 89.0115
" />
<path d="M153.2543 87.7745
L153.2488 87.8485
" />
<path d="M151.0277 63.0115
L150.9637 62.9739
" />
<path d="M151.2296 86.2958
L151.2997 86.2715
" />
<path d="M153.0763 62.4125
L153.0394 62.4769
" />
<path d="M120.5784 86.7713
L120.6258 86.7142
" />
<path d="M180.6760 62.7411
L180.6258 62.6864
" />
<path d="M123.1671 87.1912
L123.1905 87.2616
" />
<path d="M151.2997 63.1292
L151.2296 63.1049
" />
<path d="M122.9564 88.5999
L122.9105 88.6582
" />
<path d="M180.2676 113.5153
L180.2786 113.4419
" />
<path d="M182.1054 60.2415
L182.1771 60.2606
" />
<path d="M121.5160 115.1810
L121.4431 115.1673
" />
<path d="M120.7841 86.5579
L120.8418 86.5112
" />
<path d="M180.9017 112.4675
L180.9637 112.4267
" />
<path d="M151.6634 60.2032
L151.7376 60.2004
" />
<path d="M181.8118 89.1993
L181.7376 89.2002
" />
<path d="M180.2676 61.5153
L180.2786 61.4419
" />
<path d="M182.8617 88.7141
L182.8102 88.7675
" />
<path d="M123.2269 87.9952
L123.2105 88.0676
" />
<path d="M182.5798 60.4467
L182.6408 60.4890
" />
<path d="M120.2676 113.5153
L120.2786 113.4419
" />
<path d="M183.1099 114.3464
L183.0763 114.4125
" />
<path d="M152.6996 86.5342
L152.7562 86.5823
" />
<path d="M151.0934 86.3547
L151.1608 86.3235
" />
<path d="M151.5160 112.2197
L151.5895 112.2096
" />
<path d="M152.1771 89.1400
L152.1054 89.1591
" />
<path d="M120.2786 113.9588
L120.2676 113.8854
" />
<path d="M121.2997 60.2715
L121.3709 60.2506
" />
<path d="M120.3113 88.1035
L120.2932 88.0315
" />
<path d="M182.2478 63.1174
L182.1771 63.1400
" />
<path d="M152.7562 86.5823
L152.8102 86.6331
" />
<path d="M151.7376 60.2004
L151.8118 60.2013
" />
<path d="M120.6258 114.6864
L120.5784 114.6293
" />
<path d="M120.4540 60.9557
L120.4924 60.8922
" />
<path d="M181.4431 112.2334
L181.5160 112.2197
" />
<path d="M122.6996 62.8664
L122.6408 62.9117
" />
<path d="M180.6258 112.7142
L180.6760 112.6595
" />
<path d="M121.6634 86.2032
L121.7376 86.2004
" />
<path d="M120.5339 60.8307
L120.5784 60.7713
" />
<path d="M153.1671 87.1912
L153.1905 87.2616
" />
<path d="M183.0394 60.9237
L183.0763 60.9881
" />
<path d="M150.2676 87.5153
L150.2786 87.4419
" />
<path d="M123.2105 114.0676
L123.1905 114.1391
" />
<path d="M153.1099 114.3464
L153.0763 114.4125
" />
<path d="M182.9995 88.5394
L182.9564 88.5999
" />
<path d="M122.6408 86.4890
L122.6996 86.5342
" />
<path d="M180.3582 61.1564
L180.3868 61.0880
" />
<path d="M150.7841 60.5579
L150.8418 60.5112
" />
<path d="M151.2296 60.2958
L151.2997 60.2715
" />
<path d="M120.2566 61.6632
L120.2603 61.5891
" />
<path d="M121.2296 115.1049
L121.1608 115.0771
" />
<path d="M183.0763 88.4125
L183.0394 88.4769
" />
<path d="M121.7376 115.2002
L121.6634 115.1974
" />
<path d="M122.6996 88.8664
L122.6408 88.9117
" />
<path d="M121.6634 112.2032
L121.7376 112.2004
" />
<path d="M180.6760 114.7411
L180.6258 114.6864
" />
<path d="M121.5160 86.2197
L121.5895 86.2096
" />
<path d="M150.6258 62.6864
L150.5785 62.6293
" />
<path d="M180.9637 114.9739
L180.9017 114.9332
" />
<path d="M182.3854 86.3387
L182.4520 86.3715
" />
<path d="M123.1905 88.1391
L123.1671 88.2095
" />
<path d="M150.4188 87.0210
L150.4540 86.9557
" />
<path d="M180.2676 61.8854
L180.2603 61.8115
" />
<path d="M122.5798 114.9539
L122.5168 114.9931
" />
<path d="M121.7376 60.2004
L121.8118 60.2013
" />
<path d="M182.7562 114.8183
L182.6996 114.8664
" />
<path d="M153.2543 61.6261
L153.2561 61.7003
" />
<path d="M182.0328 89.1746
L181.9596 89.1865
" />
<path d="M181.3709 86.2506
L181.4431 86.2334
" />
<path d="M183.2269 113.4054
L183.2396 113.4785
" />
<path d="M152.9564 112.8007
L152.9995 112.8612
" />
<path d="M152.8102 60.6331
L152.8617 60.6865
" />
<path d="M122.2478 86.2832
L122.3173 86.3092
" />
<path d="M183.0394 114.4769
L182.9995 114.5394
" />
<path d="M180.8418 60.5112
L180.9017 60.4675
" />
<path d="M123.0763 60.9881
L123.1099 61.0543
" />
<path d="M151.5895 112.2096
L151.6634 112.2032
" />
<path d="M151.2997 115.1292
L151.2296 115.1049
" />
<path d="M182.5168 112.4075
L182.5798 112.4467
" />
<path d="M150.4540 112.9557
L150.4924 112.8922
" />
<path d="M151.6634 63.1974
L151.5895 63.1910
" />
<path d="M123.0763 114.4125
L123.0394 114.4769
" />
<path d="M121.5160 60.2197
L121.5895 60.2096
" />
<path d="M180.4540 88.4450
L180.4188 88.3796
" />
<path d="M150.9017 60.4675
L150.9637 60.4267
" />
<path d="M150.4540 86.9557
L150.4924 86.8922
" />
<path d="M152.4520 89.0292
L152.3854 89.0619
" />
<path d="M153.1671 113.1912
L153.1905 113.2616
" />
<path d="M153.0763 86.9881
L153.1099 87.0543
" />
<path d="M180.2566 87.6632
L180.2603 87.5891
" />
<path d="M183.0394 88.4769
L182.9995 88.5394
" />
<path d="M180.9017 114.9332
L180.8418 114.8894
" />
<path d="M150.2566 113.7374
L150.2566 113.6632
" />
<path d="M181.7376 63.2002
L181.6634 63.1974
" />
<path d="M121.9596 115.1865
L121.8858 115.1947
" />
<path d="M180.2786 87.4419
L180.2932 87.3691
" />
<path d="M120.2932 113.3691
L120.3113 113.2972
" />
<path d="M125.7561 56.7008
L124.7561 56.7008
" />
<path d="M121.5160 89.1810
L121.4431 89.1673
" />
<path d="M150.9017 88.9332
L150.8418 88.8894
" />
<path d="M122.9564 86.8007
L122.9995 86.8612
" />
<path d="M150.9637 88.9739
L150.9017 88.9332
" />
<path d="M151.7376 89.2002
L151.6634 89.1974
" />
<path d="M121.4431 60.2334
L121.5160 60.2197
" />
<path d="M180.2603 61.5891
L180.2676 61.5153
" />
<path d="M151.7376 115.2002
L151.6634 115.1974
" />
<path d="M183.0394 112.9237
L183.0763 112.9881
" />
<path d="M152.9105 86.7425
L152.9564 86.8007
" />
<path d="M180.3330 88.1744
L180.3113 88.1035
" />
<path d="M120.2786 87.9588
L120.2676 87.8854
" />
<path d="M150.8418 86.5112
L150.9017 86.4675
" />
<path d="M183.1905 61.2616
L183.2105 61.3330
" />
<path d="M181.1608 86.3235
L181.2296 86.2958
" />
<path d="M180.2676 87.5153
L180.2786 87.4419
" />
<path d="M180.3113 62.1035
L180.2932 62.0315
" />
<path d="M120.5784 62.6293
L120.5339 62.5699
" />
<path d="M180.3330 61.2262
L180.3582 61.1564
" />
<path d="M152.1054 63.1591
L152.0328 63.1746
" />
<path d="M150.7841 86.5579
L150.8418 86.5112
" />
<path d="M122.8617 112.6865
L122.9105 112.7425
" />
<path d="M120.4924 60.8922
L120.5339 60.8307
" />
<path d="M123.1671 114.2095
L123.1402 114.2786
" />
<path d="M120.6258 88.6864
L120.5784 88.6293
" />
<path d="M120.4924 62.5084
L120.4540 62.4450
" />
<path d="M122.7562 86.5823
L122.8102 86.6331
" />
<path d="M180.4188 88.3796
L180.3868 88.3127
" />
<path d="M151.5895 86.2096
L151.6634 86.2032
" />
<path d="M153.2396 87.9221
L153.2269 87.9952
" />
<path d="M181.1608 60.3235
L181.2296 60.2958
" />
<path d="M182.3854 63.0619
L182.3173 63.0914
" />
<path d="M188.7561 138.7003
L188.7561 54.7003
" />
<path d="M153.1905 114.1391
L153.1671 114.2095
" />
<path d="M120.6760 88.7411
L120.6258 88.6864
" />
<path d="M151.3709 86.2506
L151.4431 86.2334
" />
<path d="M122.3854 86.3387
L122.4520 86.3715
" />
<path d="M152.8102 114.7675
L152.7562 114.8183
" />
<path d="M150.3113 114.1035
L150.2932 114.0315
" />
<path d="M150.2932 88.0315
L150.2786 87.9588
" />
<path d="M181.3709 112.2506
L181.4431 112.2334
" />
<path d="M151.4431 89.1673
L151.3709 89.1500
" />
<path d="M181.3709 63.1500
L181.2997 63.1292
" />
<path d="M120.2932 87.3691
L120.3113 87.2972
" />
<path d="M120.3330 88.1744
L120.3113 88.1035
" />
<path d="M120.3582 61.1564
L120.3868 61.0880
" />
<path d="M180.6258 60.7142
L180.6760 60.6595
" />
<path d="M180.7841 60.5579
L180.8418 60.5112
" />
<path d="M152.8617 86.6865
L152.9105 86.7425
" />
<path d="M120.2786 61.4419
L120.2932 61.3691
" />
<path d="M121.0934 112.3547
L121.1608 112.3235
" />
<path d="M182.6408 62.9117
L182.5798 62.9539
" />
<path d="M120.9017 62.9332
L120.8418 62.8894
" />
<path d="M150.3113 61.2972
L150.3330 61.2262
" />
<path d="M150.2786 87.9588
L150.2676 87.8854
" />
<path d="M123.1402 88.2786
L123.1099 88.3464
" />
<path d="M121.2997 89.1292
L121.2296 89.1049
" />
<path d="M120.8418 88.8894
L120.7841 88.8427
" />
<path d="M121.3709 86.2506
L121.4431 86.2334
" />
<path d="M180.5785 86.7713
L180.6258 86.7142
" />
<path d="M183.2561 87.7003
L183.2543 87.7745
" />
<path d="M181.1608 63.0771
L181.0934 63.0460
" />
<path d="M183.1402 113.1220
L183.1671 113.1912
" />
<path d="M152.6996 114.8664
L152.6408 114.9117
" />
<path d="M181.2296 86.2958
L181.2997 86.2715
" />
<path d="M183.2105 61.3330
L183.2269 61.4054
" />
<path d="M123.1099 114.3464
L123.0763 114.4125
" />
<path d="M181.5160 89.1810
L181.4431 89.1673
" />
<path d="M153.2269 87.4054
L153.2396 87.4785
" />
<path d="M122.9995 60.8612
L123.0394 60.9237
" />
<path d="M182.0328 63.1746
L181.9596 63.1865
" />
<path d="M120.3330 62.1744
L120.3113 62.1035
" />
<path d="M151.5895 115.1910
L151.5160 115.1810
" />
<path d="M181.0934 112.3547
L181.1608 112.3235
" />
<path d="M151.6634 86.2032
L151.7376 86.2004
" />
<path d="M181.8858 63.1947
L181.8118 63.1993
" />
<path d="M122.9995 112.8612
L123.0394 112.9237
" />
<path d="M121.1608 86.3235
L121.2296 86.2958
" />
<path d="M121.2997 63.1292
L121.2296 63.1049
" />
<path d="M180.7288 86.6074
L180.7841 86.5579
" />
<path d="M180.3868 87.0880
L180.4188 87.0210
" />
<path d="M180.3868 62.3127
L180.3582 62.2442
" />
<path d="M183.2269 87.4054
L183.2396 87.4785
" />
<path d="M183.2488 87.5521
L183.2543 87.6261
" />
<path d="M122.2478 115.1174
L122.1771 115.1400
" />
<path d="M153.1905 62.1391
L153.1671 62.2095
" />
<path d="M120.4924 114.5084
L120.4540 114.4450
" />
<path d="M152.4520 112.3715
L152.5168 112.4075
" />
<path d="M180.4540 114.4450
L180.4188 114.3796
" />
<path d="M182.8617 60.6865
L182.9105 60.7425
" />
<path d="M152.6408 88.9117
L152.5798 88.9539
" />
<path d="M151.8118 112.2013
L151.8858 112.2059
" />
<path d="M182.2478 60.2832
L182.3173 60.3092
" />
<path d="M152.9105 60.7425
L152.9564 60.8007
" />
<path d="M181.8118 60.2013
L181.8858 60.2059
" />
<path d="M121.3709 112.2506
L121.4431 112.2334
" />
<path d="M121.8118 115.1993
L121.7376 115.2002
" />
<path d="M181.1608 89.0771
L181.0934 89.0460
" />
<path d="M180.5339 86.8307
L180.5785 86.7713
" />
<path d="M150.3113 87.2972
L150.3330 87.2262
" />
<path d="M153.1905 87.2616
L153.2105 87.3330
" />
<path d="M121.8118 112.2013
L121.8858 112.2059
" />
<path d="M183.1099 61.0543
L183.1402 61.1220
" />
<path d="M152.3173 86.3092
L152.3854 86.3387
" />
<path d="M152.5168 60.4075
L152.5798 60.4467
" />
<path d="M180.3868 88.3127
L180.3582 88.2442
" />
<path d="M151.5895 63.1910
L151.5160 63.1810
" />
<path d="M150.3582 61.1564
L150.3868 61.0880
" />
<path d="M152.8102 86.6331
L152.8617 86.6865
" />
<path d="M150.5339 112.8307
L150.5785 112.7713
" />
<path d="M122.4520 60.3715
L122.5168 60.4075
" />
<path d="M180.3330 114.1744
L180.3113 114.1035
" />
<path d="M150.6760 114.7411
L150.6258 114.6864
" />
<path d="M150.2786 61.4419
L150.2932 61.3691
" />
<path d="M150.7288 62.7933
L150.6760 62.7411
" />
<path d="M180.3330 113.2262
L180.3582 113.1564
" />
<path d="M150.4924 86.8922
L150.5339 86.8307
" />
<path d="M150.3113 62.1035
L150.2932 62.0315
" />
<path d="M182.9564 62.5999
L182.9105 62.6582
" />
<path d="M150.9637 60.4267
L151.0277 60.3891
" />
<path d="M120.2676 87.8854
L120.2603 87.8115
" />
<path d="M180.6760 86.6595
L180.7288 86.6074
" />
<path d="M123.1402 61.1220
L123.1671 61.1912
" />
<path d="M150.4924 88.5084
L150.4540 88.4450
" />
<path d="M120.4540 114.4450
L120.4188 114.3796
" />
<path d="M120.9637 86.4267
L121.0277 86.3891
" />
<path d="M150.4540 60.9557
L150.4924 60.8922
" />
<path d="M181.8858 89.1947
L181.8118 89.1993
" />
<path d="M150.2566 87.6632
L150.2603 87.5891
" />
<path d="M180.9017 62.9332
L180.8418 62.8894
" />
<path d="M121.2296 89.1049
L121.1608 89.0771
" />
<path d="M120.8418 114.8894
L120.7841 114.8427
" />
<path d="M123.2396 61.4785
L123.2488 61.5521
" />
<path d="M180.4188 114.3796
L180.3868 114.3127
" />
<path d="M120.2566 87.7374
L120.2566 87.6632
" />
<path d="M153.2396 61.9221
L153.2269 61.9952
" />
<path d="M182.1771 112.2606
L182.2478 112.2832
" />
<path d="M120.9017 88.9332
L120.8418 88.8894
" />
<path d="M183.1402 88.2786
L183.1099 88.3464
" />
<path d="M122.9564 114.5999
L122.9105 114.6582
" />
<path d="M150.4188 61.0210
L150.4540 60.9557
" />
<path d="M120.3113 114.1035
L120.2932 114.0315
" />
<path d="M181.5160 112.2197
L181.5895 112.2096
" />
<path d="M183.2488 87.8485
L183.2396 87.9221
" />
<path d="M183.0763 62.4125
L183.0394 62.4769
" />
<path d="M122.2478 112.2832
L122.3173 112.3092
" />
<path d="M181.0277 112.3891
L181.0934 112.3547
" />
<path d="M150.5339 114.5699
L150.4924 114.5084
" />
<path d="M180.9637 112.4267
L181.0277 112.3891
" />
<path d="M121.8118 86.2013
L121.8858 86.2059
" />
<path d="M150.3868 114.3127
L150.3582 114.2442
" />
<path d="M182.5798 88.9539
L182.5168 88.9931
" />
<path d="M182.9105 86.7425
L182.9564 86.8007
" />
<path d="M120.2786 113.4419
L120.2932 113.3691
" />
<path d="M122.3173 115.0914
L122.2478 115.1174
" />
<path d="M182.9995 62.5394
L182.9564 62.5999
" />
<path d="M153.2488 87.8485
L153.2396 87.9221
" />
<path d="M186.7561 56.7008
L185.7561 56.7008
" />
<path d="M123.2396 87.4785
L123.2488 87.5521
" />
<path d="M120.4540 112.9557
L120.4924 112.8922
" />
<path d="M182.0328 115.1746
L181.9596 115.1865
" />
<path d="M152.3854 115.0619
L152.3173 115.0914
" />
<path d="M123.1402 114.2786
L123.1099 114.3464
" />
<path d="M182.9564 60.8007
L182.9995 60.8612
" />
<path d="M121.0277 112.3891
L121.0934 112.3547
" />
<path d="M181.7376 115.2002
L181.6634 115.1974
" />
<path d="M152.1054 86.2415
L152.1771 86.2606
" />
<path d="M180.2932 87.3691
L180.3113 87.2972
" />
<path d="M122.9564 112.8007
L122.9995 112.8612
" />
<path d="M123.2488 61.5521
L123.2543 61.6261
" />
<path d="M153.1402 113.1220
L153.1671 113.1912
" />
<path d="M152.5798 88.9539
L152.5168 88.9931
" />
<path d="M151.5160 115.1810
L151.4431 115.1673
" />
<path d="M180.3113 113.2972
L180.3330 113.2262
" />
<path d="M120.3113 113.2972
L120.3330 113.2262
" />
<path d="M151.1608 115.0771
L151.0934 115.0460
" />
<path d="M122.6996 112.5342
L122.7562 112.5823
" />
<path d="M123.1402 113.1220
L123.1671 113.1912
" />
<path d="M152.5798 86.4467
L152.6408 86.4890
" />
<path d="M152.3173 112.3092
L152.3854 112.3387
" />
<path d="M150.2603 113.5891
L150.2676 113.5153
" />
<path d="M182.6996 112.5342
L182.7562 112.5823
" />
<path d="M120.4188 114.3796
L120.3868 114.3127
" />
<path d="M182.9564 114.5999
L182.9105 114.6582
" />
<path d="M181.8118 63.1993
L181.7376 63.2002
" />
<path d="M123.2105 62.0676
L123.1905 62.1391
" />
<path d="M182.4520 115.0292
L182.3854 115.0619
" />
<path d="M182.1771 86.2606
L182.2478 86.2832
" />
<path d="M181.5895 86.2096
L181.6634 86.2032
" />
<path d="M182.6408 88.9117
L182.5798 88.9539
" />
<path d="M183.2488 61.5521
L183.2543 61.6261
" />
<path d="M123.1099 88.3464
L123.0763 88.4125
" />
<path d="M120.8418 112.5112
L120.9017 112.4675
" />
<path d="M120.3868 88.3127
L120.3582 88.2442
" />
<path d="M122.0328 115.1746
L121.9596 115.1865
" />
<path d="M150.7841 88.8427
L150.7288 88.7933
" />
<path d="M150.5339 62.5699
L150.4924 62.5084
" />
<path d="M153.2396 87.4785
L153.2488 87.5521
" />
<path d="M153.2488 61.5521
L153.2543 61.6261
" />
<path d="M182.8617 114.7141
L182.8102 114.7675
" />
<path d="M180.3113 88.1035
L180.2932 88.0315
" />
<path d="M122.3854 115.0619
L122.3173 115.0914
" />
<path d="M153.2488 87.5521
L153.2543 87.6261
" />
<path d="M152.9995 86.8612
L153.0394 86.9237
" />
<path d="M152.5168 62.9931
L152.4520 63.0292
" />
<path d="M150.8418 60.5112
L150.9017 60.4675
" />
<path d="M153.0763 60.9881
L153.1099 61.0543
" />
<path d="M180.8418 86.5112
L180.9017 86.4675
" />
<path d="M181.4431 86.2334
L181.5160 86.2197
" />
<path d="M150.2676 113.8854
L150.2603 113.8115
" />
<path d="M152.6408 60.4890
L152.6996 60.5342
" />
<path d="M123.2269 87.4054
L123.2396 87.4785
" />
<path d="M153.2269 113.9952
L153.2105 114.0676
" />
<path d="M151.5895 60.2096
L151.6634 60.2032
" />
<path d="M183.1099 62.3464
L183.0763 62.4125
" />
<path d="M150.4540 62.4450
L150.4188 62.3796
" />
<path d="M151.8118 63.1993
L151.7376 63.2002
" />
<path d="M183.2105 113.3330
L183.2269 113.4054
" />
<path d="M150.4540 114.4450
L150.4188 114.3796
" />
<path d="M181.2296 112.2958
L181.2997 112.2715
" />
<path d="M150.2932 114.0315
L150.2786 113.9588
" />
<path d="M152.8102 112.6331
L152.8617 112.6865
" />
<path d="M182.3173 89.0914
L182.2478 89.1174
" />
<path d="M120.6760 60.6595
L120.7288 60.6074
" />
<path d="M122.8102 86.6331
L122.8617 86.6865
" />
<path d="M182.9564 112.8007
L182.9995 112.8612
" />
<path d="M150.9017 114.9332
L150.8418 114.8894
" />
<path d="M152.9105 62.6582
L152.8617 62.7141
" />
<path d="M180.4540 62.4450
L180.4188 62.3796
" />
<path d="M152.4520 63.0292
L152.3854 63.0619
" />
<path d="M151.2997 60.2715
L151.3709 60.2506
" />
<path d="M150.2676 61.5153
L150.2786 61.4419
" />
<path d="M182.9105 88.6582
L182.8617 88.7141
" />
<path d="M182.2478 115.1174
L182.1771 115.1400
" />
<path d="M181.0277 63.0115
L180.9637 62.9739
" />
<path d="M182.8102 114.7675
L182.7562 114.8183
" />
<path d="M150.2566 61.6632
L150.2603 61.5891
" />
<path d="M151.6634 112.2032
L151.7376 112.2004
" />
<path d="M122.3173 63.0914
L122.2478 63.1174
" />
<path d="M182.8102 62.7675
L182.7562 62.8183
" />
<path d="M121.7376 63.2002
L121.6634 63.1974
" />
<path d="M150.4540 88.4450
L150.4188 88.3796
" />
<path d="M150.3113 113.2972
L150.3330 113.2262
" />
<path d="M182.8102 112.6331
L182.8617 112.6865
" />
<path d="M153.2561 113.7003
L153.2543 113.7745
" />
<path d="M152.3854 89.0619
L152.3173 89.0914
" />
<path d="M182.2478 112.2832
L182.3173 112.3092
" />
<path d="M180.7841 88.8427
L180.7288 88.7933
" />
<path d="M153.0763 88.4125
L153.0394 88.4769
" />
<path d="M120.6760 62.7411
L120.6258 62.6864
" />
<path d="M123.2396 61.9221
L123.2269 61.9952
" />
<path d="M151.0277 115.0115
L150.9637 114.9739
" />
<path d="M121.3709 89.1500
L121.2997 89.1292
" />
<path d="M122.9105 114.6582
L122.8617 114.7141
" />
<path d="M153.2105 62.0676
L153.1905 62.1391
" />
<path d="M121.5895 86.2096
L121.6634 86.2032
" />
<path d="M151.4431 115.1673
L151.3709 115.1500
" />
<path d="M120.6760 86.6595
L120.7288 86.6074
" />
<path d="M150.7288 114.7933
L150.6760 114.7411
" />
<path d="M121.7376 89.2002
L121.6634 89.1974
" />
<path d="M180.2676 87.8854
L180.2603 87.8115
" />
<path d="M180.2566 61.7374
L180.2566 61.6632
" />
<path d="M152.1054 89.1591
L152.0328 89.1746
" />
<path d="M153.0394 114.4769
L152.9995 114.5394
" />
<path d="M150.3868 87.0880
L150.4188 87.0210
" />
<path d="M151.1608 89.0771
L151.0934 89.0460
" />
<path d="M182.4520 63.0292
L182.3854 63.0619
" />
<path d="M120.9637 112.4267
L121.0277 112.3891
" />
<path d="M150.6760 88.7411
L150.6258 88.6864
" />
<path d="M150.9017 112.4675
L150.9637 112.4267
" />
<path d="M151.1608 63.0771
L151.0934 63.0460
" />
<path d="M121.1608 60.3235
L121.2296 60.2958
" />
<path d="M153.1905 61.2616
L153.2105 61.3330
" />
<path d="M153.1099 88.3464
L153.0763 88.4125
" />
<path d="M122.7562 112.5823
L122.8102 112.6331
" />
<path d="M182.0328 112.2261
L182.1054 112.2415
" />
<path d="M120.2786 87.4419
L120.2932 87.3691
" />
<path d="M180.8418 88.8894
L180.7841 88.8427
" />
<path d="M123.2543 87.7745
L123.2488 87.8485
" />
<path d="M121.1608 89.0771
L121.0934 89.0460
" />
<path d="M180.3330 87.2262
L180.3582 87.1564
" />
<path d="M180.7841 86.5579
L180.8418 86.5112
" />
<path d="M180.3868 61.0880
L180.4188 61.0210
" />
<path d="M123.2561 87.7003
L123.2543 87.7745
" />
<path d="M153.2396 113.9221
L153.2269 113.9952
" />
<path d="M181.5895 115.1910
L181.5160 115.1810
" />
<path d="M151.5160 63.1810
L151.4431 63.1673
" />
<path d="M150.7841 114.8427
L150.7288 114.7933
" />
<path d="M183.0394 86.9237
L183.0763 86.9881
" />
<path d="M120.3113 61.2972
L120.3330 61.2262
" />
<path d="M152.1771 115.1400
L152.1054 115.1591
" />
<path d="M122.0328 60.2261
L122.1054 60.2415
" />
<path d="M152.6996 88.8664
L152.6408 88.9117
" />
<path d="M150.4188 113.0210
L150.4540 112.9557
" />
<path d="M120.2932 62.0315
L120.2786 61.9588
" />
<path d="M120.2676 61.5153
L120.2786 61.4419
" />
<path d="M180.2566 113.6632
L180.2603 113.5891
" />
<path d="M180.2676 113.8854
L180.2603 113.8115
" />
<path d="M152.0328 63.1746
L151.9596 63.1865
" />
<path d="M122.5798 62.9539
L122.5168 62.9931
" />
<path d="M180.4540 86.9557
L180.4924 86.8922
" />
<path d="M182.1054 63.1591
L182.0328 63.1746
" />
<path d="M121.7376 112.2004
L121.8118 112.2013
" />
<path d="M121.8118 63.1993
L121.7376 63.2002
" />
<path d="M150.3868 62.3127
L150.3582 62.2442
" />
<path d="M182.5168 62.9931
L182.4520 63.0292
" />
<path d="M180.2786 61.4419
L180.2932 61.3691
" />
<path d="M183.2396 61.9221
L183.2269 61.9952
" />
<path d="M121.4431 112.2334
L121.5160 112.2197
" />
<path d="M183.2543 87.6261
L183.2561 87.7003
" />
<path d="M122.6996 114.8664
L122.6408 114.9117
" />
<path d="M180.9637 62.9739
L180.9017 62.9332
" />
<path d="M151.1608 86.3235
L151.2296 86.2958
" />
<path d="M182.6996 114.8664
L182.6408 114.9117
" />
<path d="M123.0763 62.4125
L123.0394 62.4769
" />
<path d="M182.3173 60.3092
L182.3854 60.3387
" />
<path d="M181.4431 60.2334
L181.5160 60.2197
" />
<path d="M122.1771 89.1400
L122.1054 89.1591
" />
<path d="M182.5168 86.4075
L182.5798 86.4467
" />
<path d="M181.1608 112.3235
L181.2296 112.2958
" />
<path d="M122.0328 63.1746
L121.9596 63.1865
" />
<path d="M120.9017 60.4675
L120.9637 60.4267
" />
<path d="M150.6760 60.6595
L150.7288 60.6074
" />
<path d="M181.7376 60.2004
L181.8118 60.2013
" />
<path d="M120.3582 114.2442
L120.3330 114.1744
" />
<path d="M122.4520 63.0292
L122.3854 63.0619
" />
<path d="M150.6258 112.7142
L150.6760 112.6595
" />
<path d="M152.3854 60.3387
L152.4520 60.3715
" />
<path d="M120.3868 61.0880
L120.4188 61.0210
" />
<path d="M180.2932 61.3691
L180.3113 61.2972
" />
<path d="M183.2269 61.9952
L183.2105 62.0676
" />
<path d="M181.9596 60.2142
L182.0328 60.2261
" />
<path d="M181.6634 86.2032
L181.7376 86.2004
" />
<path d="M150.3582 62.2442
L150.3330 62.1744
" />
<path d="M120.6258 112.7142
L120.6760 112.6595
" />
<path d="M152.9564 86.8007
L152.9995 86.8612
" />
<path d="M150.3330 88.1744
L150.3113 88.1035
" />
<path d="M120.2603 87.8115
L120.2566 87.7374
" />
<path d="M123.1905 62.1391
L123.1671 62.2095
" />
<path d="M120.2603 61.5891
L120.2676 61.5153
" />
<path d="M122.9105 86.7425
L122.9564 86.8007
" />
<path d="M152.8102 62.7675
L152.7562 62.8183
" />
<path d="M152.5798 60.4467
L152.6408 60.4890
" />
<path d="M120.3582 113.1564
L120.3868 113.0880
" />
<path d="M153.2543 113.7745
L153.2488 113.8485
" />
<path d="M121.0934 63.0460
L121.0277 63.0115
" />
<path d="M153.2269 61.4054
L153.2396 61.4785
" />
<path d="M123.1402 62.2786
L123.1099 62.3464
" />
<path d="M183.2105 114.0676
L183.1905 114.1391
" />
<path d="M182.1054 86.2415
L182.1771 86.2606
" />
<path d="M183.0394 62.4769
L182.9995 62.5394
" />
<path d="M152.7562 114.8183
L152.6996 114.8664
" />
<path d="M120.2603 87.5891
L120.2676 87.5153
" />
<path d="M180.5785 88.6293
L180.5339 88.5699
" />
<path d="M153.2561 61.7003
L153.2543 61.7745
" />
<path d="M180.2603 113.8115
L180.2566 113.7374
" />
<path d="M151.8858 60.2059
L151.9596 60.2142
" />
<path d="M150.2603 113.8115
L150.2566 113.7374
" />
<path d="M182.1771 60.2606
L182.2478 60.2832
" />
<path d="M181.8118 86.2013
L181.8858 86.2059
" />
<path d="M150.5785 114.6293
L150.5339 114.5699
" />
<path d="M152.9995 88.5394
L152.9564 88.5999
" />
<path d="M120.6258 60.7142
L120.6760 60.6595
" />
<path d="M121.3709 60.2506
L121.4431 60.2334
" />
<path d="M122.9564 62.5999
L122.9105 62.6582
" />
<path d="M183.1402 61.1220
L183.1671 61.1912
" />
<path d="M182.9105 112.7425
L182.9564 112.8007
" />
<path d="M121.6634 60.2032
L121.7376 60.2004
" />
<path d="M122.1054 89.1591
L122.0328 89.1746
" />
<path d="M121.8858 89.1947
L121.8118 89.1993
" />
<path d="M180.4924 112.8922
L180.5339 112.8307
" />
<path d="M150.9017 62.9332
L150.8418 62.8894
" />
<path d="M152.4520 60.3715
L152.5168 60.4075
" />
<path d="M122.8617 86.6865
L122.9105 86.7425
" />
<path d="M182.9564 86.8007
L182.9995 86.8612
" />
<path d="M123.2269 113.4054
L123.2396 113.4785
" />
<path d="M153.2105 113.3330
L153.2269 113.4054
" />
<path d="M120.9637 60.4267
L121.0277 60.3891
" />
<path d="M181.8858 60.2059
L181.9596 60.2142
" />
<path d="M122.4520 112.3715
L122.5168 112.4075
" />
<path d="M122.4520 89.0292
L122.3854 89.0619
" />
<path d="M122.8102 60.6331
L122.8617 60.6865
" />
<path d="M122.7562 114.8183
L122.6996 114.8664
" />
<path d="M120.2932 61.3691
L120.3113 61.2972
" />
<path d="M153.2269 61.9952
L153.2105 62.0676
" />
<path d="M153.2488 113.5521
L153.2543 113.6261
" />
<path d="M122.8617 62.7141
L122.8102 62.7675
" />
<path d="M152.3173 63.0914
L152.2478 63.1174
" />
<path d="M180.7288 60.6074
L180.7841 60.5579
" />
<path d="M120.4540 88.4450
L120.4188 88.3796
" />
<path d="M180.9637 86.4267
L181.0277 86.3891
" />
<path d="M123.0394 86.9237
L123.0763 86.9881
" />
<path d="M120.3582 62.2442
L120.3330 62.1744
" />
<path d="M181.2997 89.1292
L181.2296 89.1049
" />
<path d="M180.9637 88.9739
L180.9017 88.9332
" />
<path d="M182.1771 115.1400
L182.1054 115.1591
" />
<path d="M123.1099 87.0543
L123.1402 87.1220
" />
<path d="M180.2603 87.8115
L180.2566 87.7374
" />
<path d="M121.3709 63.1500
L121.2997 63.1292
" />
<path d="M180.9017 86.4675
L180.9637 86.4267
" />
<path d="M153.2105 114.0676
L153.1905 114.1391
" />
<path d="M120.6760 112.6595
L120.7288 112.6074
" />
<path d="M183.2561 61.7003
L183.2543 61.7745
" />
<path d="M183.2396 87.4785
L183.2488 87.5521
" />
<path d="M121.8118 89.1993
L121.7376 89.2002
" />
<path d="M122.9105 60.7425
L122.9564 60.8007
" />
<path d="M120.6258 86.7142
L120.6760 86.6595
" />
<path d="M121.6634 63.1974
L121.5895 63.1910
" />
<path d="M183.1671 62.2095
L183.1402 62.2786
" />
<path d="M155.7561 56.7008
L154.7561 56.7008
" />
<path d="M153.1905 88.1391
L153.1671 88.2095
" />
<path d="M152.8617 114.7141
L152.8102 114.7675
" />
<path d="M153.2488 113.8485
L153.2396 113.9221
" />
<path d="M122.2478 63.1174
L122.1771 63.1400
" />
<path d="M122.6996 86.5342
L122.7562 86.5823
" />
<path d="M153.2543 87.6261
L153.2561 87.7003
" />
<path d="M126.7561 56.7008
L125.7561 56.7008
" />
<path d="M150.3330 87.2262
L150.3582 87.1564
" />
<path d="M181.0934 63.0460
L181.0277 63.0115
" />
<path d="M180.3113 61.2972
L180.3330 61.2262
" />
<path d="M180.4540 112.9557
L180.4924 112.8922
" />
<path d="M122.1771 86.2606
L122.2478 86.2832
" />
<path d="M180.2932 114.0315
L180.2786 113.9588
" />
<path d="M181.6634 89.1974
L181.5895 89.1910
" />
<path d="M151.5160 89.1810
L151.4431 89.1673
" />
<path d="M153.1671 61.1912
L153.1905 61.2616
" />
<path d="M182.4520 60.3715
L182.5168 60.4075
" />
<path d="M122.9105 112.7425
L122.9564 112.8007
" />
<path d="M181.9596 86.2142
L182.0328 86.2261
" />
<path d="M180.5785 60.7713
L180.6258 60.7142
" />
<path d="M123.0394 88.4769
L122.9995 88.5394
" />
<path d="M122.5798 88.9539
L122.5168 88.9931
" />
<path d="M151.4431 86.2334
L151.5160 86.2197
" />
<path d="M181.3709 89.1500
L181.2997 89.1292
" />
<path d="M122.1054 63.1591
L122.0328 63.1746
" />
<path d="M183.2543 113.7745
L183.2488 113.8485
" />
<path d="M150.6258 60.7142
L150.6760 60.6595
" />
<path d="M183.1905 114.1391
L183.1671 114.2095
" />
<path d="M180.4188 113.0210
L180.4540 112.9557
" />
<path d="M153.1099 113.0543
L153.1402 113.1220
" />
<path d="M182.3854 60.3387
L182.4520 60.3715
" />
<path d="M182.6996 60.5342
L182.7562 60.5823
" />
<path d="M152.8617 62.7141
L152.8102 62.7675
" />
<path d="M121.9596 112.2142
L122.0328 112.2261
" />
<path d="M122.7562 60.5823
L122.8102 60.6331
" />
<path d="M122.3854 60.3387
L122.4520 60.3715
" />
<path d="M123.1099 113.0543
L123.1402 113.1220
" />
<path d="M181.4431 89.1673
L181.3709 89.1500
" />
<path d="M180.2786 113.9588
L180.2676 113.8854
" />
<path d="M181.5895 89.1910
L181.5160 89.1810
" />
<path d="M122.4520 115.0292
L122.3854 115.0619
" />
<path d="M152.5798 112.4467
L152.6408 112.4890
" />
<path d="M152.9564 114.5999
L152.9105 114.6582
" />
<path d="M120.4924 112.8922
L120.5339 112.8307
" />
<path d="M182.5168 114.9931
L182.4520 115.0292
" />
<path d="M121.9596 86.2142
L122.0328 86.2261
" />
<path d="M121.4431 115.1673
L121.3709 115.1500
" />
<path d="M120.5339 86.8307
L120.5784 86.7713
" />
<path d="M120.4540 62.4450
L120.4188 62.3796
" />
<path d="M121.1608 115.0771
L121.0934 115.0460
" />
<path d="M182.5168 60.4075
L182.5798 60.4467
" />
<path d="M151.8118 115.1993
L151.7376 115.2002
" />
<path d="M150.5785 88.6293
L150.5339 88.5699
" />
<path d="M152.0328 115.1746
L151.9596 115.1865
" />
<path d="M123.2269 61.9952
L123.2105 62.0676
" />
<path d="M180.3582 62.2442
L180.3330 62.1744
" />
<path d="M182.3854 89.0619
L182.3173 89.0914
" />
<path d="M153.2543 61.7745
L153.2488 61.8485
" />
<path d="M150.8418 88.8894
L150.7841 88.8427
" />
<path d="M181.5160 115.1810
L181.4431 115.1673
" />
<path d="M123.2269 113.9952
L123.2105 114.0676
" />
<path d="M153.1402 88.2786
L153.1099 88.3464
" />
<path d="M123.1402 87.1220
L123.1671 87.1912
" />
<path d="M151.3709 89.1500
L151.2997 89.1292
" />
<path d="M180.3582 113.1564
L180.3868 113.0880
" />
<path d="M180.6760 60.6595
L180.7288 60.6074
" />
<path d="M183.2269 87.9952
L183.2105 88.0676
" />
<path d="M153.2269 87.9952
L153.2105 88.0676
" />
<path d="M183.2105 88.0676
L183.1905 88.1391
" />
<path d="M120.2566 87.6632
L120.2603 87.5891
" />
<path d="M181.2997 115.1292
L181.2296 115.1049
" />
<path d="M122.1771 63.1400
L122.1054 63.1591
" />
<path d="M120.8418 62.8894
L120.7841 62.8427
" />
<path d="M151.8118 89.1993
L151.7376 89.2002
" />
<path d="M152.9105 112.7425
L152.9564 112.8007
" />
<path d="M152.9995 112.8612
L153.0394 112.9237
" />
<path d="M153.2543 113.6261
L153.2561 113.7003
" />
<path d="M183.2105 87.3330
L183.2269 87.4054
" />
<path d="M152.3854 112.3387
L152.4520 112.3715
" />
<path d="M122.6408 62.9117
L122.5798 62.9539
" />
<path d="M151.8118 86.2013
L151.8858 86.2059
" />
<path d="M183.1671 113.1912
L183.1905 113.2616
" />
<path d="M152.1771 60.2606
L152.2478 60.2832
" />
<path d="M151.8858 86.2059
L151.9596 86.2142
" />
<path d="M122.4520 86.3715
L122.5168 86.4075
" />
<path d="M120.2566 113.7374
L120.2566 113.6632
" />
<path d="M181.5160 60.2197
L181.5895 60.2096
" />
<path d="M120.4924 88.5084
L120.4540 88.4450
" />
<path d="M121.5895 115.1910
L121.5160 115.1810
" />
<path d="M181.9596 115.1865
L181.8858 115.1947
" />
<path d="M152.3173 115.0914
L152.2478 115.1174
" />
<path d="M122.9564 60.8007
L122.9995 60.8612
" />
<path d="M180.4924 62.5084
L180.4540 62.4450
" />
<path d="M152.9995 60.8612
L153.0394 60.9237
" />
<path d="M122.3854 112.3387
L122.4520 112.3715
" />
<path d="M123.2488 61.8485
L123.2396 61.9221
" />
<path d="M183.2396 61.4785
L183.2488 61.5521
" />
<path d="M123.0394 114.4769
L122.9995 114.5394
" />
<path d="M120.5339 62.5699
L120.4924 62.5084
" />
<path d="M150.7841 62.8427
L150.7288 62.7933
" />
<path d="M122.3854 63.0619
L122.3173 63.0914
" />
<path d="M120.5339 112.8307
L120.5784 112.7713
" />
<path d="M151.3709 112.2506
L151.4431 112.2334
" />
<path d="M182.8102 88.7675
L182.7562 88.8183
" />
<path d="M123.1905 61.2616
L123.2105 61.3330
" />
<path d="M152.5798 62.9539
L152.5168 62.9931
" />
<path d="M180.8418 112.5112
L180.9017 112.4675
" />
<path d="M153.1099 62.3464
L153.0763 62.4125
" />
<path d="M180.2786 87.9588
L180.2676 87.8854
" />
<path d="M122.8102 114.7675
L122.7562 114.8183
" />
<path d="M183.1671 87.1912
L183.1905 87.2616
" />
<path d="M150.2786 113.4419
L150.2932 113.3691
" />
<path d="M122.1054 115.1591
L122.0328 115.1746
" />
<path d="M121.3709 115.1500
L121.2997 115.1292
" />
<path d="M182.1054 115.1591
L182.0328 115.1746
" />
<path d="M152.4520 86.3715
L152.5168 86.4075
" />
<path d="M151.8858 115.1947
L151.8118 115.1993
" />
<path d="M183.1099 87.0543
L183.1402 87.1220
" />
<path d="M150.5785 112.7713
L150.6258 112.7142
" />
<path d="M150.5339 86.8307
L150.5785 86.7713
" />
<path d="M123.2543 113.7745
L123.2488 113.8485
" />
<path d="M180.5339 60.8307
L180.5785 60.7713
" />
<path d="M181.8118 115.1993
L181.7376 115.2002
" />
<path d="M182.3854 112.3387
L182.4520 112.3715
" />
<path d="M122.1054 60.2415
L122.1771 60.2606
" />
<path d="M152.7562 112.5823
L152.8102 112.6331
" />
<path d="M150.6258 86.7142
L150.6760 86.6595
" />
<path d="M121.1608 112.3235
L121.2296 112.2958
" />
<path d="M182.9105 60.7425
L182.9564 60.8007
" />
<path d="M122.7562 62.8183
L122.6996 62.8664
" />
<path d="M181.0934 86.3547
L181.1608 86.3235
" />
<path d="M180.3582 88.2442
L180.3330 88.1744
" />
<path d="M152.6996 112.5342
L152.7562 112.5823
" />
<path d="M122.0328 86.2261
L122.1054 86.2415
" />
<path d="M122.5168 86.4075
L122.5798 86.4467
" />
<path d="M122.9105 88.6582
L122.8617 88.7141
" />
<path d="M153.0763 112.9881
L153.1099 113.0543
" />
<path d="M180.3113 87.2972
L180.3330 87.2262
" />
<path d="M121.4431 89.1673
L121.3709 89.1500
" />
<path d="M180.4924 86.8922
L180.5339 86.8307
" />
<path d="M153.1402 61.1220
L153.1671 61.1912
" />
<path d="M180.5339 114.5699
L180.4924 114.5084
" />
<path d="M152.2478 60.2832
L152.3173 60.3092
" />
<path d="M120.3868 87.0880
L120.4188 87.0210
" />
<path d="M181.7376 89.2002
L181.6634 89.1974
" />
<path d="M121.6634 89.1974
L121.5895 89.1910
" />
<path d="M150.6258 114.6864
L150.5785 114.6293
" />
<path d="M183.2488 113.5521
L183.2543 113.6261
" />
<path d="M151.7376 112.2004
L151.8118 112.2013
" />
<path d="M150.6258 88.6864
L150.5785 88.6293
" />
<path d="M123.2396 113.9221
L123.2269 113.9952
" />
<path d="M120.7288 86.6074
L120.7841 86.5579
" />
<path d="M150.3582 87.1564
L150.3868 87.0880
" />
<path d="M180.4188 62.3796
L180.3868 62.3127
" />
<path d="M151.8118 60.2013
L151.8858 60.2059
" />
<path d="M122.5798 112.4467
L122.6408 112.4890
" />
<path d="M180.2932 62.0315
L180.2786 61.9588
" />
<path d="M150.6760 112.6595
L150.7288 112.6074
" />
<path d="M180.2566 113.7374
L180.2566 113.6632
" />
<path d="M182.7562 86.5823
L182.8102 86.6331
" />
<path d="M150.2676 113.5153
L150.2786 113.4419
" />
<path d="M151.5160 86.2197
L151.5895 86.2096
" />
<path d="M123.0394 60.9237
L123.0763 60.9881
" />
<path d="M151.6634 115.1974
L151.5895 115.1910
" />
<path d="M153.1402 62.2786
L153.1099 62.3464
" />
<path d="M180.2603 113.5891
L180.2676 113.5153
" />
<path d="M182.9995 60.8612
L183.0394 60.9237
" />
<path d="M153.0394 60.9237
L153.0763 60.9881
" />
<path d="M120.3113 87.2972
L120.3330 87.2262
" />
<path d="M151.2296 63.1049
L151.1608 63.0771
" />
<path d="M152.6408 62.9117
L152.5798 62.9539
" />
<path d="M182.8102 60.6331
L182.8617 60.6865
" />
<path d="M151.4431 112.2334
L151.5160 112.2197
" />
<path d="M182.6996 86.5342
L182.7562 86.5823
" />
<path d="M123.0763 86.9881
L123.1099 87.0543
" />
<path d="M181.8858 86.2059
L181.9596 86.2142
" />
<path d="M150.9637 114.9739
L150.9017 114.9332
" />
<path d="M184.7561 56.7008
L156.7561 56.7008
" />
<path d="M180.6760 112.6595
L180.7288 112.6074
" />
<path d="M180.2786 113.4419
L180.2932 113.3691
" />
<path d="M150.2603 61.8115
L150.2566 61.7374
" />
<path d="M123.2105 61.3330
L123.2269 61.4054
" />
<path d="M150.3330 114.1744
L150.3113 114.1035
" />
<path d="M150.9017 86.4675
L150.9637 86.4267
" />
<path d="M152.1054 60.2415
L152.1771 60.2606
" />
<path d="M183.2561 113.7003
L183.2543 113.7745
" />
<path d="M182.4520 112.3715
L182.5168 112.4075
" />
<path d="M183.1905 113.2616
L183.2105 113.3330
" />
<path d="M123.2105 87.3330
L123.2269 87.4054
" />
<path d="M181.5895 60.2096
L181.6634 60.2032
" />
<path d="M122.8617 114.7141
L122.8102 114.7675
" />
<path d="M122.1054 112.2415
L122.1771 112.2606
" />
<path d="M121.0277 115.0115
L120.9637 114.9739
" />
<path d="M156.7561 56.7008
L155.7561 56.7008
" />
<path d="M183.2543 61.7745
L183.2488 61.8485
" />
<path d="M120.2566 113.6632
L120.2603 113.5891
" />
<path d="M182.3173 63.0914
L182.2478 63.1174
" />
<path d="M181.2997 112.2715
L181.3709 112.2506
" />
<path d="M182.8617 86.6865
L182.9105 86.7425
" />
<path d="M182.7562 88.8183
L182.6996 88.8664
" />
<path d="M183.1905 87.2616
L183.2105 87.3330
" />
<path d="M123.1099 61.0543
L123.1402 61.1220
" />
<path d="M180.4924 114.5084
L180.4540 114.4450
" />
<path d="M182.4520 89.0292
L182.3854 89.0619
" />
<path d="M180.3868 114.3127
L180.3582 114.2442
" />
<path d="M182.1771 89.1400
L182.1054 89.1591
" />
<path d="M121.5895 112.2096
L121.6634 112.2032
" />
<path d="M152.9564 60.8007
L152.9995 60.8612
" />
<path d="M121.2296 86.2958
L121.2997 86.2715
" />
<path d="M180.3582 114.2442
L180.3330 114.1744
" />
<path d="M123.0394 62.4769
L122.9995 62.5394
" />
<path d="M180.7841 62.8427
L180.7288 62.7933
" />
</g> 
</svg>
