<?xml version="1.0" standalone="no"?>
 <!DOCTYPE svg PUBLIC "-//W3C//DTD SVG 1.1//EN" 
 "http://www.w3.org/Graphics/SVG/1.1/DTD/svg11.dtd"> 
<svg
  xmlns:svg="http://www.w3.org/2000/svg"
  xmlns="http://www.w3.org/2000/svg"
  xmlns:xlink="http://www.w3.org/1999/xlink"
  version="1.1"
  width="297.0022mm" height="210.0072mm" viewBox="0.0000 0.0000 297.0022 210.0072">
<title>SVG Image created as panel_555-F_Paste.svg date 2026/03/03 14:42:48 </title>
  <desc>Image generated by PCBNEW </desc>
<g style="fill:#000000; fill-opacity:1.0000;stroke:#000000; stroke-opacity:1.0000;
stroke-linecap:round; stroke-linejoin:round;"
 transform="translate(0 0) scale(1 1)">
<path style="fill:#000000; fill-opacity:1.0000; stroke:none;fill-rule:evenodd;"
d="M 165.4936,127.1628
165.5845,127.1809
165.6616,127.2324
165.7131,127.3094
165.7311,127.4003
165.7311,128.0003
165.7131,128.0912
165.6616,128.1683
165.5845,128.2197
165.4936,128.2378
165.0186,128.2378
164.9278,128.2197
164.8507,128.1683
164.7992,128.0912
164.7811,128.0003
164.7811,127.4003
164.7992,127.3094
164.8507,127.2324
164.9278,127.1809
165.0186,127.1628
Z" /> 
<path style="fill:#000000; fill-opacity:1.0000; stroke:none;fill-rule:evenodd;"
d="M 165.4936,128.8878
165.5845,128.9059
165.6616,128.9574
165.7131,129.0344
165.7311,129.1253
165.7311,129.7253
165.7131,129.8162
165.6616,129.8933
165.5845,129.9447
165.4936,129.9628
165.0186,129.9628
164.9278,129.9447
164.8507,129.8933
164.7992,129.8162
164.7811,129.7253
164.7811,129.1253
164.7992,129.0344
164.8507,128.9574
164.9278,128.9059
165.0186,128.8878
Z" /> 
<path style="fill:#000000; fill-opacity:1.0000; stroke:none;fill-rule:evenodd;"
d="M 148.5186,124.4378
148.5006,124.5287
148.4491,124.6058
148.3720,124.6572
148.2811,124.6753
147.6811,124.6753
147.5903,124.6572
147.5132,124.6058
147.4617,124.5287
147.4436,124.4378
147.4436,123.9628
147.4617,123.8719
147.5132,123.7949
147.5903,123.7434
147.6811,123.7253
148.2811,123.7253
148.3720,123.7434
148.4491,123.7949
148.5006,123.8719
148.5186,123.9628
Z" /> 
<path style="fill:#000000; fill-opacity:1.0000; stroke:none;fill-rule:evenodd;"
d="M 146.7936,124.4378
146.7756,124.5287
146.7241,124.6058
146.6470,124.6572
146.5561,124.6753
145.9561,124.6753
145.8653,124.6572
145.7882,124.6058
145.7367,124.5287
145.7186,124.4378
145.7186,123.9628
145.7367,123.8719
145.7882,123.7949
145.8653,123.7434
145.9561,123.7253
146.5561,123.7253
146.6470,123.7434
146.7241,123.7949
146.7756,123.8719
146.7936,123.9628
Z" /> 
<path style="fill:#000000; fill-opacity:1.0000; stroke:none;fill-rule:evenodd;"
d="M 148.5186,98.4378
148.5006,98.5287
148.4491,98.6058
148.3720,98.6572
148.2811,98.6753
147.6811,98.6753
147.5903,98.6572
147.5132,98.6058
147.4617,98.5287
147.4436,98.4378
147.4436,97.9628
147.4617,97.8719
147.5132,97.7949
147.5903,97.7434
147.6811,97.7253
148.2811,97.7253
148.3720,97.7434
148.4491,97.7949
148.5006,97.8719
148.5186,97.9628
Z" /> 
<path style="fill:#000000; fill-opacity:1.0000; stroke:none;fill-rule:evenodd;"
d="M 146.7936,98.4378
146.7756,98.5287
146.7241,98.6058
146.6470,98.6572
146.5561,98.6753
145.9561,98.6753
145.8653,98.6572
145.7882,98.6058
145.7367,98.5287
145.7186,98.4378
145.7186,97.9628
145.7367,97.8719
145.7882,97.7949
145.8653,97.7434
145.9561,97.7253
146.5561,97.7253
146.6470,97.7434
146.7241,97.7949
146.7756,97.8719
146.7936,97.9628
Z" /> 
<path style="fill:#000000; fill-opacity:1.0000; stroke:none;fill-rule:evenodd;"
d="M 170.1311,65.8503
170.2172,65.8674
170.2902,65.9162
170.3390,65.9892
170.3561,66.0753
170.3561,66.5253
170.3390,66.6114
170.2902,66.6844
170.2172,66.7332
170.1311,66.7503
169.3811,66.7503
169.2950,66.7332
169.2220,66.6844
169.1733,66.6114
169.1561,66.5253
169.1561,66.0753
169.1733,65.9892
169.2220,65.9162
169.2950,65.8674
169.3811,65.8503
Z" /> 
<path style="fill:#000000; fill-opacity:1.0000; stroke:none;fill-rule:evenodd;"
d="M 170.1311,69.1503
170.2172,69.1674
170.2902,69.2162
170.3390,69.2892
170.3561,69.3753
170.3561,69.8253
170.3390,69.9114
170.2902,69.9844
170.2172,70.0332
170.1311,70.0503
169.3811,70.0503
169.2950,70.0332
169.2220,69.9844
169.1733,69.9114
169.1561,69.8253
169.1561,69.3753
169.1733,69.2892
169.2220,69.2162
169.2950,69.1674
169.3811,69.1503
Z" /> 
<path style="fill:#000000; fill-opacity:1.0000; stroke:none;fill-rule:evenodd;"
d="M 165.4936,101.1628
165.5845,101.1809
165.6616,101.2324
165.7131,101.3094
165.7311,101.4003
165.7311,102.0003
165.7131,102.0912
165.6616,102.1683
165.5845,102.2197
165.4936,102.2378
165.0186,102.2378
164.9278,102.2197
164.8507,102.1683
164.7992,102.0912
164.7811,102.0003
164.7811,101.4003
164.7992,101.3094
164.8507,101.2324
164.9278,101.1809
165.0186,101.1628
Z" /> 
<path style="fill:#000000; fill-opacity:1.0000; stroke:none;fill-rule:evenodd;"
d="M 165.4936,102.8878
165.5845,102.9059
165.6616,102.9574
165.7131,103.0344
165.7311,103.1253
165.7311,103.7253
165.7131,103.8162
165.6616,103.8933
165.5845,103.9447
165.4936,103.9628
165.0186,103.9628
164.9278,103.9447
164.8507,103.8933
164.7992,103.8162
164.7811,103.7253
164.7811,103.1253
164.7992,103.0344
164.8507,102.9574
164.9278,102.9059
165.0186,102.8878
Z" /> 
<path style="fill:#000000; fill-opacity:1.0000; stroke:none;fill-rule:evenodd;"
d="M 135.4561,90.1003
135.5518,90.1193
135.6329,90.1735
135.6871,90.2546
135.7061,90.3503
135.7061,91.0503
135.6871,91.1460
135.6329,91.2271
135.5518,91.2813
135.4561,91.3003
134.5561,91.3003
134.4605,91.2813
134.3794,91.2271
134.3252,91.1460
134.3061,91.0503
134.3061,90.3503
134.3252,90.2546
134.3794,90.1735
134.4605,90.1193
134.5561,90.1003
Z" /> 
<path style="fill:#000000; fill-opacity:1.0000; stroke:none;fill-rule:evenodd;"
d="M 135.4561,92.1003
135.5518,92.1193
135.6329,92.1735
135.6871,92.2546
135.7061,92.3503
135.7061,93.0503
135.6871,93.1460
135.6329,93.2271
135.5518,93.2813
135.4561,93.3003
134.5561,93.3003
134.4605,93.2813
134.3794,93.2271
134.3252,93.1460
134.3061,93.0503
134.3061,92.3503
134.3252,92.2546
134.3794,92.1735
134.4605,92.1193
134.5561,92.1003
Z" /> 
<path style="fill:#000000; fill-opacity:1.0000; stroke:none;fill-rule:evenodd;"
d="M 135.4936,127.1628
135.5845,127.1809
135.6616,127.2324
135.7131,127.3094
135.7311,127.4003
135.7311,128.0003
135.7131,128.0912
135.6616,128.1683
135.5845,128.2197
135.4936,128.2378
135.0186,128.2378
134.9278,128.2197
134.8507,128.1683
134.7992,128.0912
134.7811,128.0003
134.7811,127.4003
134.7992,127.3094
134.8507,127.2324
134.9278,127.1809
135.0186,127.1628
Z" /> 
<path style="fill:#000000; fill-opacity:1.0000; stroke:none;fill-rule:evenodd;"
d="M 135.4936,128.8878
135.5845,128.9059
135.6616,128.9574
135.7131,129.0344
135.7311,129.1253
135.7311,129.7253
135.7131,129.8162
135.6616,129.8933
135.5845,129.9447
135.4936,129.9628
135.0186,129.9628
134.9278,129.9447
134.8507,129.8933
134.7992,129.8162
134.7811,129.7253
134.7811,129.1253
134.7992,129.0344
134.8507,128.9574
134.9278,128.9059
135.0186,128.8878
Z" /> 
<path style="fill:#000000; fill-opacity:1.0000; stroke:none;fill-rule:evenodd;"
d="M 178.5186,72.4378
178.5006,72.5287
178.4491,72.6058
178.3720,72.6572
178.2811,72.6753
177.6811,72.6753
177.5903,72.6572
177.5132,72.6058
177.4617,72.5287
177.4436,72.4378
177.4436,71.9628
177.4617,71.8719
177.5132,71.7949
177.5903,71.7434
177.6811,71.7253
178.2811,71.7253
178.3720,71.7434
178.4491,71.7949
178.5006,71.8719
178.5186,71.9628
Z" /> 
<path style="fill:#000000; fill-opacity:1.0000; stroke:none;fill-rule:evenodd;"
d="M 176.7936,72.4378
176.7756,72.5287
176.7241,72.6058
176.6470,72.6572
176.5561,72.6753
175.9561,72.6753
175.8653,72.6572
175.7882,72.6058
175.7367,72.5287
175.7186,72.4378
175.7186,71.9628
175.7367,71.8719
175.7882,71.7949
175.8653,71.7434
175.9561,71.7253
176.5561,71.7253
176.6470,71.7434
176.7241,71.7949
176.7756,71.8719
176.7936,71.9628
Z" /> 
<path style="fill:#000000; fill-opacity:1.0000; stroke:none;fill-rule:evenodd;"
d="M 168.8811,74.7503
168.9002,74.6546
168.9544,74.5735
169.0355,74.5193
169.1311,74.5003
169.7811,74.5003
169.8768,74.5193
169.9579,74.5735
170.0121,74.6546
170.0311,74.7503
170.0311,75.6503
170.0121,75.7460
169.9579,75.8271
169.8768,75.8813
169.7811,75.9003
169.1311,75.9003
169.0355,75.8813
168.9544,75.8271
168.9002,75.7460
168.8811,75.6503
Z" /> 
<path style="fill:#000000; fill-opacity:1.0000; stroke:none;fill-rule:evenodd;"
d="M 170.9311,74.7503
170.9502,74.6546
171.0044,74.5735
171.0855,74.5193
171.1811,74.5003
171.8311,74.5003
171.9268,74.5193
172.0079,74.5735
172.0621,74.6546
172.0811,74.7503
172.0811,75.6503
172.0621,75.7460
172.0079,75.8271
171.9268,75.8813
171.8311,75.9003
171.1811,75.9003
171.0855,75.8813
171.0044,75.8271
170.9502,75.7460
170.9311,75.6503
Z" /> 
<path style="fill:#000000; fill-opacity:1.0000; stroke:none;fill-rule:evenodd;"
d="M 117.3561,75.6503
117.3371,75.7460
117.2829,75.8271
117.2018,75.8813
117.1061,75.9003
116.4061,75.9003
116.3105,75.8813
116.2294,75.8271
116.1752,75.7460
116.1561,75.6503
116.1561,74.7503
116.1752,74.6546
116.2294,74.5735
116.3105,74.5193
116.4061,74.5003
117.1061,74.5003
117.2018,74.5193
117.2829,74.5735
117.3371,74.6546
117.3561,74.7503
Z" /> 
<path style="fill:#000000; fill-opacity:1.0000; stroke:none;fill-rule:evenodd;"
d="M 115.3561,75.6503
115.3371,75.7460
115.2829,75.8271
115.2018,75.8813
115.1061,75.9003
114.4061,75.9003
114.3105,75.8813
114.2294,75.8271
114.1752,75.7460
114.1561,75.6503
114.1561,74.7503
114.1752,74.6546
114.2294,74.5735
114.3105,74.5193
114.4061,74.5003
115.1061,74.5003
115.2018,74.5193
115.2829,74.5735
115.3371,74.6546
115.3561,74.7503
Z" /> 
<path style="fill:#000000; fill-opacity:1.0000; stroke:none;fill-rule:evenodd;"
d="M 117.3561,127.6503
117.3371,127.7460
117.2829,127.8271
117.2018,127.8813
117.1061,127.9003
116.4061,127.9003
116.3105,127.8813
116.2294,127.8271
116.1752,127.7460
116.1561,127.6503
116.1561,126.7503
116.1752,126.6546
116.2294,126.5735
116.3105,126.5193
116.4061,126.5003
117.1061,126.5003
117.2018,126.5193
117.2829,126.5735
117.3371,126.6546
117.3561,126.7503
Z" /> 
<path style="fill:#000000; fill-opacity:1.0000; stroke:none;fill-rule:evenodd;"
d="M 115.3561,127.6503
115.3371,127.7460
115.2829,127.8271
115.2018,127.8813
115.1061,127.9003
114.4061,127.9003
114.3105,127.8813
114.2294,127.8271
114.1752,127.7460
114.1561,127.6503
114.1561,126.7503
114.1752,126.6546
114.2294,126.5735
114.3105,126.5193
114.4061,126.5003
115.1061,126.5003
115.2018,126.5193
115.2829,126.5735
115.3371,126.6546
115.3561,126.7503
Z" /> 
<path style="fill:#000000; fill-opacity:1.0000; stroke:none;fill-rule:evenodd;"
d="M 130.3811,122.0053
130.2950,121.9882
130.2220,121.9394
130.1733,121.8664
130.1561,121.7803
130.1561,121.3303
130.1733,121.2442
130.2220,121.1712
130.2950,121.1224
130.3811,121.1053
131.1311,121.1053
131.2172,121.1224
131.2902,121.1712
131.3390,121.2442
131.3561,121.3303
131.3561,121.7803
131.3390,121.8664
131.2902,121.9394
131.2172,121.9882
131.1311,122.0053
Z" /> 
<path style="fill:#000000; fill-opacity:1.0000; stroke:none;fill-rule:evenodd;"
d="M 130.3811,118.7053
130.2950,118.6882
130.2220,118.6394
130.1733,118.5664
130.1561,118.4803
130.1561,118.0303
130.1733,117.9442
130.2220,117.8712
130.2950,117.8224
130.3811,117.8053
131.1311,117.8053
131.2172,117.8224
131.2902,117.8712
131.3390,117.9442
131.3561,118.0303
131.3561,118.4803
131.3390,118.5664
131.2902,118.6394
131.2172,118.6882
131.1311,118.7053
Z" /> 
<path style="fill:#000000; fill-opacity:1.0000; stroke:none;fill-rule:evenodd;"
d="M 135.4936,75.1628
135.5845,75.1809
135.6616,75.2324
135.7131,75.3094
135.7311,75.4003
135.7311,76.0003
135.7131,76.0912
135.6616,76.1683
135.5845,76.2197
135.4936,76.2378
135.0186,76.2378
134.9278,76.2197
134.8507,76.1683
134.7992,76.0912
134.7811,76.0003
134.7811,75.4003
134.7992,75.3094
134.8507,75.2324
134.9278,75.1809
135.0186,75.1628
Z" /> 
<path style="fill:#000000; fill-opacity:1.0000; stroke:none;fill-rule:evenodd;"
d="M 135.4936,76.8878
135.5845,76.9059
135.6616,76.9574
135.7131,77.0344
135.7311,77.1253
135.7311,77.7253
135.7131,77.8162
135.6616,77.8933
135.5845,77.9447
135.4936,77.9628
135.0186,77.9628
134.9278,77.9447
134.8507,77.8933
134.7992,77.8162
134.7811,77.7253
134.7811,77.1253
134.7992,77.0344
134.8507,76.9574
134.9278,76.9059
135.0186,76.8878
Z" /> 
<path style="fill:#000000; fill-opacity:1.0000; stroke:none;fill-rule:evenodd;"
d="M 108.8811,100.7503
108.9002,100.6546
108.9544,100.5735
109.0355,100.5193
109.1311,100.5003
109.7811,100.5003
109.8768,100.5193
109.9579,100.5735
110.0121,100.6546
110.0311,100.7503
110.0311,101.6503
110.0121,101.7460
109.9579,101.8271
109.8768,101.8813
109.7811,101.9003
109.1311,101.9003
109.0355,101.8813
108.9544,101.8271
108.9002,101.7460
108.8811,101.6503
Z" /> 
<path style="fill:#000000; fill-opacity:1.0000; stroke:none;fill-rule:evenodd;"
d="M 110.9311,100.7503
110.9502,100.6546
111.0044,100.5735
111.0855,100.5193
111.1811,100.5003
111.8311,100.5003
111.9268,100.5193
112.0079,100.5735
112.0621,100.6546
112.0811,100.7503
112.0811,101.6503
112.0621,101.7460
112.0079,101.8271
111.9268,101.8813
111.8311,101.9003
111.1811,101.9003
111.0855,101.8813
111.0044,101.8271
110.9502,101.7460
110.9311,101.6503
Z" /> 
<path style="fill:#000000; fill-opacity:1.0000; stroke:none;fill-rule:evenodd;"
d="M 113.8311,118.2403
113.8426,118.1829
113.8751,118.1342
113.9237,118.1017
113.9811,118.0903
115.6311,118.0903
115.6885,118.1017
115.7372,118.1342
115.7697,118.1829
115.7811,118.2403
115.7811,118.5403
115.7697,118.5977
115.7372,118.6464
115.6885,118.6789
115.6311,118.6903
113.9811,118.6903
113.9237,118.6789
113.8751,118.6464
113.8426,118.5977
113.8311,118.5403
Z" /> 
<path style="fill:#000000; fill-opacity:1.0000; stroke:none;fill-rule:evenodd;"
d="M 113.8311,119.5103
113.8426,119.4529
113.8751,119.4042
113.9237,119.3717
113.9811,119.3603
115.6311,119.3603
115.6885,119.3717
115.7372,119.4042
115.7697,119.4529
115.7811,119.5103
115.7811,119.8103
115.7697,119.8677
115.7372,119.9164
115.6885,119.9489
115.6311,119.9603
113.9811,119.9603
113.9237,119.9489
113.8751,119.9164
113.8426,119.8677
113.8311,119.8103
Z" /> 
<path style="fill:#000000; fill-opacity:1.0000; stroke:none;fill-rule:evenodd;"
d="M 113.8311,120.7803
113.8426,120.7229
113.8751,120.6742
113.9237,120.6417
113.9811,120.6303
115.6311,120.6303
115.6885,120.6417
115.7372,120.6742
115.7697,120.7229
115.7811,120.7803
115.7811,121.0803
115.7697,121.1377
115.7372,121.1864
115.6885,121.2189
115.6311,121.2303
113.9811,121.2303
113.9237,121.2189
113.8751,121.1864
113.8426,121.1377
113.8311,121.0803
Z" /> 
<path style="fill:#000000; fill-opacity:1.0000; stroke:none;fill-rule:evenodd;"
d="M 113.8311,122.0503
113.8426,121.9929
113.8751,121.9442
113.9237,121.9117
113.9811,121.9003
115.6311,121.9003
115.6885,121.9117
115.7372,121.9442
115.7697,121.9929
115.7811,122.0503
115.7811,122.3503
115.7697,122.4077
115.7372,122.4564
115.6885,122.4889
115.6311,122.5003
113.9811,122.5003
113.9237,122.4889
113.8751,122.4564
113.8426,122.4077
113.8311,122.3503
Z" /> 
<path style="fill:#000000; fill-opacity:1.0000; stroke:none;fill-rule:evenodd;"
d="M 118.7811,122.0503
118.7926,121.9929
118.8251,121.9442
118.8737,121.9117
118.9311,121.9003
120.5811,121.9003
120.6385,121.9117
120.6872,121.9442
120.7197,121.9929
120.7311,122.0503
120.7311,122.3503
120.7197,122.4077
120.6872,122.4564
120.6385,122.4889
120.5811,122.5003
118.9311,122.5003
118.8737,122.4889
118.8251,122.4564
118.7926,122.4077
118.7811,122.3503
Z" /> 
<path style="fill:#000000; fill-opacity:1.0000; stroke:none;fill-rule:evenodd;"
d="M 118.7811,120.7803
118.7926,120.7229
118.8251,120.6742
118.8737,120.6417
118.9311,120.6303
120.5811,120.6303
120.6385,120.6417
120.6872,120.6742
120.7197,120.7229
120.7311,120.7803
120.7311,121.0803
120.7197,121.1377
120.6872,121.1864
120.6385,121.2189
120.5811,121.2303
118.9311,121.2303
118.8737,121.2189
118.8251,121.1864
118.7926,121.1377
118.7811,121.0803
Z" /> 
<path style="fill:#000000; fill-opacity:1.0000; stroke:none;fill-rule:evenodd;"
d="M 118.7811,119.5103
118.7926,119.4529
118.8251,119.4042
118.8737,119.3717
118.9311,119.3603
120.5811,119.3603
120.6385,119.3717
120.6872,119.4042
120.7197,119.4529
120.7311,119.5103
120.7311,119.8103
120.7197,119.8677
120.6872,119.9164
120.6385,119.9489
120.5811,119.9603
118.9311,119.9603
118.8737,119.9489
118.8251,119.9164
118.7926,119.8677
118.7811,119.8103
Z" /> 
<path style="fill:#000000; fill-opacity:1.0000; stroke:none;fill-rule:evenodd;"
d="M 118.7811,118.2403
118.7926,118.1829
118.8251,118.1342
118.8737,118.1017
118.9311,118.0903
120.5811,118.0903
120.6385,118.1017
120.6872,118.1342
120.7197,118.1829
120.7311,118.2403
120.7311,118.5403
120.7197,118.5977
120.6872,118.6464
120.6385,118.6789
120.5811,118.6903
118.9311,118.6903
118.8737,118.6789
118.8251,118.6464
118.7926,118.5977
118.7811,118.5403
Z" /> 
<path style="fill:#000000; fill-opacity:1.0000; stroke:none;fill-rule:evenodd;"
d="M 138.8811,126.7503
138.9002,126.6546
138.9544,126.5735
139.0355,126.5193
139.1311,126.5003
139.7811,126.5003
139.8768,126.5193
139.9579,126.5735
140.0121,126.6546
140.0311,126.7503
140.0311,127.6503
140.0121,127.7460
139.9579,127.8271
139.8768,127.8813
139.7811,127.9003
139.1311,127.9003
139.0355,127.8813
138.9544,127.8271
138.9002,127.7460
138.8811,127.6503
Z" /> 
<path style="fill:#000000; fill-opacity:1.0000; stroke:none;fill-rule:evenodd;"
d="M 140.9311,126.7503
140.9502,126.6546
141.0044,126.5735
141.0855,126.5193
141.1811,126.5003
141.8311,126.5003
141.9268,126.5193
142.0079,126.5735
142.0621,126.6546
142.0811,126.7503
142.0811,127.6503
142.0621,127.7460
142.0079,127.8271
141.9268,127.8813
141.8311,127.9003
141.1811,127.9003
141.0855,127.8813
141.0044,127.8271
140.9502,127.7460
140.9311,127.6503
Z" /> 
<path style="fill:#000000; fill-opacity:1.0000; stroke:none;fill-rule:evenodd;"
d="M 147.3561,127.6503
147.3371,127.7460
147.2829,127.8271
147.2018,127.8813
147.1061,127.9003
146.4061,127.9003
146.3105,127.8813
146.2294,127.8271
146.1752,127.7460
146.1561,127.6503
146.1561,126.7503
146.1752,126.6546
146.2294,126.5735
146.3105,126.5193
146.4061,126.5003
147.1061,126.5003
147.2018,126.5193
147.2829,126.5735
147.3371,126.6546
147.3561,126.7503
Z" /> 
<path style="fill:#000000; fill-opacity:1.0000; stroke:none;fill-rule:evenodd;"
d="M 145.3561,127.6503
145.3371,127.7460
145.2829,127.8271
145.2018,127.8813
145.1061,127.9003
144.4061,127.9003
144.3105,127.8813
144.2294,127.8271
144.1752,127.7460
144.1561,127.6503
144.1561,126.7503
144.1752,126.6546
144.2294,126.5735
144.3105,126.5193
144.4061,126.5003
145.1061,126.5003
145.2018,126.5193
145.2829,126.5735
145.3371,126.6546
145.3561,126.7503
Z" /> 
<path style="fill:#000000; fill-opacity:1.0000; stroke:none;fill-rule:evenodd;"
d="M 143.8311,118.2403
143.8426,118.1829
143.8751,118.1342
143.9237,118.1017
143.9811,118.0903
145.6311,118.0903
145.6885,118.1017
145.7372,118.1342
145.7697,118.1829
145.7811,118.2403
145.7811,118.5403
145.7697,118.5977
145.7372,118.6464
145.6885,118.6789
145.6311,118.6903
143.9811,118.6903
143.9237,118.6789
143.8751,118.6464
143.8426,118.5977
143.8311,118.5403
Z" /> 
<path style="fill:#000000; fill-opacity:1.0000; stroke:none;fill-rule:evenodd;"
d="M 143.8311,119.5103
143.8426,119.4529
143.8751,119.4042
143.9237,119.3717
143.9811,119.3603
145.6311,119.3603
145.6885,119.3717
145.7372,119.4042
145.7697,119.4529
145.7811,119.5103
145.7811,119.8103
145.7697,119.8677
145.7372,119.9164
145.6885,119.9489
145.6311,119.9603
143.9811,119.9603
143.9237,119.9489
143.8751,119.9164
143.8426,119.8677
143.8311,119.8103
Z" /> 
<path style="fill:#000000; fill-opacity:1.0000; stroke:none;fill-rule:evenodd;"
d="M 143.8311,120.7803
143.8426,120.7229
143.8751,120.6742
143.9237,120.6417
143.9811,120.6303
145.6311,120.6303
145.6885,120.6417
145.7372,120.6742
145.7697,120.7229
145.7811,120.7803
145.7811,121.0803
145.7697,121.1377
145.7372,121.1864
145.6885,121.2189
145.6311,121.2303
143.9811,121.2303
143.9237,121.2189
143.8751,121.1864
143.8426,121.1377
143.8311,121.0803
Z" /> 
<path style="fill:#000000; fill-opacity:1.0000; stroke:none;fill-rule:evenodd;"
d="M 143.8311,122.0503
143.8426,121.9929
143.8751,121.9442
143.9237,121.9117
143.9811,121.9003
145.6311,121.9003
145.6885,121.9117
145.7372,121.9442
145.7697,121.9929
145.7811,122.0503
145.7811,122.3503
145.7697,122.4077
145.7372,122.4564
145.6885,122.4889
145.6311,122.5003
143.9811,122.5003
143.9237,122.4889
143.8751,122.4564
143.8426,122.4077
143.8311,122.3503
Z" /> 
<path style="fill:#000000; fill-opacity:1.0000; stroke:none;fill-rule:evenodd;"
d="M 148.7811,122.0503
148.7926,121.9929
148.8251,121.9442
148.8737,121.9117
148.9311,121.9003
150.5811,121.9003
150.6385,121.9117
150.6872,121.9442
150.7197,121.9929
150.7311,122.0503
150.7311,122.3503
150.7197,122.4077
150.6872,122.4564
150.6385,122.4889
150.5811,122.5003
148.9311,122.5003
148.8737,122.4889
148.8251,122.4564
148.7926,122.4077
148.7811,122.3503
Z" /> 
<path style="fill:#000000; fill-opacity:1.0000; stroke:none;fill-rule:evenodd;"
d="M 148.7811,120.7803
148.7926,120.7229
148.8251,120.6742
148.8737,120.6417
148.9311,120.6303
150.5811,120.6303
150.6385,120.6417
150.6872,120.6742
150.7197,120.7229
150.7311,120.7803
150.7311,121.0803
150.7197,121.1377
150.6872,121.1864
150.6385,121.2189
150.5811,121.2303
148.9311,121.2303
148.8737,121.2189
148.8251,121.1864
148.7926,121.1377
148.7811,121.0803
Z" /> 
<path style="fill:#000000; fill-opacity:1.0000; stroke:none;fill-rule:evenodd;"
d="M 148.7811,119.5103
148.7926,119.4529
148.8251,119.4042
148.8737,119.3717
148.9311,119.3603
150.5811,119.3603
150.6385,119.3717
150.6872,119.4042
150.7197,119.4529
150.7311,119.5103
150.7311,119.8103
150.7197,119.8677
150.6872,119.9164
150.6385,119.9489
150.5811,119.9603
148.9311,119.9603
148.8737,119.9489
148.8251,119.9164
148.7926,119.8677
148.7811,119.8103
Z" /> 
<path style="fill:#000000; fill-opacity:1.0000; stroke:none;fill-rule:evenodd;"
d="M 148.7811,118.2403
148.7926,118.1829
148.8251,118.1342
148.8737,118.1017
148.9311,118.0903
150.5811,118.0903
150.6385,118.1017
150.6872,118.1342
150.7197,118.1829
150.7311,118.2403
150.7311,118.5403
150.7197,118.5977
150.6872,118.6464
150.6385,118.6789
150.5811,118.6903
148.9311,118.6903
148.8737,118.6789
148.8251,118.6464
148.7926,118.5977
148.7811,118.5403
Z" /> 
<path style="fill:#000000; fill-opacity:1.0000; stroke:none;fill-rule:evenodd;"
d="M 105.4936,101.1628
105.5845,101.1809
105.6616,101.2324
105.7131,101.3094
105.7311,101.4003
105.7311,102.0003
105.7131,102.0912
105.6616,102.1683
105.5845,102.2197
105.4936,102.2378
105.0186,102.2378
104.9278,102.2197
104.8507,102.1683
104.7992,102.0912
104.7811,102.0003
104.7811,101.4003
104.7992,101.3094
104.8507,101.2324
104.9278,101.1809
105.0186,101.1628
Z" /> 
<path style="fill:#000000; fill-opacity:1.0000; stroke:none;fill-rule:evenodd;"
d="M 105.4936,102.8878
105.5845,102.9059
105.6616,102.9574
105.7131,103.0344
105.7311,103.1253
105.7311,103.7253
105.7131,103.8162
105.6616,103.8933
105.5845,103.9447
105.4936,103.9628
105.0186,103.9628
104.9278,103.9447
104.8507,103.8933
104.7992,103.8162
104.7811,103.7253
104.7811,103.1253
104.7992,103.0344
104.8507,102.9574
104.9278,102.9059
105.0186,102.8878
Z" /> 
<path style="fill:#000000; fill-opacity:1.0000; stroke:none;fill-rule:evenodd;"
d="M 135.4561,116.1003
135.5518,116.1193
135.6329,116.1735
135.6871,116.2546
135.7061,116.3503
135.7061,117.0503
135.6871,117.1460
135.6329,117.2271
135.5518,117.2813
135.4561,117.3003
134.5561,117.3003
134.4605,117.2813
134.3794,117.2271
134.3252,117.1460
134.3061,117.0503
134.3061,116.3503
134.3252,116.2546
134.3794,116.1735
134.4605,116.1193
134.5561,116.1003
Z" /> 
<path style="fill:#000000; fill-opacity:1.0000; stroke:none;fill-rule:evenodd;"
d="M 135.4561,118.1003
135.5518,118.1193
135.6329,118.1735
135.6871,118.2546
135.7061,118.3503
135.7061,119.0503
135.6871,119.1460
135.6329,119.2271
135.5518,119.2813
135.4561,119.3003
134.5561,119.3003
134.4605,119.2813
134.3794,119.2271
134.3252,119.1460
134.3061,119.0503
134.3061,118.3503
134.3252,118.2546
134.3794,118.1735
134.4605,118.1193
134.5561,118.1003
Z" /> 
<path style="fill:#000000; fill-opacity:1.0000; stroke:none;fill-rule:evenodd;"
d="M 105.6561,95.1003
106.8561,95.1003
106.8561,96.3003
105.6561,96.3003
Z" /> 
<path style="fill:#000000; fill-opacity:1.0000; stroke:none;fill-rule:evenodd;"
d="M 104.4561,98.2003
106.0561,98.2003
106.0561,99.7003
104.4561,99.7003
Z" /> 
<path style="fill:#000000; fill-opacity:1.0000; stroke:none;fill-rule:evenodd;"
d="M 103.6561,95.1003
104.8561,95.1003
104.8561,96.3003
103.6561,96.3003
Z" /> 
<path style="fill:#000000; fill-opacity:1.0000; stroke:none;fill-rule:evenodd;"
d="M 165.4561,90.1003
165.5518,90.1193
165.6329,90.1735
165.6871,90.2546
165.7061,90.3503
165.7061,91.0503
165.6871,91.1460
165.6329,91.2271
165.5518,91.2813
165.4561,91.3003
164.5561,91.3003
164.4605,91.2813
164.3794,91.2271
164.3252,91.1460
164.3061,91.0503
164.3061,90.3503
164.3252,90.2546
164.3794,90.1735
164.4605,90.1193
164.5561,90.1003
Z" /> 
<path style="fill:#000000; fill-opacity:1.0000; stroke:none;fill-rule:evenodd;"
d="M 165.4561,92.1003
165.5518,92.1193
165.6329,92.1735
165.6871,92.2546
165.7061,92.3503
165.7061,93.0503
165.6871,93.1460
165.6329,93.2271
165.5518,93.2813
165.4561,93.3003
164.5561,93.3003
164.4605,93.2813
164.3794,93.2271
164.3252,93.1460
164.3061,93.0503
164.3061,92.3503
164.3252,92.2546
164.3794,92.1735
164.4605,92.1193
164.5561,92.1003
Z" /> 
<path style="fill:#000000; fill-opacity:1.0000; stroke:none;fill-rule:evenodd;"
d="M 165.4561,116.1003
165.5518,116.1193
165.6329,116.1735
165.6871,116.2546
165.7061,116.3503
165.7061,117.0503
165.6871,117.1460
165.6329,117.2271
165.5518,117.2813
165.4561,117.3003
164.5561,117.3003
164.4605,117.2813
164.3794,117.2271
164.3252,117.1460
164.3061,117.0503
164.3061,116.3503
164.3252,116.2546
164.3794,116.1735
164.4605,116.1193
164.5561,116.1003
Z" /> 
<path style="fill:#000000; fill-opacity:1.0000; stroke:none;fill-rule:evenodd;"
d="M 165.4561,118.1003
165.5518,118.1193
165.6329,118.1735
165.6871,118.2546
165.7061,118.3503
165.7061,119.0503
165.6871,119.1460
165.6329,119.2271
165.5518,119.2813
165.4561,119.3003
164.5561,119.3003
164.4605,119.2813
164.3794,119.2271
164.3252,119.1460
164.3061,119.0503
164.3061,118.3503
164.3252,118.2546
164.3794,118.1735
164.4605,118.1193
164.5561,118.1003
Z" /> 
<path style="fill:#000000; fill-opacity:1.0000; stroke:none;fill-rule:evenodd;"
d="M 105.6561,121.1003
106.8561,121.1003
106.8561,122.3003
105.6561,122.3003
Z" /> 
<path style="fill:#000000; fill-opacity:1.0000; stroke:none;fill-rule:evenodd;"
d="M 104.4561,124.2003
106.0561,124.2003
106.0561,125.7003
104.4561,125.7003
Z" /> 
<path style="fill:#000000; fill-opacity:1.0000; stroke:none;fill-rule:evenodd;"
d="M 103.6561,121.1003
104.8561,121.1003
104.8561,122.3003
103.6561,122.3003
Z" /> 
<path style="fill:#000000; fill-opacity:1.0000; stroke:none;fill-rule:evenodd;"
d="M 135.4561,64.1003
135.5518,64.1193
135.6329,64.1735
135.6871,64.2546
135.7061,64.3503
135.7061,65.0503
135.6871,65.1460
135.6329,65.2271
135.5518,65.2813
135.4561,65.3003
134.5561,65.3003
134.4605,65.2813
134.3794,65.2271
134.3252,65.1460
134.3061,65.0503
134.3061,64.3503
134.3252,64.2546
134.3794,64.1735
134.4605,64.1193
134.5561,64.1003
Z" /> 
<path style="fill:#000000; fill-opacity:1.0000; stroke:none;fill-rule:evenodd;"
d="M 135.4561,66.1003
135.5518,66.1193
135.6329,66.1735
135.6871,66.2546
135.7061,66.3503
135.7061,67.0503
135.6871,67.1460
135.6329,67.2271
135.5518,67.2813
135.4561,67.3003
134.5561,67.3003
134.4605,67.2813
134.3794,67.2271
134.3252,67.1460
134.3061,67.0503
134.3061,66.3503
134.3252,66.2546
134.3794,66.1735
134.4605,66.1193
134.5561,66.1003
Z" /> 
<path style="fill:#000000; fill-opacity:1.0000; stroke:none;fill-rule:evenodd;"
d="M 130.3811,96.0053
130.2950,95.9882
130.2220,95.9394
130.1733,95.8664
130.1561,95.7803
130.1561,95.3303
130.1733,95.2442
130.2220,95.1712
130.2950,95.1224
130.3811,95.1053
131.1311,95.1053
131.2172,95.1224
131.2902,95.1712
131.3390,95.2442
131.3561,95.3303
131.3561,95.7803
131.3390,95.8664
131.2902,95.9394
131.2172,95.9882
131.1311,96.0053
Z" /> 
<path style="fill:#000000; fill-opacity:1.0000; stroke:none;fill-rule:evenodd;"
d="M 130.3811,92.7053
130.2950,92.6882
130.2220,92.6394
130.1733,92.5664
130.1561,92.4803
130.1561,92.0303
130.1733,91.9442
130.2220,91.8712
130.2950,91.8224
130.3811,91.8053
131.1311,91.8053
131.2172,91.8224
131.2902,91.8712
131.3390,91.9442
131.3561,92.0303
131.3561,92.4803
131.3390,92.5664
131.2902,92.6394
131.2172,92.6882
131.1311,92.7053
Z" /> 
<path style="fill:#000000; fill-opacity:1.0000; stroke:none;fill-rule:evenodd;"
d="M 165.4561,64.1003
165.5518,64.1193
165.6329,64.1735
165.6871,64.2546
165.7061,64.3503
165.7061,65.0503
165.6871,65.1460
165.6329,65.2271
165.5518,65.2813
165.4561,65.3003
164.5561,65.3003
164.4605,65.2813
164.3794,65.2271
164.3252,65.1460
164.3061,65.0503
164.3061,64.3503
164.3252,64.2546
164.3794,64.1735
164.4605,64.1193
164.5561,64.1003
Z" /> 
<path style="fill:#000000; fill-opacity:1.0000; stroke:none;fill-rule:evenodd;"
d="M 165.4561,66.1003
165.5518,66.1193
165.6329,66.1735
165.6871,66.2546
165.7061,66.3503
165.7061,67.0503
165.6871,67.1460
165.6329,67.2271
165.5518,67.2813
165.4561,67.3003
164.5561,67.3003
164.4605,67.2813
164.3794,67.2271
164.3252,67.1460
164.3061,67.0503
164.3061,66.3503
164.3252,66.2546
164.3794,66.1735
164.4605,66.1193
164.5561,66.1003
Z" /> 
<path style="fill:#000000; fill-opacity:1.0000; stroke:none;fill-rule:evenodd;"
d="M 148.5186,72.4378
148.5006,72.5287
148.4491,72.6058
148.3720,72.6572
148.2811,72.6753
147.6811,72.6753
147.5903,72.6572
147.5132,72.6058
147.4617,72.5287
147.4436,72.4378
147.4436,71.9628
147.4617,71.8719
147.5132,71.7949
147.5903,71.7434
147.6811,71.7253
148.2811,71.7253
148.3720,71.7434
148.4491,71.7949
148.5006,71.8719
148.5186,71.9628
Z" /> 
<path style="fill:#000000; fill-opacity:1.0000; stroke:none;fill-rule:evenodd;"
d="M 146.7936,72.4378
146.7756,72.5287
146.7241,72.6058
146.6470,72.6572
146.5561,72.6753
145.9561,72.6753
145.8653,72.6572
145.7882,72.6058
145.7367,72.5287
145.7186,72.4378
145.7186,71.9628
145.7367,71.8719
145.7882,71.7949
145.8653,71.7434
145.9561,71.7253
146.5561,71.7253
146.6470,71.7434
146.7241,71.7949
146.7756,71.8719
146.7936,71.9628
Z" /> 
<path style="fill:#000000; fill-opacity:1.0000; stroke:none;fill-rule:evenodd;"
d="M 100.3811,96.0053
100.2950,95.9882
100.2220,95.9394
100.1733,95.8664
100.1561,95.7803
100.1561,95.3303
100.1733,95.2442
100.2220,95.1712
100.2950,95.1224
100.3811,95.1053
101.1311,95.1053
101.2172,95.1224
101.2902,95.1712
101.3390,95.2442
101.3561,95.3303
101.3561,95.7803
101.3390,95.8664
101.2902,95.9394
101.2172,95.9882
101.1311,96.0053
Z" /> 
<path style="fill:#000000; fill-opacity:1.0000; stroke:none;fill-rule:evenodd;"
d="M 100.3811,92.7053
100.2950,92.6882
100.2220,92.6394
100.1733,92.5664
100.1561,92.4803
100.1561,92.0303
100.1733,91.9442
100.2220,91.8712
100.2950,91.8224
100.3811,91.8053
101.1311,91.8053
101.2172,91.8224
101.2902,91.8712
101.3390,91.9442
101.3561,92.0303
101.3561,92.4803
101.3390,92.5664
101.2902,92.6394
101.2172,92.6882
101.1311,92.7053
Z" /> 
<path style="fill:#000000; fill-opacity:1.0000; stroke:none;fill-rule:evenodd;"
d="M 135.6561,121.1003
136.8561,121.1003
136.8561,122.3003
135.6561,122.3003
Z" /> 
<path style="fill:#000000; fill-opacity:1.0000; stroke:none;fill-rule:evenodd;"
d="M 134.4561,124.2003
136.0561,124.2003
136.0561,125.7003
134.4561,125.7003
Z" /> 
<path style="fill:#000000; fill-opacity:1.0000; stroke:none;fill-rule:evenodd;"
d="M 133.6561,121.1003
134.8561,121.1003
134.8561,122.3003
133.6561,122.3003
Z" /> 
<path style="fill:#000000; fill-opacity:1.0000; stroke:none;fill-rule:evenodd;"
d="M 143.8311,92.2403
143.8426,92.1829
143.8751,92.1342
143.9237,92.1017
143.9811,92.0903
145.6311,92.0903
145.6885,92.1017
145.7372,92.1342
145.7697,92.1829
145.7811,92.2403
145.7811,92.5403
145.7697,92.5977
145.7372,92.6464
145.6885,92.6789
145.6311,92.6903
143.9811,92.6903
143.9237,92.6789
143.8751,92.6464
143.8426,92.5977
143.8311,92.5403
Z" /> 
<path style="fill:#000000; fill-opacity:1.0000; stroke:none;fill-rule:evenodd;"
d="M 143.8311,93.5103
143.8426,93.4529
143.8751,93.4042
143.9237,93.3717
143.9811,93.3603
145.6311,93.3603
145.6885,93.3717
145.7372,93.4042
145.7697,93.4529
145.7811,93.5103
145.7811,93.8103
145.7697,93.8677
145.7372,93.9164
145.6885,93.9489
145.6311,93.9603
143.9811,93.9603
143.9237,93.9489
143.8751,93.9164
143.8426,93.8677
143.8311,93.8103
Z" /> 
<path style="fill:#000000; fill-opacity:1.0000; stroke:none;fill-rule:evenodd;"
d="M 143.8311,94.7803
143.8426,94.7229
143.8751,94.6742
143.9237,94.6417
143.9811,94.6303
145.6311,94.6303
145.6885,94.6417
145.7372,94.6742
145.7697,94.7229
145.7811,94.7803
145.7811,95.0803
145.7697,95.1377
145.7372,95.1864
145.6885,95.2189
145.6311,95.2303
143.9811,95.2303
143.9237,95.2189
143.8751,95.1864
143.8426,95.1377
143.8311,95.0803
Z" /> 
<path style="fill:#000000; fill-opacity:1.0000; stroke:none;fill-rule:evenodd;"
d="M 143.8311,96.0503
143.8426,95.9929
143.8751,95.9442
143.9237,95.9117
143.9811,95.9003
145.6311,95.9003
145.6885,95.9117
145.7372,95.9442
145.7697,95.9929
145.7811,96.0503
145.7811,96.3503
145.7697,96.4077
145.7372,96.4564
145.6885,96.4889
145.6311,96.5003
143.9811,96.5003
143.9237,96.4889
143.8751,96.4564
143.8426,96.4077
143.8311,96.3503
Z" /> 
<path style="fill:#000000; fill-opacity:1.0000; stroke:none;fill-rule:evenodd;"
d="M 148.7811,96.0503
148.7926,95.9929
148.8251,95.9442
148.8737,95.9117
148.9311,95.9003
150.5811,95.9003
150.6385,95.9117
150.6872,95.9442
150.7197,95.9929
150.7311,96.0503
150.7311,96.3503
150.7197,96.4077
150.6872,96.4564
150.6385,96.4889
150.5811,96.5003
148.9311,96.5003
148.8737,96.4889
148.8251,96.4564
148.7926,96.4077
148.7811,96.3503
Z" /> 
<path style="fill:#000000; fill-opacity:1.0000; stroke:none;fill-rule:evenodd;"
d="M 148.7811,94.7803
148.7926,94.7229
148.8251,94.6742
148.8737,94.6417
148.9311,94.6303
150.5811,94.6303
150.6385,94.6417
150.6872,94.6742
150.7197,94.7229
150.7311,94.7803
150.7311,95.0803
150.7197,95.1377
150.6872,95.1864
150.6385,95.2189
150.5811,95.2303
148.9311,95.2303
148.8737,95.2189
148.8251,95.1864
148.7926,95.1377
148.7811,95.0803
Z" /> 
<path style="fill:#000000; fill-opacity:1.0000; stroke:none;fill-rule:evenodd;"
d="M 148.7811,93.5103
148.7926,93.4529
148.8251,93.4042
148.8737,93.3717
148.9311,93.3603
150.5811,93.3603
150.6385,93.3717
150.6872,93.4042
150.7197,93.4529
150.7311,93.5103
150.7311,93.8103
150.7197,93.8677
150.6872,93.9164
150.6385,93.9489
150.5811,93.9603
148.9311,93.9603
148.8737,93.9489
148.8251,93.9164
148.7926,93.8677
148.7811,93.8103
Z" /> 
<path style="fill:#000000; fill-opacity:1.0000; stroke:none;fill-rule:evenodd;"
d="M 148.7811,92.2403
148.7926,92.1829
148.8251,92.1342
148.8737,92.1017
148.9311,92.0903
150.5811,92.0903
150.6385,92.1017
150.6872,92.1342
150.7197,92.1829
150.7311,92.2403
150.7311,92.5403
150.7197,92.5977
150.6872,92.6464
150.6385,92.6789
150.5811,92.6903
148.9311,92.6903
148.8737,92.6789
148.8251,92.6464
148.7926,92.5977
148.7811,92.5403
Z" /> 
<path style="fill:#000000; fill-opacity:1.0000; stroke:none;fill-rule:evenodd;"
d="M 170.1311,91.8503
170.2172,91.8674
170.2902,91.9162
170.3390,91.9892
170.3561,92.0753
170.3561,92.5253
170.3390,92.6114
170.2902,92.6844
170.2172,92.7332
170.1311,92.7503
169.3811,92.7503
169.2950,92.7332
169.2220,92.6844
169.1733,92.6114
169.1561,92.5253
169.1561,92.0753
169.1733,91.9892
169.2220,91.9162
169.2950,91.8674
169.3811,91.8503
Z" /> 
<path style="fill:#000000; fill-opacity:1.0000; stroke:none;fill-rule:evenodd;"
d="M 170.1311,95.1503
170.2172,95.1674
170.2902,95.2162
170.3390,95.2892
170.3561,95.3753
170.3561,95.8253
170.3390,95.9114
170.2902,95.9844
170.2172,96.0332
170.1311,96.0503
169.3811,96.0503
169.2950,96.0332
169.2220,95.9844
169.1733,95.9114
169.1561,95.8253
169.1561,95.3753
169.1733,95.2892
169.2220,95.2162
169.2950,95.1674
169.3811,95.1503
Z" /> 
<path style="fill:#000000; fill-opacity:1.0000; stroke:none;fill-rule:evenodd;"
d="M 118.5186,98.4378
118.5006,98.5287
118.4491,98.6058
118.3720,98.6572
118.2811,98.6753
117.6811,98.6753
117.5903,98.6572
117.5132,98.6058
117.4617,98.5287
117.4436,98.4378
117.4436,97.9628
117.4617,97.8719
117.5132,97.7949
117.5903,97.7434
117.6811,97.7253
118.2811,97.7253
118.3720,97.7434
118.4491,97.7949
118.5006,97.8719
118.5186,97.9628
Z" /> 
<path style="fill:#000000; fill-opacity:1.0000; stroke:none;fill-rule:evenodd;"
d="M 116.7936,98.4378
116.7756,98.5287
116.7241,98.6058
116.6470,98.6572
116.5561,98.6753
115.9561,98.6753
115.8653,98.6572
115.7882,98.6058
115.7367,98.5287
115.7186,98.4378
115.7186,97.9628
115.7367,97.8719
115.7882,97.7949
115.8653,97.7434
115.9561,97.7253
116.5561,97.7253
116.6470,97.7434
116.7241,97.7949
116.7756,97.8719
116.7936,97.9628
Z" /> 
<path style="fill:#000000; fill-opacity:1.0000; stroke:none;fill-rule:evenodd;"
d="M 140.1311,91.8503
140.2172,91.8674
140.2902,91.9162
140.3390,91.9892
140.3561,92.0753
140.3561,92.5253
140.3390,92.6114
140.2902,92.6844
140.2172,92.7332
140.1311,92.7503
139.3811,92.7503
139.2950,92.7332
139.2220,92.6844
139.1733,92.6114
139.1561,92.5253
139.1561,92.0753
139.1733,91.9892
139.2220,91.9162
139.2950,91.8674
139.3811,91.8503
Z" /> 
<path style="fill:#000000; fill-opacity:1.0000; stroke:none;fill-rule:evenodd;"
d="M 140.1311,95.1503
140.2172,95.1674
140.2902,95.2162
140.3390,95.2892
140.3561,95.3753
140.3561,95.8253
140.3390,95.9114
140.2902,95.9844
140.2172,96.0332
140.1311,96.0503
139.3811,96.0503
139.2950,96.0332
139.2220,95.9844
139.1733,95.9114
139.1561,95.8253
139.1561,95.3753
139.1733,95.2892
139.2220,95.2162
139.2950,95.1674
139.3811,95.1503
Z" /> 
<path style="fill:#000000; fill-opacity:1.0000; stroke:none;fill-rule:evenodd;"
d="M 100.3811,122.0053
100.2950,121.9882
100.2220,121.9394
100.1733,121.8664
100.1561,121.7803
100.1561,121.3303
100.1733,121.2442
100.2220,121.1712
100.2950,121.1224
100.3811,121.1053
101.1311,121.1053
101.2172,121.1224
101.2902,121.1712
101.3390,121.2442
101.3561,121.3303
101.3561,121.7803
101.3390,121.8664
101.2902,121.9394
101.2172,121.9882
101.1311,122.0053
Z" /> 
<path style="fill:#000000; fill-opacity:1.0000; stroke:none;fill-rule:evenodd;"
d="M 100.3811,118.7053
100.2950,118.6882
100.2220,118.6394
100.1733,118.5664
100.1561,118.4803
100.1561,118.0303
100.1733,117.9442
100.2220,117.8712
100.2950,117.8224
100.3811,117.8053
101.1311,117.8053
101.2172,117.8224
101.2902,117.8712
101.3390,117.9442
101.3561,118.0303
101.3561,118.4803
101.3390,118.5664
101.2902,118.6394
101.2172,118.6882
101.1311,118.7053
Z" /> 
<path style="fill:#000000; fill-opacity:1.0000; stroke:none;fill-rule:evenodd;"
d="M 165.6561,95.1003
166.8561,95.1003
166.8561,96.3003
165.6561,96.3003
Z" /> 
<path style="fill:#000000; fill-opacity:1.0000; stroke:none;fill-rule:evenodd;"
d="M 164.4561,98.2003
166.0561,98.2003
166.0561,99.7003
164.4561,99.7003
Z" /> 
<path style="fill:#000000; fill-opacity:1.0000; stroke:none;fill-rule:evenodd;"
d="M 163.6561,95.1003
164.8561,95.1003
164.8561,96.3003
163.6561,96.3003
Z" /> 
<path style="fill:#000000; fill-opacity:1.0000; stroke:none;fill-rule:evenodd;"
d="M 143.8311,66.2403
143.8426,66.1829
143.8751,66.1342
143.9237,66.1017
143.9811,66.0903
145.6311,66.0903
145.6885,66.1017
145.7372,66.1342
145.7697,66.1829
145.7811,66.2403
145.7811,66.5403
145.7697,66.5977
145.7372,66.6464
145.6885,66.6789
145.6311,66.6903
143.9811,66.6903
143.9237,66.6789
143.8751,66.6464
143.8426,66.5977
143.8311,66.5403
Z" /> 
<path style="fill:#000000; fill-opacity:1.0000; stroke:none;fill-rule:evenodd;"
d="M 143.8311,67.5103
143.8426,67.4529
143.8751,67.4042
143.9237,67.3717
143.9811,67.3603
145.6311,67.3603
145.6885,67.3717
145.7372,67.4042
145.7697,67.4529
145.7811,67.5103
145.7811,67.8103
145.7697,67.8677
145.7372,67.9164
145.6885,67.9489
145.6311,67.9603
143.9811,67.9603
143.9237,67.9489
143.8751,67.9164
143.8426,67.8677
143.8311,67.8103
Z" /> 
<path style="fill:#000000; fill-opacity:1.0000; stroke:none;fill-rule:evenodd;"
d="M 143.8311,68.7803
143.8426,68.7229
143.8751,68.6742
143.9237,68.6417
143.9811,68.6303
145.6311,68.6303
145.6885,68.6417
145.7372,68.6742
145.7697,68.7229
145.7811,68.7803
145.7811,69.0803
145.7697,69.1377
145.7372,69.1864
145.6885,69.2189
145.6311,69.2303
143.9811,69.2303
143.9237,69.2189
143.8751,69.1864
143.8426,69.1377
143.8311,69.0803
Z" /> 
<path style="fill:#000000; fill-opacity:1.0000; stroke:none;fill-rule:evenodd;"
d="M 143.8311,70.0503
143.8426,69.9929
143.8751,69.9442
143.9237,69.9117
143.9811,69.9003
145.6311,69.9003
145.6885,69.9117
145.7372,69.9442
145.7697,69.9929
145.7811,70.0503
145.7811,70.3503
145.7697,70.4077
145.7372,70.4564
145.6885,70.4889
145.6311,70.5003
143.9811,70.5003
143.9237,70.4889
143.8751,70.4564
143.8426,70.4077
143.8311,70.3503
Z" /> 
<path style="fill:#000000; fill-opacity:1.0000; stroke:none;fill-rule:evenodd;"
d="M 148.7811,70.0503
148.7926,69.9929
148.8251,69.9442
148.8737,69.9117
148.9311,69.9003
150.5811,69.9003
150.6385,69.9117
150.6872,69.9442
150.7197,69.9929
150.7311,70.0503
150.7311,70.3503
150.7197,70.4077
150.6872,70.4564
150.6385,70.4889
150.5811,70.5003
148.9311,70.5003
148.8737,70.4889
148.8251,70.4564
148.7926,70.4077
148.7811,70.3503
Z" /> 
<path style="fill:#000000; fill-opacity:1.0000; stroke:none;fill-rule:evenodd;"
d="M 148.7811,68.7803
148.7926,68.7229
148.8251,68.6742
148.8737,68.6417
148.9311,68.6303
150.5811,68.6303
150.6385,68.6417
150.6872,68.6742
150.7197,68.7229
150.7311,68.7803
150.7311,69.0803
150.7197,69.1377
150.6872,69.1864
150.6385,69.2189
150.5811,69.2303
148.9311,69.2303
148.8737,69.2189
148.8251,69.1864
148.7926,69.1377
148.7811,69.0803
Z" /> 
<path style="fill:#000000; fill-opacity:1.0000; stroke:none;fill-rule:evenodd;"
d="M 148.7811,67.5103
148.7926,67.4529
148.8251,67.4042
148.8737,67.3717
148.9311,67.3603
150.5811,67.3603
150.6385,67.3717
150.6872,67.4042
150.7197,67.4529
150.7311,67.5103
150.7311,67.8103
150.7197,67.8677
150.6872,67.9164
150.6385,67.9489
150.5811,67.9603
148.9311,67.9603
148.8737,67.9489
148.8251,67.9164
148.7926,67.8677
148.7811,67.8103
Z" /> 
<path style="fill:#000000; fill-opacity:1.0000; stroke:none;fill-rule:evenodd;"
d="M 148.7811,66.2403
148.7926,66.1829
148.8251,66.1342
148.8737,66.1017
148.9311,66.0903
150.5811,66.0903
150.6385,66.1017
150.6872,66.1342
150.7197,66.1829
150.7311,66.2403
150.7311,66.5403
150.7197,66.5977
150.6872,66.6464
150.6385,66.6789
150.5811,66.6903
148.9311,66.6903
148.8737,66.6789
148.8251,66.6464
148.7926,66.5977
148.7811,66.5403
Z" /> 
<path style="fill:#000000; fill-opacity:1.0000; stroke:none;fill-rule:evenodd;"
d="M 105.4936,75.1628
105.5845,75.1809
105.6616,75.2324
105.7131,75.3094
105.7311,75.4003
105.7311,76.0003
105.7131,76.0912
105.6616,76.1683
105.5845,76.2197
105.4936,76.2378
105.0186,76.2378
104.9278,76.2197
104.8507,76.1683
104.7992,76.0912
104.7811,76.0003
104.7811,75.4003
104.7992,75.3094
104.8507,75.2324
104.9278,75.1809
105.0186,75.1628
Z" /> 
<path style="fill:#000000; fill-opacity:1.0000; stroke:none;fill-rule:evenodd;"
d="M 105.4936,76.8878
105.5845,76.9059
105.6616,76.9574
105.7131,77.0344
105.7311,77.1253
105.7311,77.7253
105.7131,77.8162
105.6616,77.8933
105.5845,77.9447
105.4936,77.9628
105.0186,77.9628
104.9278,77.9447
104.8507,77.8933
104.7992,77.8162
104.7811,77.7253
104.7811,77.1253
104.7992,77.0344
104.8507,76.9574
104.9278,76.9059
105.0186,76.8878
Z" /> 
<path style="fill:#000000; fill-opacity:1.0000; stroke:none;fill-rule:evenodd;"
d="M 138.8811,74.7503
138.9002,74.6546
138.9544,74.5735
139.0355,74.5193
139.1311,74.5003
139.7811,74.5003
139.8768,74.5193
139.9579,74.5735
140.0121,74.6546
140.0311,74.7503
140.0311,75.6503
140.0121,75.7460
139.9579,75.8271
139.8768,75.8813
139.7811,75.9003
139.1311,75.9003
139.0355,75.8813
138.9544,75.8271
138.9002,75.7460
138.8811,75.6503
Z" /> 
<path style="fill:#000000; fill-opacity:1.0000; stroke:none;fill-rule:evenodd;"
d="M 140.9311,74.7503
140.9502,74.6546
141.0044,74.5735
141.0855,74.5193
141.1811,74.5003
141.8311,74.5003
141.9268,74.5193
142.0079,74.5735
142.0621,74.6546
142.0811,74.7503
142.0811,75.6503
142.0621,75.7460
142.0079,75.8271
141.9268,75.8813
141.8311,75.9003
141.1811,75.9003
141.0855,75.8813
141.0044,75.8271
140.9502,75.7460
140.9311,75.6503
Z" /> 
<path style="fill:#000000; fill-opacity:1.0000; stroke:none;fill-rule:evenodd;"
d="M 105.4561,90.1003
105.5518,90.1193
105.6329,90.1735
105.6871,90.2546
105.7061,90.3503
105.7061,91.0503
105.6871,91.1460
105.6329,91.2271
105.5518,91.2813
105.4561,91.3003
104.5561,91.3003
104.4605,91.2813
104.3794,91.2271
104.3252,91.1460
104.3061,91.0503
104.3061,90.3503
104.3252,90.2546
104.3794,90.1735
104.4605,90.1193
104.5561,90.1003
Z" /> 
<path style="fill:#000000; fill-opacity:1.0000; stroke:none;fill-rule:evenodd;"
d="M 105.4561,92.1003
105.5518,92.1193
105.6329,92.1735
105.6871,92.2546
105.7061,92.3503
105.7061,93.0503
105.6871,93.1460
105.6329,93.2271
105.5518,93.2813
105.4561,93.3003
104.5561,93.3003
104.4605,93.2813
104.3794,93.2271
104.3252,93.1460
104.3061,93.0503
104.3061,92.3503
104.3252,92.2546
104.3794,92.1735
104.4605,92.1193
104.5561,92.1003
Z" /> 
<path style="fill:#000000; fill-opacity:1.0000; stroke:none;fill-rule:evenodd;"
d="M 113.8311,92.2403
113.8426,92.1829
113.8751,92.1342
113.9237,92.1017
113.9811,92.0903
115.6311,92.0903
115.6885,92.1017
115.7372,92.1342
115.7697,92.1829
115.7811,92.2403
115.7811,92.5403
115.7697,92.5977
115.7372,92.6464
115.6885,92.6789
115.6311,92.6903
113.9811,92.6903
113.9237,92.6789
113.8751,92.6464
113.8426,92.5977
113.8311,92.5403
Z" /> 
<path style="fill:#000000; fill-opacity:1.0000; stroke:none;fill-rule:evenodd;"
d="M 113.8311,93.5103
113.8426,93.4529
113.8751,93.4042
113.9237,93.3717
113.9811,93.3603
115.6311,93.3603
115.6885,93.3717
115.7372,93.4042
115.7697,93.4529
115.7811,93.5103
115.7811,93.8103
115.7697,93.8677
115.7372,93.9164
115.6885,93.9489
115.6311,93.9603
113.9811,93.9603
113.9237,93.9489
113.8751,93.9164
113.8426,93.8677
113.8311,93.8103
Z" /> 
<path style="fill:#000000; fill-opacity:1.0000; stroke:none;fill-rule:evenodd;"
d="M 113.8311,94.7803
113.8426,94.7229
113.8751,94.6742
113.9237,94.6417
113.9811,94.6303
115.6311,94.6303
115.6885,94.6417
115.7372,94.6742
115.7697,94.7229
115.7811,94.7803
115.7811,95.0803
115.7697,95.1377
115.7372,95.1864
115.6885,95.2189
115.6311,95.2303
113.9811,95.2303
113.9237,95.2189
113.8751,95.1864
113.8426,95.1377
113.8311,95.0803
Z" /> 
<path style="fill:#000000; fill-opacity:1.0000; stroke:none;fill-rule:evenodd;"
d="M 113.8311,96.0503
113.8426,95.9929
113.8751,95.9442
113.9237,95.9117
113.9811,95.9003
115.6311,95.9003
115.6885,95.9117
115.7372,95.9442
115.7697,95.9929
115.7811,96.0503
115.7811,96.3503
115.7697,96.4077
115.7372,96.4564
115.6885,96.4889
115.6311,96.5003
113.9811,96.5003
113.9237,96.4889
113.8751,96.4564
113.8426,96.4077
113.8311,96.3503
Z" /> 
<path style="fill:#000000; fill-opacity:1.0000; stroke:none;fill-rule:evenodd;"
d="M 118.7811,96.0503
118.7926,95.9929
118.8251,95.9442
118.8737,95.9117
118.9311,95.9003
120.5811,95.9003
120.6385,95.9117
120.6872,95.9442
120.7197,95.9929
120.7311,96.0503
120.7311,96.3503
120.7197,96.4077
120.6872,96.4564
120.6385,96.4889
120.5811,96.5003
118.9311,96.5003
118.8737,96.4889
118.8251,96.4564
118.7926,96.4077
118.7811,96.3503
Z" /> 
<path style="fill:#000000; fill-opacity:1.0000; stroke:none;fill-rule:evenodd;"
d="M 118.7811,94.7803
118.7926,94.7229
118.8251,94.6742
118.8737,94.6417
118.9311,94.6303
120.5811,94.6303
120.6385,94.6417
120.6872,94.6742
120.7197,94.7229
120.7311,94.7803
120.7311,95.0803
120.7197,95.1377
120.6872,95.1864
120.6385,95.2189
120.5811,95.2303
118.9311,95.2303
118.8737,95.2189
118.8251,95.1864
118.7926,95.1377
118.7811,95.0803
Z" /> 
<path style="fill:#000000; fill-opacity:1.0000; stroke:none;fill-rule:evenodd;"
d="M 118.7811,93.5103
118.7926,93.4529
118.8251,93.4042
118.8737,93.3717
118.9311,93.3603
120.5811,93.3603
120.6385,93.3717
120.6872,93.4042
120.7197,93.4529
120.7311,93.5103
120.7311,93.8103
120.7197,93.8677
120.6872,93.9164
120.6385,93.9489
120.5811,93.9603
118.9311,93.9603
118.8737,93.9489
118.8251,93.9164
118.7926,93.8677
118.7811,93.8103
Z" /> 
<path style="fill:#000000; fill-opacity:1.0000; stroke:none;fill-rule:evenodd;"
d="M 118.7811,92.2403
118.7926,92.1829
118.8251,92.1342
118.8737,92.1017
118.9311,92.0903
120.5811,92.0903
120.6385,92.1017
120.6872,92.1342
120.7197,92.1829
120.7311,92.2403
120.7311,92.5403
120.7197,92.5977
120.6872,92.6464
120.6385,92.6789
120.5811,92.6903
118.9311,92.6903
118.8737,92.6789
118.8251,92.6464
118.7926,92.5977
118.7811,92.5403
Z" /> 
<path style="fill:#000000; fill-opacity:1.0000; stroke:none;fill-rule:evenodd;"
d="M 177.3561,101.6503
177.3371,101.7460
177.2829,101.8271
177.2018,101.8813
177.1061,101.9003
176.4061,101.9003
176.3105,101.8813
176.2294,101.8271
176.1752,101.7460
176.1561,101.6503
176.1561,100.7503
176.1752,100.6546
176.2294,100.5735
176.3105,100.5193
176.4061,100.5003
177.1061,100.5003
177.2018,100.5193
177.2829,100.5735
177.3371,100.6546
177.3561,100.7503
Z" /> 
<path style="fill:#000000; fill-opacity:1.0000; stroke:none;fill-rule:evenodd;"
d="M 175.3561,101.6503
175.3371,101.7460
175.2829,101.8271
175.2018,101.8813
175.1061,101.9003
174.4061,101.9003
174.3105,101.8813
174.2294,101.8271
174.1752,101.7460
174.1561,101.6503
174.1561,100.7503
174.1752,100.6546
174.2294,100.5735
174.3105,100.5193
174.4061,100.5003
175.1061,100.5003
175.2018,100.5193
175.2829,100.5735
175.3371,100.6546
175.3561,100.7503
Z" /> 
<path style="fill:#000000; fill-opacity:1.0000; stroke:none;fill-rule:evenodd;"
d="M 118.5186,72.4378
118.5006,72.5287
118.4491,72.6058
118.3720,72.6572
118.2811,72.6753
117.6811,72.6753
117.5903,72.6572
117.5132,72.6058
117.4617,72.5287
117.4436,72.4378
117.4436,71.9628
117.4617,71.8719
117.5132,71.7949
117.5903,71.7434
117.6811,71.7253
118.2811,71.7253
118.3720,71.7434
118.4491,71.7949
118.5006,71.8719
118.5186,71.9628
Z" /> 
<path style="fill:#000000; fill-opacity:1.0000; stroke:none;fill-rule:evenodd;"
d="M 116.7936,72.4378
116.7756,72.5287
116.7241,72.6058
116.6470,72.6572
116.5561,72.6753
115.9561,72.6753
115.8653,72.6572
115.7882,72.6058
115.7367,72.5287
115.7186,72.4378
115.7186,71.9628
115.7367,71.8719
115.7882,71.7949
115.8653,71.7434
115.9561,71.7253
116.5561,71.7253
116.6470,71.7434
116.7241,71.7949
116.7756,71.8719
116.7936,71.9628
Z" /> 
<path style="fill:#000000; fill-opacity:1.0000; stroke:none;fill-rule:evenodd;"
d="M 110.1311,65.8503
110.2172,65.8674
110.2902,65.9162
110.3390,65.9892
110.3561,66.0753
110.3561,66.5253
110.3390,66.6114
110.2902,66.6844
110.2172,66.7332
110.1311,66.7503
109.3811,66.7503
109.2950,66.7332
109.2220,66.6844
109.1733,66.6114
109.1561,66.5253
109.1561,66.0753
109.1733,65.9892
109.2220,65.9162
109.2950,65.8674
109.3811,65.8503
Z" /> 
<path style="fill:#000000; fill-opacity:1.0000; stroke:none;fill-rule:evenodd;"
d="M 110.1311,69.1503
110.2172,69.1674
110.2902,69.2162
110.3390,69.2892
110.3561,69.3753
110.3561,69.8253
110.3390,69.9114
110.2902,69.9844
110.2172,70.0332
110.1311,70.0503
109.3811,70.0503
109.2950,70.0332
109.2220,69.9844
109.1733,69.9114
109.1561,69.8253
109.1561,69.3753
109.1733,69.2892
109.2220,69.2162
109.2950,69.1674
109.3811,69.1503
Z" /> 
<path style="fill:#000000; fill-opacity:1.0000; stroke:none;fill-rule:evenodd;"
d="M 100.3811,70.0053
100.2950,69.9882
100.2220,69.9394
100.1733,69.8664
100.1561,69.7803
100.1561,69.3303
100.1733,69.2442
100.2220,69.1712
100.2950,69.1224
100.3811,69.1053
101.1311,69.1053
101.2172,69.1224
101.2902,69.1712
101.3390,69.2442
101.3561,69.3303
101.3561,69.7803
101.3390,69.8664
101.2902,69.9394
101.2172,69.9882
101.1311,70.0053
Z" /> 
<path style="fill:#000000; fill-opacity:1.0000; stroke:none;fill-rule:evenodd;"
d="M 100.3811,66.7053
100.2950,66.6882
100.2220,66.6394
100.1733,66.5664
100.1561,66.4803
100.1561,66.0303
100.1733,65.9442
100.2220,65.8712
100.2950,65.8224
100.3811,65.8053
101.1311,65.8053
101.2172,65.8224
101.2902,65.8712
101.3390,65.9442
101.3561,66.0303
101.3561,66.4803
101.3390,66.5664
101.2902,66.6394
101.2172,66.6882
101.1311,66.7053
Z" /> 
<path style="fill:#000000; fill-opacity:1.0000; stroke:none;fill-rule:evenodd;"
d="M 135.4936,101.1628
135.5845,101.1809
135.6616,101.2324
135.7131,101.3094
135.7311,101.4003
135.7311,102.0003
135.7131,102.0912
135.6616,102.1683
135.5845,102.2197
135.4936,102.2378
135.0186,102.2378
134.9278,102.2197
134.8507,102.1683
134.7992,102.0912
134.7811,102.0003
134.7811,101.4003
134.7992,101.3094
134.8507,101.2324
134.9278,101.1809
135.0186,101.1628
Z" /> 
<path style="fill:#000000; fill-opacity:1.0000; stroke:none;fill-rule:evenodd;"
d="M 135.4936,102.8878
135.5845,102.9059
135.6616,102.9574
135.7131,103.0344
135.7311,103.1253
135.7311,103.7253
135.7131,103.8162
135.6616,103.8933
135.5845,103.9447
135.4936,103.9628
135.0186,103.9628
134.9278,103.9447
134.8507,103.8933
134.7992,103.8162
134.7811,103.7253
134.7811,103.1253
134.7992,103.0344
134.8507,102.9574
134.9278,102.9059
135.0186,102.8878
Z" /> 
<path style="fill:#000000; fill-opacity:1.0000; stroke:none;fill-rule:evenodd;"
d="M 140.1311,65.8503
140.2172,65.8674
140.2902,65.9162
140.3390,65.9892
140.3561,66.0753
140.3561,66.5253
140.3390,66.6114
140.2902,66.6844
140.2172,66.7332
140.1311,66.7503
139.3811,66.7503
139.2950,66.7332
139.2220,66.6844
139.1733,66.6114
139.1561,66.5253
139.1561,66.0753
139.1733,65.9892
139.2220,65.9162
139.2950,65.8674
139.3811,65.8503
Z" /> 
<path style="fill:#000000; fill-opacity:1.0000; stroke:none;fill-rule:evenodd;"
d="M 140.1311,69.1503
140.2172,69.1674
140.2902,69.2162
140.3390,69.2892
140.3561,69.3753
140.3561,69.8253
140.3390,69.9114
140.2902,69.9844
140.2172,70.0332
140.1311,70.0503
139.3811,70.0503
139.2950,70.0332
139.2220,69.9844
139.1733,69.9114
139.1561,69.8253
139.1561,69.3753
139.1733,69.2892
139.2220,69.2162
139.2950,69.1674
139.3811,69.1503
Z" /> 
<path style="fill:#000000; fill-opacity:1.0000; stroke:none;fill-rule:evenodd;"
d="M 173.8311,92.2403
173.8426,92.1829
173.8751,92.1342
173.9237,92.1017
173.9811,92.0903
175.6311,92.0903
175.6885,92.1017
175.7372,92.1342
175.7697,92.1829
175.7811,92.2403
175.7811,92.5403
175.7697,92.5977
175.7372,92.6464
175.6885,92.6789
175.6311,92.6903
173.9811,92.6903
173.9237,92.6789
173.8751,92.6464
173.8426,92.5977
173.8311,92.5403
Z" /> 
<path style="fill:#000000; fill-opacity:1.0000; stroke:none;fill-rule:evenodd;"
d="M 173.8311,93.5103
173.8426,93.4529
173.8751,93.4042
173.9237,93.3717
173.9811,93.3603
175.6311,93.3603
175.6885,93.3717
175.7372,93.4042
175.7697,93.4529
175.7811,93.5103
175.7811,93.8103
175.7697,93.8677
175.7372,93.9164
175.6885,93.9489
175.6311,93.9603
173.9811,93.9603
173.9237,93.9489
173.8751,93.9164
173.8426,93.8677
173.8311,93.8103
Z" /> 
<path style="fill:#000000; fill-opacity:1.0000; stroke:none;fill-rule:evenodd;"
d="M 173.8311,94.7803
173.8426,94.7229
173.8751,94.6742
173.9237,94.6417
173.9811,94.6303
175.6311,94.6303
175.6885,94.6417
175.7372,94.6742
175.7697,94.7229
175.7811,94.7803
175.7811,95.0803
175.7697,95.1377
175.7372,95.1864
175.6885,95.2189
175.6311,95.2303
173.9811,95.2303
173.9237,95.2189
173.8751,95.1864
173.8426,95.1377
173.8311,95.0803
Z" /> 
<path style="fill:#000000; fill-opacity:1.0000; stroke:none;fill-rule:evenodd;"
d="M 173.8311,96.0503
173.8426,95.9929
173.8751,95.9442
173.9237,95.9117
173.9811,95.9003
175.6311,95.9003
175.6885,95.9117
175.7372,95.9442
175.7697,95.9929
175.7811,96.0503
175.7811,96.3503
175.7697,96.4077
175.7372,96.4564
175.6885,96.4889
175.6311,96.5003
173.9811,96.5003
173.9237,96.4889
173.8751,96.4564
173.8426,96.4077
173.8311,96.3503
Z" /> 
<path style="fill:#000000; fill-opacity:1.0000; stroke:none;fill-rule:evenodd;"
d="M 178.7811,96.0503
178.7926,95.9929
178.8251,95.9442
178.8737,95.9117
178.9311,95.9003
180.5811,95.9003
180.6385,95.9117
180.6872,95.9442
180.7197,95.9929
180.7311,96.0503
180.7311,96.3503
180.7197,96.4077
180.6872,96.4564
180.6385,96.4889
180.5811,96.5003
178.9311,96.5003
178.8737,96.4889
178.8251,96.4564
178.7926,96.4077
178.7811,96.3503
Z" /> 
<path style="fill:#000000; fill-opacity:1.0000; stroke:none;fill-rule:evenodd;"
d="M 178.7811,94.7803
178.7926,94.7229
178.8251,94.6742
178.8737,94.6417
178.9311,94.6303
180.5811,94.6303
180.6385,94.6417
180.6872,94.6742
180.7197,94.7229
180.7311,94.7803
180.7311,95.0803
180.7197,95.1377
180.6872,95.1864
180.6385,95.2189
180.5811,95.2303
178.9311,95.2303
178.8737,95.2189
178.8251,95.1864
178.7926,95.1377
178.7811,95.0803
Z" /> 
<path style="fill:#000000; fill-opacity:1.0000; stroke:none;fill-rule:evenodd;"
d="M 178.7811,93.5103
178.7926,93.4529
178.8251,93.4042
178.8737,93.3717
178.9311,93.3603
180.5811,93.3603
180.6385,93.3717
180.6872,93.4042
180.7197,93.4529
180.7311,93.5103
180.7311,93.8103
180.7197,93.8677
180.6872,93.9164
180.6385,93.9489
180.5811,93.9603
178.9311,93.9603
178.8737,93.9489
178.8251,93.9164
178.7926,93.8677
178.7811,93.8103
Z" /> 
<path style="fill:#000000; fill-opacity:1.0000; stroke:none;fill-rule:evenodd;"
d="M 178.7811,92.2403
178.7926,92.1829
178.8251,92.1342
178.8737,92.1017
178.9311,92.0903
180.5811,92.0903
180.6385,92.1017
180.6872,92.1342
180.7197,92.1829
180.7311,92.2403
180.7311,92.5403
180.7197,92.5977
180.6872,92.6464
180.6385,92.6789
180.5811,92.6903
178.9311,92.6903
178.8737,92.6789
178.8251,92.6464
178.7926,92.5977
178.7811,92.5403
Z" /> 
<path style="fill:#000000; fill-opacity:1.0000; stroke:none;fill-rule:evenodd;"
d="M 105.4936,127.1628
105.5845,127.1809
105.6616,127.2324
105.7131,127.3094
105.7311,127.4003
105.7311,128.0003
105.7131,128.0912
105.6616,128.1683
105.5845,128.2197
105.4936,128.2378
105.0186,128.2378
104.9278,128.2197
104.8507,128.1683
104.7992,128.0912
104.7811,128.0003
104.7811,127.4003
104.7992,127.3094
104.8507,127.2324
104.9278,127.1809
105.0186,127.1628
Z" /> 
<path style="fill:#000000; fill-opacity:1.0000; stroke:none;fill-rule:evenodd;"
d="M 105.4936,128.8878
105.5845,128.9059
105.6616,128.9574
105.7131,129.0344
105.7311,129.1253
105.7311,129.7253
105.7131,129.8162
105.6616,129.8933
105.5845,129.9447
105.4936,129.9628
105.0186,129.9628
104.9278,129.9447
104.8507,129.8933
104.7992,129.8162
104.7811,129.7253
104.7811,129.1253
104.7992,129.0344
104.8507,128.9574
104.9278,128.9059
105.0186,128.8878
Z" /> 
<path style="fill:#000000; fill-opacity:1.0000; stroke:none;fill-rule:evenodd;"
d="M 178.5186,98.4378
178.5006,98.5287
178.4491,98.6058
178.3720,98.6572
178.2811,98.6753
177.6811,98.6753
177.5903,98.6572
177.5132,98.6058
177.4617,98.5287
177.4436,98.4378
177.4436,97.9628
177.4617,97.8719
177.5132,97.7949
177.5903,97.7434
177.6811,97.7253
178.2811,97.7253
178.3720,97.7434
178.4491,97.7949
178.5006,97.8719
178.5186,97.9628
Z" /> 
<path style="fill:#000000; fill-opacity:1.0000; stroke:none;fill-rule:evenodd;"
d="M 176.7936,98.4378
176.7756,98.5287
176.7241,98.6058
176.6470,98.6572
176.5561,98.6753
175.9561,98.6753
175.8653,98.6572
175.7882,98.6058
175.7367,98.5287
175.7186,98.4378
175.7186,97.9628
175.7367,97.8719
175.7882,97.7949
175.8653,97.7434
175.9561,97.7253
176.5561,97.7253
176.6470,97.7434
176.7241,97.7949
176.7756,97.8719
176.7936,97.9628
Z" /> 
<path style="fill:#000000; fill-opacity:1.0000; stroke:none;fill-rule:evenodd;"
d="M 110.1311,91.8503
110.2172,91.8674
110.2902,91.9162
110.3390,91.9892
110.3561,92.0753
110.3561,92.5253
110.3390,92.6114
110.2902,92.6844
110.2172,92.7332
110.1311,92.7503
109.3811,92.7503
109.2950,92.7332
109.2220,92.6844
109.1733,92.6114
109.1561,92.5253
109.1561,92.0753
109.1733,91.9892
109.2220,91.9162
109.2950,91.8674
109.3811,91.8503
Z" /> 
<path style="fill:#000000; fill-opacity:1.0000; stroke:none;fill-rule:evenodd;"
d="M 110.1311,95.1503
110.2172,95.1674
110.2902,95.2162
110.3390,95.2892
110.3561,95.3753
110.3561,95.8253
110.3390,95.9114
110.2902,95.9844
110.2172,96.0332
110.1311,96.0503
109.3811,96.0503
109.2950,96.0332
109.2220,95.9844
109.1733,95.9114
109.1561,95.8253
109.1561,95.3753
109.1733,95.2892
109.2220,95.2162
109.2950,95.1674
109.3811,95.1503
Z" /> 
<path style="fill:#000000; fill-opacity:1.0000; stroke:none;fill-rule:evenodd;"
d="M 178.5186,124.4378
178.5006,124.5287
178.4491,124.6058
178.3720,124.6572
178.2811,124.6753
177.6811,124.6753
177.5903,124.6572
177.5132,124.6058
177.4617,124.5287
177.4436,124.4378
177.4436,123.9628
177.4617,123.8719
177.5132,123.7949
177.5903,123.7434
177.6811,123.7253
178.2811,123.7253
178.3720,123.7434
178.4491,123.7949
178.5006,123.8719
178.5186,123.9628
Z" /> 
<path style="fill:#000000; fill-opacity:1.0000; stroke:none;fill-rule:evenodd;"
d="M 176.7936,124.4378
176.7756,124.5287
176.7241,124.6058
176.6470,124.6572
176.5561,124.6753
175.9561,124.6753
175.8653,124.6572
175.7882,124.6058
175.7367,124.5287
175.7186,124.4378
175.7186,123.9628
175.7367,123.8719
175.7882,123.7949
175.8653,123.7434
175.9561,123.7253
176.5561,123.7253
176.6470,123.7434
176.7241,123.7949
176.7756,123.8719
176.7936,123.9628
Z" /> 
<path style="fill:#000000; fill-opacity:1.0000; stroke:none;fill-rule:evenodd;"
d="M 165.6561,69.1003
166.8561,69.1003
166.8561,70.3003
165.6561,70.3003
Z" /> 
<path style="fill:#000000; fill-opacity:1.0000; stroke:none;fill-rule:evenodd;"
d="M 164.4561,72.2003
166.0561,72.2003
166.0561,73.7003
164.4561,73.7003
Z" /> 
<path style="fill:#000000; fill-opacity:1.0000; stroke:none;fill-rule:evenodd;"
d="M 163.6561,69.1003
164.8561,69.1003
164.8561,70.3003
163.6561,70.3003
Z" /> 
<path style="fill:#000000; fill-opacity:1.0000; stroke:none;fill-rule:evenodd;"
d="M 147.3561,101.6503
147.3371,101.7460
147.2829,101.8271
147.2018,101.8813
147.1061,101.9003
146.4061,101.9003
146.3105,101.8813
146.2294,101.8271
146.1752,101.7460
146.1561,101.6503
146.1561,100.7503
146.1752,100.6546
146.2294,100.5735
146.3105,100.5193
146.4061,100.5003
147.1061,100.5003
147.2018,100.5193
147.2829,100.5735
147.3371,100.6546
147.3561,100.7503
Z" /> 
<path style="fill:#000000; fill-opacity:1.0000; stroke:none;fill-rule:evenodd;"
d="M 145.3561,101.6503
145.3371,101.7460
145.2829,101.8271
145.2018,101.8813
145.1061,101.9003
144.4061,101.9003
144.3105,101.8813
144.2294,101.8271
144.1752,101.7460
144.1561,101.6503
144.1561,100.7503
144.1752,100.6546
144.2294,100.5735
144.3105,100.5193
144.4061,100.5003
145.1061,100.5003
145.2018,100.5193
145.2829,100.5735
145.3371,100.6546
145.3561,100.7503
Z" /> 
<path style="fill:#000000; fill-opacity:1.0000; stroke:none;fill-rule:evenodd;"
d="M 135.6561,95.1003
136.8561,95.1003
136.8561,96.3003
135.6561,96.3003
Z" /> 
<path style="fill:#000000; fill-opacity:1.0000; stroke:none;fill-rule:evenodd;"
d="M 134.4561,98.2003
136.0561,98.2003
136.0561,99.7003
134.4561,99.7003
Z" /> 
<path style="fill:#000000; fill-opacity:1.0000; stroke:none;fill-rule:evenodd;"
d="M 133.6561,95.1003
134.8561,95.1003
134.8561,96.3003
133.6561,96.3003
Z" /> 
<path style="fill:#000000; fill-opacity:1.0000; stroke:none;fill-rule:evenodd;"
d="M 140.1311,117.8503
140.2172,117.8674
140.2902,117.9162
140.3390,117.9892
140.3561,118.0753
140.3561,118.5253
140.3390,118.6114
140.2902,118.6844
140.2172,118.7332
140.1311,118.7503
139.3811,118.7503
139.2950,118.7332
139.2220,118.6844
139.1733,118.6114
139.1561,118.5253
139.1561,118.0753
139.1733,117.9892
139.2220,117.9162
139.2950,117.8674
139.3811,117.8503
Z" /> 
<path style="fill:#000000; fill-opacity:1.0000; stroke:none;fill-rule:evenodd;"
d="M 140.1311,121.1503
140.2172,121.1674
140.2902,121.2162
140.3390,121.2892
140.3561,121.3753
140.3561,121.8253
140.3390,121.9114
140.2902,121.9844
140.2172,122.0332
140.1311,122.0503
139.3811,122.0503
139.2950,122.0332
139.2220,121.9844
139.1733,121.9114
139.1561,121.8253
139.1561,121.3753
139.1733,121.2892
139.2220,121.2162
139.2950,121.1674
139.3811,121.1503
Z" /> 
<path style="fill:#000000; fill-opacity:1.0000; stroke:none;fill-rule:evenodd;"
d="M 113.8311,66.2403
113.8426,66.1829
113.8751,66.1342
113.9237,66.1017
113.9811,66.0903
115.6311,66.0903
115.6885,66.1017
115.7372,66.1342
115.7697,66.1829
115.7811,66.2403
115.7811,66.5403
115.7697,66.5977
115.7372,66.6464
115.6885,66.6789
115.6311,66.6903
113.9811,66.6903
113.9237,66.6789
113.8751,66.6464
113.8426,66.5977
113.8311,66.5403
Z" /> 
<path style="fill:#000000; fill-opacity:1.0000; stroke:none;fill-rule:evenodd;"
d="M 113.8311,67.5103
113.8426,67.4529
113.8751,67.4042
113.9237,67.3717
113.9811,67.3603
115.6311,67.3603
115.6885,67.3717
115.7372,67.4042
115.7697,67.4529
115.7811,67.5103
115.7811,67.8103
115.7697,67.8677
115.7372,67.9164
115.6885,67.9489
115.6311,67.9603
113.9811,67.9603
113.9237,67.9489
113.8751,67.9164
113.8426,67.8677
113.8311,67.8103
Z" /> 
<path style="fill:#000000; fill-opacity:1.0000; stroke:none;fill-rule:evenodd;"
d="M 113.8311,68.7803
113.8426,68.7229
113.8751,68.6742
113.9237,68.6417
113.9811,68.6303
115.6311,68.6303
115.6885,68.6417
115.7372,68.6742
115.7697,68.7229
115.7811,68.7803
115.7811,69.0803
115.7697,69.1377
115.7372,69.1864
115.6885,69.2189
115.6311,69.2303
113.9811,69.2303
113.9237,69.2189
113.8751,69.1864
113.8426,69.1377
113.8311,69.0803
Z" /> 
<path style="fill:#000000; fill-opacity:1.0000; stroke:none;fill-rule:evenodd;"
d="M 113.8311,70.0503
113.8426,69.9929
113.8751,69.9442
113.9237,69.9117
113.9811,69.9003
115.6311,69.9003
115.6885,69.9117
115.7372,69.9442
115.7697,69.9929
115.7811,70.0503
115.7811,70.3503
115.7697,70.4077
115.7372,70.4564
115.6885,70.4889
115.6311,70.5003
113.9811,70.5003
113.9237,70.4889
113.8751,70.4564
113.8426,70.4077
113.8311,70.3503
Z" /> 
<path style="fill:#000000; fill-opacity:1.0000; stroke:none;fill-rule:evenodd;"
d="M 118.7811,70.0503
118.7926,69.9929
118.8251,69.9442
118.8737,69.9117
118.9311,69.9003
120.5811,69.9003
120.6385,69.9117
120.6872,69.9442
120.7197,69.9929
120.7311,70.0503
120.7311,70.3503
120.7197,70.4077
120.6872,70.4564
120.6385,70.4889
120.5811,70.5003
118.9311,70.5003
118.8737,70.4889
118.8251,70.4564
118.7926,70.4077
118.7811,70.3503
Z" /> 
<path style="fill:#000000; fill-opacity:1.0000; stroke:none;fill-rule:evenodd;"
d="M 118.7811,68.7803
118.7926,68.7229
118.8251,68.6742
118.8737,68.6417
118.9311,68.6303
120.5811,68.6303
120.6385,68.6417
120.6872,68.6742
120.7197,68.7229
120.7311,68.7803
120.7311,69.0803
120.7197,69.1377
120.6872,69.1864
120.6385,69.2189
120.5811,69.2303
118.9311,69.2303
118.8737,69.2189
118.8251,69.1864
118.7926,69.1377
118.7811,69.0803
Z" /> 
<path style="fill:#000000; fill-opacity:1.0000; stroke:none;fill-rule:evenodd;"
d="M 118.7811,67.5103
118.7926,67.4529
118.8251,67.4042
118.8737,67.3717
118.9311,67.3603
120.5811,67.3603
120.6385,67.3717
120.6872,67.4042
120.7197,67.4529
120.7311,67.5103
120.7311,67.8103
120.7197,67.8677
120.6872,67.9164
120.6385,67.9489
120.5811,67.9603
118.9311,67.9603
118.8737,67.9489
118.8251,67.9164
118.7926,67.8677
118.7811,67.8103
Z" /> 
<path style="fill:#000000; fill-opacity:1.0000; stroke:none;fill-rule:evenodd;"
d="M 118.7811,66.2403
118.7926,66.1829
118.8251,66.1342
118.8737,66.1017
118.9311,66.0903
120.5811,66.0903
120.6385,66.1017
120.6872,66.1342
120.7197,66.1829
120.7311,66.2403
120.7311,66.5403
120.7197,66.5977
120.6872,66.6464
120.6385,66.6789
120.5811,66.6903
118.9311,66.6903
118.8737,66.6789
118.8251,66.6464
118.7926,66.5977
118.7811,66.5403
Z" /> 
<path style="fill:#000000; fill-opacity:1.0000; stroke:none;fill-rule:evenodd;"
d="M 168.8811,100.7503
168.9002,100.6546
168.9544,100.5735
169.0355,100.5193
169.1311,100.5003
169.7811,100.5003
169.8768,100.5193
169.9579,100.5735
170.0121,100.6546
170.0311,100.7503
170.0311,101.6503
170.0121,101.7460
169.9579,101.8271
169.8768,101.8813
169.7811,101.9003
169.1311,101.9003
169.0355,101.8813
168.9544,101.8271
168.9002,101.7460
168.8811,101.6503
Z" /> 
<path style="fill:#000000; fill-opacity:1.0000; stroke:none;fill-rule:evenodd;"
d="M 170.9311,100.7503
170.9502,100.6546
171.0044,100.5735
171.0855,100.5193
171.1811,100.5003
171.8311,100.5003
171.9268,100.5193
172.0079,100.5735
172.0621,100.6546
172.0811,100.7503
172.0811,101.6503
172.0621,101.7460
172.0079,101.8271
171.9268,101.8813
171.8311,101.9003
171.1811,101.9003
171.0855,101.8813
171.0044,101.8271
170.9502,101.7460
170.9311,101.6503
Z" /> 
<path style="fill:#000000; fill-opacity:1.0000; stroke:none;fill-rule:evenodd;"
d="M 105.6561,69.1003
106.8561,69.1003
106.8561,70.3003
105.6561,70.3003
Z" /> 
<path style="fill:#000000; fill-opacity:1.0000; stroke:none;fill-rule:evenodd;"
d="M 104.4561,72.2003
106.0561,72.2003
106.0561,73.7003
104.4561,73.7003
Z" /> 
<path style="fill:#000000; fill-opacity:1.0000; stroke:none;fill-rule:evenodd;"
d="M 103.6561,69.1003
104.8561,69.1003
104.8561,70.3003
103.6561,70.3003
Z" /> 
<path style="fill:#000000; fill-opacity:1.0000; stroke:none;fill-rule:evenodd;"
d="M 118.5186,124.4378
118.5006,124.5287
118.4491,124.6058
118.3720,124.6572
118.2811,124.6753
117.6811,124.6753
117.5903,124.6572
117.5132,124.6058
117.4617,124.5287
117.4436,124.4378
117.4436,123.9628
117.4617,123.8719
117.5132,123.7949
117.5903,123.7434
117.6811,123.7253
118.2811,123.7253
118.3720,123.7434
118.4491,123.7949
118.5006,123.8719
118.5186,123.9628
Z" /> 
<path style="fill:#000000; fill-opacity:1.0000; stroke:none;fill-rule:evenodd;"
d="M 116.7936,124.4378
116.7756,124.5287
116.7241,124.6058
116.6470,124.6572
116.5561,124.6753
115.9561,124.6753
115.8653,124.6572
115.7882,124.6058
115.7367,124.5287
115.7186,124.4378
115.7186,123.9628
115.7367,123.8719
115.7882,123.7949
115.8653,123.7434
115.9561,123.7253
116.5561,123.7253
116.6470,123.7434
116.7241,123.7949
116.7756,123.8719
116.7936,123.9628
Z" /> 
<path style="fill:#000000; fill-opacity:1.0000; stroke:none;fill-rule:evenodd;"
d="M 160.3811,122.0053
160.2950,121.9882
160.2220,121.9394
160.1733,121.8664
160.1561,121.7803
160.1561,121.3303
160.1733,121.2442
160.2220,121.1712
160.2950,121.1224
160.3811,121.1053
161.1311,121.1053
161.2172,121.1224
161.2902,121.1712
161.3390,121.2442
161.3561,121.3303
161.3561,121.7803
161.3390,121.8664
161.2902,121.9394
161.2172,121.9882
161.1311,122.0053
Z" /> 
<path style="fill:#000000; fill-opacity:1.0000; stroke:none;fill-rule:evenodd;"
d="M 160.3811,118.7053
160.2950,118.6882
160.2220,118.6394
160.1733,118.5664
160.1561,118.4803
160.1561,118.0303
160.1733,117.9442
160.2220,117.8712
160.2950,117.8224
160.3811,117.8053
161.1311,117.8053
161.2172,117.8224
161.2902,117.8712
161.3390,117.9442
161.3561,118.0303
161.3561,118.4803
161.3390,118.5664
161.2902,118.6394
161.2172,118.6882
161.1311,118.7053
Z" /> 
<path style="fill:#000000; fill-opacity:1.0000; stroke:none;fill-rule:evenodd;"
d="M 173.8311,118.2403
173.8426,118.1829
173.8751,118.1342
173.9237,118.1017
173.9811,118.0903
175.6311,118.0903
175.6885,118.1017
175.7372,118.1342
175.7697,118.1829
175.7811,118.2403
175.7811,118.5403
175.7697,118.5977
175.7372,118.6464
175.6885,118.6789
175.6311,118.6903
173.9811,118.6903
173.9237,118.6789
173.8751,118.6464
173.8426,118.5977
173.8311,118.5403
Z" /> 
<path style="fill:#000000; fill-opacity:1.0000; stroke:none;fill-rule:evenodd;"
d="M 173.8311,119.5103
173.8426,119.4529
173.8751,119.4042
173.9237,119.3717
173.9811,119.3603
175.6311,119.3603
175.6885,119.3717
175.7372,119.4042
175.7697,119.4529
175.7811,119.5103
175.7811,119.8103
175.7697,119.8677
175.7372,119.9164
175.6885,119.9489
175.6311,119.9603
173.9811,119.9603
173.9237,119.9489
173.8751,119.9164
173.8426,119.8677
173.8311,119.8103
Z" /> 
<path style="fill:#000000; fill-opacity:1.0000; stroke:none;fill-rule:evenodd;"
d="M 173.8311,120.7803
173.8426,120.7229
173.8751,120.6742
173.9237,120.6417
173.9811,120.6303
175.6311,120.6303
175.6885,120.6417
175.7372,120.6742
175.7697,120.7229
175.7811,120.7803
175.7811,121.0803
175.7697,121.1377
175.7372,121.1864
175.6885,121.2189
175.6311,121.2303
173.9811,121.2303
173.9237,121.2189
173.8751,121.1864
173.8426,121.1377
173.8311,121.0803
Z" /> 
<path style="fill:#000000; fill-opacity:1.0000; stroke:none;fill-rule:evenodd;"
d="M 173.8311,122.0503
173.8426,121.9929
173.8751,121.9442
173.9237,121.9117
173.9811,121.9003
175.6311,121.9003
175.6885,121.9117
175.7372,121.9442
175.7697,121.9929
175.7811,122.0503
175.7811,122.3503
175.7697,122.4077
175.7372,122.4564
175.6885,122.4889
175.6311,122.5003
173.9811,122.5003
173.9237,122.4889
173.8751,122.4564
173.8426,122.4077
173.8311,122.3503
Z" /> 
<path style="fill:#000000; fill-opacity:1.0000; stroke:none;fill-rule:evenodd;"
d="M 178.7811,122.0503
178.7926,121.9929
178.8251,121.9442
178.8737,121.9117
178.9311,121.9003
180.5811,121.9003
180.6385,121.9117
180.6872,121.9442
180.7197,121.9929
180.7311,122.0503
180.7311,122.3503
180.7197,122.4077
180.6872,122.4564
180.6385,122.4889
180.5811,122.5003
178.9311,122.5003
178.8737,122.4889
178.8251,122.4564
178.7926,122.4077
178.7811,122.3503
Z" /> 
<path style="fill:#000000; fill-opacity:1.0000; stroke:none;fill-rule:evenodd;"
d="M 178.7811,120.7803
178.7926,120.7229
178.8251,120.6742
178.8737,120.6417
178.9311,120.6303
180.5811,120.6303
180.6385,120.6417
180.6872,120.6742
180.7197,120.7229
180.7311,120.7803
180.7311,121.0803
180.7197,121.1377
180.6872,121.1864
180.6385,121.2189
180.5811,121.2303
178.9311,121.2303
178.8737,121.2189
178.8251,121.1864
178.7926,121.1377
178.7811,121.0803
Z" /> 
<path style="fill:#000000; fill-opacity:1.0000; stroke:none;fill-rule:evenodd;"
d="M 178.7811,119.5103
178.7926,119.4529
178.8251,119.4042
178.8737,119.3717
178.9311,119.3603
180.5811,119.3603
180.6385,119.3717
180.6872,119.4042
180.7197,119.4529
180.7311,119.5103
180.7311,119.8103
180.7197,119.8677
180.6872,119.9164
180.6385,119.9489
180.5811,119.9603
178.9311,119.9603
178.8737,119.9489
178.8251,119.9164
178.7926,119.8677
178.7811,119.8103
Z" /> 
<path style="fill:#000000; fill-opacity:1.0000; stroke:none;fill-rule:evenodd;"
d="M 178.7811,118.2403
178.7926,118.1829
178.8251,118.1342
178.8737,118.1017
178.9311,118.0903
180.5811,118.0903
180.6385,118.1017
180.6872,118.1342
180.7197,118.1829
180.7311,118.2403
180.7311,118.5403
180.7197,118.5977
180.6872,118.6464
180.6385,118.6789
180.5811,118.6903
178.9311,118.6903
178.8737,118.6789
178.8251,118.6464
178.7926,118.5977
178.7811,118.5403
Z" /> 
<path style="fill:#000000; fill-opacity:1.0000; stroke:none;fill-rule:evenodd;"
d="M 147.3561,75.6503
147.3371,75.7460
147.2829,75.8271
147.2018,75.8813
147.1061,75.9003
146.4061,75.9003
146.3105,75.8813
146.2294,75.8271
146.1752,75.7460
146.1561,75.6503
146.1561,74.7503
146.1752,74.6546
146.2294,74.5735
146.3105,74.5193
146.4061,74.5003
147.1061,74.5003
147.2018,74.5193
147.2829,74.5735
147.3371,74.6546
147.3561,74.7503
Z" /> 
<path style="fill:#000000; fill-opacity:1.0000; stroke:none;fill-rule:evenodd;"
d="M 145.3561,75.6503
145.3371,75.7460
145.2829,75.8271
145.2018,75.8813
145.1061,75.9003
144.4061,75.9003
144.3105,75.8813
144.2294,75.8271
144.1752,75.7460
144.1561,75.6503
144.1561,74.7503
144.1752,74.6546
144.2294,74.5735
144.3105,74.5193
144.4061,74.5003
145.1061,74.5003
145.2018,74.5193
145.2829,74.5735
145.3371,74.6546
145.3561,74.7503
Z" /> 
<path style="fill:#000000; fill-opacity:1.0000; stroke:none;fill-rule:evenodd;"
d="M 177.3561,127.6503
177.3371,127.7460
177.2829,127.8271
177.2018,127.8813
177.1061,127.9003
176.4061,127.9003
176.3105,127.8813
176.2294,127.8271
176.1752,127.7460
176.1561,127.6503
176.1561,126.7503
176.1752,126.6546
176.2294,126.5735
176.3105,126.5193
176.4061,126.5003
177.1061,126.5003
177.2018,126.5193
177.2829,126.5735
177.3371,126.6546
177.3561,126.7503
Z" /> 
<path style="fill:#000000; fill-opacity:1.0000; stroke:none;fill-rule:evenodd;"
d="M 175.3561,127.6503
175.3371,127.7460
175.2829,127.8271
175.2018,127.8813
175.1061,127.9003
174.4061,127.9003
174.3105,127.8813
174.2294,127.8271
174.1752,127.7460
174.1561,127.6503
174.1561,126.7503
174.1752,126.6546
174.2294,126.5735
174.3105,126.5193
174.4061,126.5003
175.1061,126.5003
175.2018,126.5193
175.2829,126.5735
175.3371,126.6546
175.3561,126.7503
Z" /> 
<path style="fill:#000000; fill-opacity:1.0000; stroke:none;fill-rule:evenodd;"
d="M 108.8811,74.7503
108.9002,74.6546
108.9544,74.5735
109.0355,74.5193
109.1311,74.5003
109.7811,74.5003
109.8768,74.5193
109.9579,74.5735
110.0121,74.6546
110.0311,74.7503
110.0311,75.6503
110.0121,75.7460
109.9579,75.8271
109.8768,75.8813
109.7811,75.9003
109.1311,75.9003
109.0355,75.8813
108.9544,75.8271
108.9002,75.7460
108.8811,75.6503
Z" /> 
<path style="fill:#000000; fill-opacity:1.0000; stroke:none;fill-rule:evenodd;"
d="M 110.9311,74.7503
110.9502,74.6546
111.0044,74.5735
111.0855,74.5193
111.1811,74.5003
111.8311,74.5003
111.9268,74.5193
112.0079,74.5735
112.0621,74.6546
112.0811,74.7503
112.0811,75.6503
112.0621,75.7460
112.0079,75.8271
111.9268,75.8813
111.8311,75.9003
111.1811,75.9003
111.0855,75.8813
111.0044,75.8271
110.9502,75.7460
110.9311,75.6503
Z" /> 
<path style="fill:#000000; fill-opacity:1.0000; stroke:none;fill-rule:evenodd;"
d="M 165.4936,75.1628
165.5845,75.1809
165.6616,75.2324
165.7131,75.3094
165.7311,75.4003
165.7311,76.0003
165.7131,76.0912
165.6616,76.1683
165.5845,76.2197
165.4936,76.2378
165.0186,76.2378
164.9278,76.2197
164.8507,76.1683
164.7992,76.0912
164.7811,76.0003
164.7811,75.4003
164.7992,75.3094
164.8507,75.2324
164.9278,75.1809
165.0186,75.1628
Z" /> 
<path style="fill:#000000; fill-opacity:1.0000; stroke:none;fill-rule:evenodd;"
d="M 165.4936,76.8878
165.5845,76.9059
165.6616,76.9574
165.7131,77.0344
165.7311,77.1253
165.7311,77.7253
165.7131,77.8162
165.6616,77.8933
165.5845,77.9447
165.4936,77.9628
165.0186,77.9628
164.9278,77.9447
164.8507,77.8933
164.7992,77.8162
164.7811,77.7253
164.7811,77.1253
164.7992,77.0344
164.8507,76.9574
164.9278,76.9059
165.0186,76.8878
Z" /> 
<path style="fill:#000000; fill-opacity:1.0000; stroke:none;fill-rule:evenodd;"
d="M 177.3561,75.6503
177.3371,75.7460
177.2829,75.8271
177.2018,75.8813
177.1061,75.9003
176.4061,75.9003
176.3105,75.8813
176.2294,75.8271
176.1752,75.7460
176.1561,75.6503
176.1561,74.7503
176.1752,74.6546
176.2294,74.5735
176.3105,74.5193
176.4061,74.5003
177.1061,74.5003
177.2018,74.5193
177.2829,74.5735
177.3371,74.6546
177.3561,74.7503
Z" /> 
<path style="fill:#000000; fill-opacity:1.0000; stroke:none;fill-rule:evenodd;"
d="M 175.3561,75.6503
175.3371,75.7460
175.2829,75.8271
175.2018,75.8813
175.1061,75.9003
174.4061,75.9003
174.3105,75.8813
174.2294,75.8271
174.1752,75.7460
174.1561,75.6503
174.1561,74.7503
174.1752,74.6546
174.2294,74.5735
174.3105,74.5193
174.4061,74.5003
175.1061,74.5003
175.2018,74.5193
175.2829,74.5735
175.3371,74.6546
175.3561,74.7503
Z" /> 
<path style="fill:#000000; fill-opacity:1.0000; stroke:none;fill-rule:evenodd;"
d="M 160.3811,96.0053
160.2950,95.9882
160.2220,95.9394
160.1733,95.8664
160.1561,95.7803
160.1561,95.3303
160.1733,95.2442
160.2220,95.1712
160.2950,95.1224
160.3811,95.1053
161.1311,95.1053
161.2172,95.1224
161.2902,95.1712
161.3390,95.2442
161.3561,95.3303
161.3561,95.7803
161.3390,95.8664
161.2902,95.9394
161.2172,95.9882
161.1311,96.0053
Z" /> 
<path style="fill:#000000; fill-opacity:1.0000; stroke:none;fill-rule:evenodd;"
d="M 160.3811,92.7053
160.2950,92.6882
160.2220,92.6394
160.1733,92.5664
160.1561,92.4803
160.1561,92.0303
160.1733,91.9442
160.2220,91.8712
160.2950,91.8224
160.3811,91.8053
161.1311,91.8053
161.2172,91.8224
161.2902,91.8712
161.3390,91.9442
161.3561,92.0303
161.3561,92.4803
161.3390,92.5664
161.2902,92.6394
161.2172,92.6882
161.1311,92.7053
Z" /> 
<path style="fill:#000000; fill-opacity:1.0000; stroke:none;fill-rule:evenodd;"
d="M 105.4561,64.1003
105.5518,64.1193
105.6329,64.1735
105.6871,64.2546
105.7061,64.3503
105.7061,65.0503
105.6871,65.1460
105.6329,65.2271
105.5518,65.2813
105.4561,65.3003
104.5561,65.3003
104.4605,65.2813
104.3794,65.2271
104.3252,65.1460
104.3061,65.0503
104.3061,64.3503
104.3252,64.2546
104.3794,64.1735
104.4605,64.1193
104.5561,64.1003
Z" /> 
<path style="fill:#000000; fill-opacity:1.0000; stroke:none;fill-rule:evenodd;"
d="M 105.4561,66.1003
105.5518,66.1193
105.6329,66.1735
105.6871,66.2546
105.7061,66.3503
105.7061,67.0503
105.6871,67.1460
105.6329,67.2271
105.5518,67.2813
105.4561,67.3003
104.5561,67.3003
104.4605,67.2813
104.3794,67.2271
104.3252,67.1460
104.3061,67.0503
104.3061,66.3503
104.3252,66.2546
104.3794,66.1735
104.4605,66.1193
104.5561,66.1003
Z" /> 
<path style="fill:#000000; fill-opacity:1.0000; stroke:none;fill-rule:evenodd;"
d="M 130.3811,70.0053
130.2950,69.9882
130.2220,69.9394
130.1733,69.8664
130.1561,69.7803
130.1561,69.3303
130.1733,69.2442
130.2220,69.1712
130.2950,69.1224
130.3811,69.1053
131.1311,69.1053
131.2172,69.1224
131.2902,69.1712
131.3390,69.2442
131.3561,69.3303
131.3561,69.7803
131.3390,69.8664
131.2902,69.9394
131.2172,69.9882
131.1311,70.0053
Z" /> 
<path style="fill:#000000; fill-opacity:1.0000; stroke:none;fill-rule:evenodd;"
d="M 130.3811,66.7053
130.2950,66.6882
130.2220,66.6394
130.1733,66.5664
130.1561,66.4803
130.1561,66.0303
130.1733,65.9442
130.2220,65.8712
130.2950,65.8224
130.3811,65.8053
131.1311,65.8053
131.2172,65.8224
131.2902,65.8712
131.3390,65.9442
131.3561,66.0303
131.3561,66.4803
131.3390,66.5664
131.2902,66.6394
131.2172,66.6882
131.1311,66.7053
Z" /> 
<path style="fill:#000000; fill-opacity:1.0000; stroke:none;fill-rule:evenodd;"
d="M 117.3561,101.6503
117.3371,101.7460
117.2829,101.8271
117.2018,101.8813
117.1061,101.9003
116.4061,101.9003
116.3105,101.8813
116.2294,101.8271
116.1752,101.7460
116.1561,101.6503
116.1561,100.7503
116.1752,100.6546
116.2294,100.5735
116.3105,100.5193
116.4061,100.5003
117.1061,100.5003
117.2018,100.5193
117.2829,100.5735
117.3371,100.6546
117.3561,100.7503
Z" /> 
<path style="fill:#000000; fill-opacity:1.0000; stroke:none;fill-rule:evenodd;"
d="M 115.3561,101.6503
115.3371,101.7460
115.2829,101.8271
115.2018,101.8813
115.1061,101.9003
114.4061,101.9003
114.3105,101.8813
114.2294,101.8271
114.1752,101.7460
114.1561,101.6503
114.1561,100.7503
114.1752,100.6546
114.2294,100.5735
114.3105,100.5193
114.4061,100.5003
115.1061,100.5003
115.2018,100.5193
115.2829,100.5735
115.3371,100.6546
115.3561,100.7503
Z" /> 
<path style="fill:#000000; fill-opacity:1.0000; stroke:none;fill-rule:evenodd;"
d="M 135.6561,69.1003
136.8561,69.1003
136.8561,70.3003
135.6561,70.3003
Z" /> 
<path style="fill:#000000; fill-opacity:1.0000; stroke:none;fill-rule:evenodd;"
d="M 134.4561,72.2003
136.0561,72.2003
136.0561,73.7003
134.4561,73.7003
Z" /> 
<path style="fill:#000000; fill-opacity:1.0000; stroke:none;fill-rule:evenodd;"
d="M 133.6561,69.1003
134.8561,69.1003
134.8561,70.3003
133.6561,70.3003
Z" /> 
<path style="fill:#000000; fill-opacity:1.0000; stroke:none;fill-rule:evenodd;"
d="M 168.8811,126.7503
168.9002,126.6546
168.9544,126.5735
169.0355,126.5193
169.1311,126.5003
169.7811,126.5003
169.8768,126.5193
169.9579,126.5735
170.0121,126.6546
170.0311,126.7503
170.0311,127.6503
170.0121,127.7460
169.9579,127.8271
169.8768,127.8813
169.7811,127.9003
169.1311,127.9003
169.0355,127.8813
168.9544,127.8271
168.9002,127.7460
168.8811,127.6503
Z" /> 
<path style="fill:#000000; fill-opacity:1.0000; stroke:none;fill-rule:evenodd;"
d="M 170.9311,126.7503
170.9502,126.6546
171.0044,126.5735
171.0855,126.5193
171.1811,126.5003
171.8311,126.5003
171.9268,126.5193
172.0079,126.5735
172.0621,126.6546
172.0811,126.7503
172.0811,127.6503
172.0621,127.7460
172.0079,127.8271
171.9268,127.8813
171.8311,127.9003
171.1811,127.9003
171.0855,127.8813
171.0044,127.8271
170.9502,127.7460
170.9311,127.6503
Z" /> 
<path style="fill:#000000; fill-opacity:1.0000; stroke:none;fill-rule:evenodd;"
d="M 160.3811,70.0053
160.2950,69.9882
160.2220,69.9394
160.1733,69.8664
160.1561,69.7803
160.1561,69.3303
160.1733,69.2442
160.2220,69.1712
160.2950,69.1224
160.3811,69.1053
161.1311,69.1053
161.2172,69.1224
161.2902,69.1712
161.3390,69.2442
161.3561,69.3303
161.3561,69.7803
161.3390,69.8664
161.2902,69.9394
161.2172,69.9882
161.1311,70.0053
Z" /> 
<path style="fill:#000000; fill-opacity:1.0000; stroke:none;fill-rule:evenodd;"
d="M 160.3811,66.7053
160.2950,66.6882
160.2220,66.6394
160.1733,66.5664
160.1561,66.4803
160.1561,66.0303
160.1733,65.9442
160.2220,65.8712
160.2950,65.8224
160.3811,65.8053
161.1311,65.8053
161.2172,65.8224
161.2902,65.8712
161.3390,65.9442
161.3561,66.0303
161.3561,66.4803
161.3390,66.5664
161.2902,66.6394
161.2172,66.6882
161.1311,66.7053
Z" /> 
<path style="fill:#000000; fill-opacity:1.0000; stroke:none;fill-rule:evenodd;"
d="M 173.8311,66.2403
173.8426,66.1829
173.8751,66.1342
173.9237,66.1017
173.9811,66.0903
175.6311,66.0903
175.6885,66.1017
175.7372,66.1342
175.7697,66.1829
175.7811,66.2403
175.7811,66.5403
175.7697,66.5977
175.7372,66.6464
175.6885,66.6789
175.6311,66.6903
173.9811,66.6903
173.9237,66.6789
173.8751,66.6464
173.8426,66.5977
173.8311,66.5403
Z" /> 
<path style="fill:#000000; fill-opacity:1.0000; stroke:none;fill-rule:evenodd;"
d="M 173.8311,67.5103
173.8426,67.4529
173.8751,67.4042
173.9237,67.3717
173.9811,67.3603
175.6311,67.3603
175.6885,67.3717
175.7372,67.4042
175.7697,67.4529
175.7811,67.5103
175.7811,67.8103
175.7697,67.8677
175.7372,67.9164
175.6885,67.9489
175.6311,67.9603
173.9811,67.9603
173.9237,67.9489
173.8751,67.9164
173.8426,67.8677
173.8311,67.8103
Z" /> 
<path style="fill:#000000; fill-opacity:1.0000; stroke:none;fill-rule:evenodd;"
d="M 173.8311,68.7803
173.8426,68.7229
173.8751,68.6742
173.9237,68.6417
173.9811,68.6303
175.6311,68.6303
175.6885,68.6417
175.7372,68.6742
175.7697,68.7229
175.7811,68.7803
175.7811,69.0803
175.7697,69.1377
175.7372,69.1864
175.6885,69.2189
175.6311,69.2303
173.9811,69.2303
173.9237,69.2189
173.8751,69.1864
173.8426,69.1377
173.8311,69.0803
Z" /> 
<path style="fill:#000000; fill-opacity:1.0000; stroke:none;fill-rule:evenodd;"
d="M 173.8311,70.0503
173.8426,69.9929
173.8751,69.9442
173.9237,69.9117
173.9811,69.9003
175.6311,69.9003
175.6885,69.9117
175.7372,69.9442
175.7697,69.9929
175.7811,70.0503
175.7811,70.3503
175.7697,70.4077
175.7372,70.4564
175.6885,70.4889
175.6311,70.5003
173.9811,70.5003
173.9237,70.4889
173.8751,70.4564
173.8426,70.4077
173.8311,70.3503
Z" /> 
<path style="fill:#000000; fill-opacity:1.0000; stroke:none;fill-rule:evenodd;"
d="M 178.7811,70.0503
178.7926,69.9929
178.8251,69.9442
178.8737,69.9117
178.9311,69.9003
180.5811,69.9003
180.6385,69.9117
180.6872,69.9442
180.7197,69.9929
180.7311,70.0503
180.7311,70.3503
180.7197,70.4077
180.6872,70.4564
180.6385,70.4889
180.5811,70.5003
178.9311,70.5003
178.8737,70.4889
178.8251,70.4564
178.7926,70.4077
178.7811,70.3503
Z" /> 
<path style="fill:#000000; fill-opacity:1.0000; stroke:none;fill-rule:evenodd;"
d="M 178.7811,68.7803
178.7926,68.7229
178.8251,68.6742
178.8737,68.6417
178.9311,68.6303
180.5811,68.6303
180.6385,68.6417
180.6872,68.6742
180.7197,68.7229
180.7311,68.7803
180.7311,69.0803
180.7197,69.1377
180.6872,69.1864
180.6385,69.2189
180.5811,69.2303
178.9311,69.2303
178.8737,69.2189
178.8251,69.1864
178.7926,69.1377
178.7811,69.0803
Z" /> 
<path style="fill:#000000; fill-opacity:1.0000; stroke:none;fill-rule:evenodd;"
d="M 178.7811,67.5103
178.7926,67.4529
178.8251,67.4042
178.8737,67.3717
178.9311,67.3603
180.5811,67.3603
180.6385,67.3717
180.6872,67.4042
180.7197,67.4529
180.7311,67.5103
180.7311,67.8103
180.7197,67.8677
180.6872,67.9164
180.6385,67.9489
180.5811,67.9603
178.9311,67.9603
178.8737,67.9489
178.8251,67.9164
178.7926,67.8677
178.7811,67.8103
Z" /> 
<path style="fill:#000000; fill-opacity:1.0000; stroke:none;fill-rule:evenodd;"
d="M 178.7811,66.2403
178.7926,66.1829
178.8251,66.1342
178.8737,66.1017
178.9311,66.0903
180.5811,66.0903
180.6385,66.1017
180.6872,66.1342
180.7197,66.1829
180.7311,66.2403
180.7311,66.5403
180.7197,66.5977
180.6872,66.6464
180.6385,66.6789
180.5811,66.6903
178.9311,66.6903
178.8737,66.6789
178.8251,66.6464
178.7926,66.5977
178.7811,66.5403
Z" /> 
<path style="fill:#000000; fill-opacity:1.0000; stroke:none;fill-rule:evenodd;"
d="M 170.1311,117.8503
170.2172,117.8674
170.2902,117.9162
170.3390,117.9892
170.3561,118.0753
170.3561,118.5253
170.3390,118.6114
170.2902,118.6844
170.2172,118.7332
170.1311,118.7503
169.3811,118.7503
169.2950,118.7332
169.2220,118.6844
169.1733,118.6114
169.1561,118.5253
169.1561,118.0753
169.1733,117.9892
169.2220,117.9162
169.2950,117.8674
169.3811,117.8503
Z" /> 
<path style="fill:#000000; fill-opacity:1.0000; stroke:none;fill-rule:evenodd;"
d="M 170.1311,121.1503
170.2172,121.1674
170.2902,121.2162
170.3390,121.2892
170.3561,121.3753
170.3561,121.8253
170.3390,121.9114
170.2902,121.9844
170.2172,122.0332
170.1311,122.0503
169.3811,122.0503
169.2950,122.0332
169.2220,121.9844
169.1733,121.9114
169.1561,121.8253
169.1561,121.3753
169.1733,121.2892
169.2220,121.2162
169.2950,121.1674
169.3811,121.1503
Z" /> 
<path style="fill:#000000; fill-opacity:1.0000; stroke:none;fill-rule:evenodd;"
d="M 110.1311,117.8503
110.2172,117.8674
110.2902,117.9162
110.3390,117.9892
110.3561,118.0753
110.3561,118.5253
110.3390,118.6114
110.2902,118.6844
110.2172,118.7332
110.1311,118.7503
109.3811,118.7503
109.2950,118.7332
109.2220,118.6844
109.1733,118.6114
109.1561,118.5253
109.1561,118.0753
109.1733,117.9892
109.2220,117.9162
109.2950,117.8674
109.3811,117.8503
Z" /> 
<path style="fill:#000000; fill-opacity:1.0000; stroke:none;fill-rule:evenodd;"
d="M 110.1311,121.1503
110.2172,121.1674
110.2902,121.2162
110.3390,121.2892
110.3561,121.3753
110.3561,121.8253
110.3390,121.9114
110.2902,121.9844
110.2172,122.0332
110.1311,122.0503
109.3811,122.0503
109.2950,122.0332
109.2220,121.9844
109.1733,121.9114
109.1561,121.8253
109.1561,121.3753
109.1733,121.2892
109.2220,121.2162
109.2950,121.1674
109.3811,121.1503
Z" /> 
<path style="fill:#000000; fill-opacity:1.0000; stroke:none;fill-rule:evenodd;"
d="M 165.6561,121.1003
166.8561,121.1003
166.8561,122.3003
165.6561,122.3003
Z" /> 
<path style="fill:#000000; fill-opacity:1.0000; stroke:none;fill-rule:evenodd;"
d="M 164.4561,124.2003
166.0561,124.2003
166.0561,125.7003
164.4561,125.7003
Z" /> 
<path style="fill:#000000; fill-opacity:1.0000; stroke:none;fill-rule:evenodd;"
d="M 163.6561,121.1003
164.8561,121.1003
164.8561,122.3003
163.6561,122.3003
Z" /> 
<path style="fill:#000000; fill-opacity:1.0000; stroke:none;fill-rule:evenodd;"
d="M 138.8811,100.7503
138.9002,100.6546
138.9544,100.5735
139.0355,100.5193
139.1311,100.5003
139.7811,100.5003
139.8768,100.5193
139.9579,100.5735
140.0121,100.6546
140.0311,100.7503
140.0311,101.6503
140.0121,101.7460
139.9579,101.8271
139.8768,101.8813
139.7811,101.9003
139.1311,101.9003
139.0355,101.8813
138.9544,101.8271
138.9002,101.7460
138.8811,101.6503
Z" /> 
<path style="fill:#000000; fill-opacity:1.0000; stroke:none;fill-rule:evenodd;"
d="M 140.9311,100.7503
140.9502,100.6546
141.0044,100.5735
141.0855,100.5193
141.1811,100.5003
141.8311,100.5003
141.9268,100.5193
142.0079,100.5735
142.0621,100.6546
142.0811,100.7503
142.0811,101.6503
142.0621,101.7460
142.0079,101.8271
141.9268,101.8813
141.8311,101.9003
141.1811,101.9003
141.0855,101.8813
141.0044,101.8271
140.9502,101.7460
140.9311,101.6503
Z" /> 
<path style="fill:#000000; fill-opacity:1.0000; stroke:none;fill-rule:evenodd;"
d="M 105.4561,116.1003
105.5518,116.1193
105.6329,116.1735
105.6871,116.2546
105.7061,116.3503
105.7061,117.0503
105.6871,117.1460
105.6329,117.2271
105.5518,117.2813
105.4561,117.3003
104.5561,117.3003
104.4605,117.2813
104.3794,117.2271
104.3252,117.1460
104.3061,117.0503
104.3061,116.3503
104.3252,116.2546
104.3794,116.1735
104.4605,116.1193
104.5561,116.1003
Z" /> 
<path style="fill:#000000; fill-opacity:1.0000; stroke:none;fill-rule:evenodd;"
d="M 105.4561,118.1003
105.5518,118.1193
105.6329,118.1735
105.6871,118.2546
105.7061,118.3503
105.7061,119.0503
105.6871,119.1460
105.6329,119.2271
105.5518,119.2813
105.4561,119.3003
104.5561,119.3003
104.4605,119.2813
104.3794,119.2271
104.3252,119.1460
104.3061,119.0503
104.3061,118.3503
104.3252,118.2546
104.3794,118.1735
104.4605,118.1193
104.5561,118.1003
Z" /> 
<path style="fill:#000000; fill-opacity:1.0000; stroke:none;fill-rule:evenodd;"
d="M 108.8811,126.7503
108.9002,126.6546
108.9544,126.5735
109.0355,126.5193
109.1311,126.5003
109.7811,126.5003
109.8768,126.5193
109.9579,126.5735
110.0121,126.6546
110.0311,126.7503
110.0311,127.6503
110.0121,127.7460
109.9579,127.8271
109.8768,127.8813
109.7811,127.9003
109.1311,127.9003
109.0355,127.8813
108.9544,127.8271
108.9002,127.7460
108.8811,127.6503
Z" /> 
<path style="fill:#000000; fill-opacity:1.0000; stroke:none;fill-rule:evenodd;"
d="M 110.9311,126.7503
110.9502,126.6546
111.0044,126.5735
111.0855,126.5193
111.1811,126.5003
111.8311,126.5003
111.9268,126.5193
112.0079,126.5735
112.0621,126.6546
112.0811,126.7503
112.0811,127.6503
112.0621,127.7460
112.0079,127.8271
111.9268,127.8813
111.8311,127.9003
111.1811,127.9003
111.0855,127.8813
111.0044,127.8271
110.9502,127.7460
110.9311,127.6503
Z" /> 
</g> 
</svg>
